<svg id="spritesheet" xmlns="http://www.w3.org/2000/svg" width="1050" height="500" viewBox="0 0 1050 500"><defs><style>.cls-1{fill:#f2c09a;}.cls-2{fill:#0d2436;}.cls-3{fill:#f7f8eb;}.cls-4{fill:#3a4d5c;}.cls-5{fill:#abbfcf;opacity:0.66;}.cls-6{fill:#143441;}.cls-7{fill:none;}.cls-8{fill:#5a6570;}.cls-9{fill:#fad17c;}.cls-10{fill:#fad87c;}.cls-11{fill:#e9937c;}.cls-12{fill:#fff;}.cls-13{fill:#050505;}.cls-14{fill:#070606;}.cls-15{fill:#c41707;}.cls-16{fill:#dbdce6;}</style></defs><title>beerpong_guy</title><rect class="cls-1" x="96.626" y="38.124" width="46.203" height="68.5" rx="23.101" ry="23.101" transform="translate(6.404 -9.665) rotate(4.75)"/><rect class="cls-1" x="137.379" y="154.681" width="96.96" height="20" rx="10" ry="10" transform="translate(119.569 -74.629) rotate(32.974)"/><path class="cls-2" d="M142.654,274.9a12.285,12.285,0,0,0-12.249-12.25H123.3l-66.587-13.91a13.358,13.358,0,0,0-15.76,10.314l-.126.6a13.358,13.358,0,0,0,7.119,14.634s6.163,51.422,5.03,75.747a55.938,55.938,0,0,1-.792,7.681,14.628,14.628,0,0,1-.849,2.978l-.181,1.41-9.038,70.284A15.043,15.043,0,0,0,55.08,449.183l.684.088a15.046,15.046,0,0,0,16.791-12.965l9.862-76.691a12.085,12.085,0,0,0,1.446-5.722v-71.64l21.333,4.456s7.5,46.095,5.867,68.7a14.9,14.9,0,0,0-.35,2.078l-.277,3.14a20.169,20.169,0,0,1-1.039,3.842c.21.184.431.355.653.525l-6.207,70.313a15.045,15.045,0,0,0,13.623,16.261l1.678.148A15.044,15.044,0,0,0,135.405,438.1l6.87-77.82a14.953,14.953,0,0,0,.019-2.115,12.125,12.125,0,0,0,.36-2.888Z"/><polygon class="cls-2" points="109.393 364.482 109.397 364.472 109.39 364.466 109.393 364.482"/><path class="cls-3" d="M165.446,452.265q-.378.017-.786,0c-8.032-.228-24.22-8.188-24.22-8.188l-8.393,4.362L125.631,429.3a8.509,8.509,0,0,1,3.787-3A83.587,83.587,0,0,1,104,425.03l-.327,0-1.217,5h11.175a.727.727,0,0,1,.725.724h0a.727.727,0,0,1-.725.724H102.107l-.608,2.5h18.8a.875.875,0,1,1,0,1.75H101.074l-.578,2.375h8.916a.532.532,0,0,1,0,1.063h-9.174l-.718,2.951c-.184,4.354-4.873,20.432-4.873,20.432l-4.036.063c-5.177,4.78-1.27,5.249-1.27,5.249,2.081.415,10.527.387,10.527.387l64.816.138C174.9,466.848,173.151,451.942,165.446,452.265Z"/><path class="cls-3" d="M125.631,429.3l6.416,19.144,8.393-4.362-.03-.63c0-.09.019-.176.015-.267l-.723-14.968h0c-.116-2.419-3.336-3.17-3.336-3.17h0a56.175,56.175,0,0,1-6.945,1.252A8.509,8.509,0,0,0,125.631,429.3Z"/><path class="cls-4" d="M114.36,430.762h0a.727.727,0,0,0-.725-.724H102.46l-.353,1.448h11.528A.727.727,0,0,0,114.36,430.762Z"/><path class="cls-4" d="M121.172,434.861a.878.878,0,0,0-.875-.875H101.5l-.425,1.75H120.3A.877.877,0,0,0,121.172,434.861Z"/><path class="cls-4" d="M109.943,438.643a.533.533,0,0,0-.531-.532H100.5l-.258,1.063h9.174A.533.533,0,0,0,109.943,438.643Z"/><ellipse class="cls-5" cx="92.917" cy="466.03" rx="2.173" ry="0.301" transform="translate(-382.085 452.208) rotate(-77.057)"/><ellipse class="cls-5" cx="95.448" cy="466.03" rx="2.173" ry="0.301" transform="translate(-380.12 454.675) rotate(-77.057)"/><ellipse class="cls-5" cx="98.167" cy="466.03" rx="2.173" ry="0.301" transform="translate(-378.01 457.324) rotate(-77.057)"/><ellipse class="cls-5" cx="100.75" cy="466.03" rx="2.173" ry="0.301" transform="translate(-376.006 459.842) rotate(-77.057)"/><ellipse class="cls-5" cx="103.334" cy="466.03" rx="2.173" ry="0.301" transform="translate(-374.001 462.36) rotate(-77.057)"/><ellipse class="cls-5" cx="105.771" cy="466.03" rx="2.173" ry="0.301" transform="translate(-372.109 464.735) rotate(-77.057)"/><ellipse class="cls-5" cx="108.459" cy="466.134" rx="2.173" ry="0.301" transform="translate(-370.125 467.435) rotate(-77.057)"/><ellipse class="cls-5" cx="111.209" cy="466.134" rx="2.173" ry="0.301" transform="translate(-367.991 470.116) rotate(-77.057)"/><ellipse class="cls-5" cx="114.063" cy="466.134" rx="2.173" ry="0.301" transform="translate(-365.776 472.897) rotate(-77.057)"/><ellipse class="cls-5" cx="116.917" cy="466.134" rx="2.173" ry="0.301" transform="translate(-363.561 475.679) rotate(-77.057)"/><ellipse class="cls-5" cx="119.917" cy="466.134" rx="2.173" ry="0.301" transform="translate(-361.233 478.603) rotate(-77.057)"/><ellipse class="cls-5" cx="122.917" cy="466.134" rx="2.173" ry="0.301" transform="translate(-358.905 481.527) rotate(-77.057)"/><ellipse class="cls-5" cx="126.105" cy="466.134" rx="2.173" ry="0.301" transform="translate(-356.432 484.633) rotate(-77.057)"/><ellipse class="cls-5" cx="129.605" cy="466.134" rx="2.173" ry="0.301" transform="translate(-353.716 488.044) rotate(-77.057)"/><ellipse class="cls-5" cx="133.349" cy="466.134" rx="2.173" ry="0.301" transform="translate(-350.81 491.693) rotate(-77.057)"/><ellipse class="cls-5" cx="137.25" cy="466.134" rx="2.173" ry="0.301" transform="translate(-347.782 495.496) rotate(-77.057)"/><ellipse class="cls-5" cx="141.417" cy="466.134" rx="2.173" ry="0.301" transform="translate(-344.549 499.557) rotate(-77.057)"/><ellipse class="cls-5" cx="145.334" cy="466.134" rx="2.173" ry="0.301" transform="translate(-341.509 503.374) rotate(-77.057)"/><ellipse class="cls-5" cx="149.25" cy="466.134" rx="2.173" ry="0.301" transform="translate(-338.47 507.191) rotate(-77.057)"/><ellipse class="cls-5" cx="153.48" cy="466.134" rx="2.173" ry="0.301" transform="translate(-335.188 511.313) rotate(-77.057)"/><ellipse class="cls-5" cx="157.917" cy="466.134" rx="2.173" ry="0.301" transform="translate(-331.744 515.637) rotate(-77.057)"/><ellipse class="cls-5" cx="162.25" cy="466.134" rx="2.173" ry="0.301" transform="translate(-328.382 519.861) rotate(-77.057)"/><ellipse class="cls-6" cx="152.124" cy="452.182" rx="3.642" ry="0.322" transform="translate(-169.177 99.512) rotate(-23.741)"/><ellipse class="cls-6" cx="146.57" cy="450.132" rx="3.642" ry="0.255" transform="translate(-168.821 97.102) rotate(-23.741)"/><ellipse class="cls-6" cx="140.293" cy="447.369" rx="3.642" ry="0.379" transform="translate(-157.784 85.469) rotate(-22.065)"/><ellipse class="cls-6" cx="143.473" cy="448.597" rx="0.284" ry="6.382" transform="translate(-307.96 582.882) rotate(-88.83)"/><ellipse class="cls-6" cx="143.418" cy="448.766" rx="0.182" ry="2.831"/><ellipse class="cls-6" cx="149.25" cy="451.105" rx="6.007" ry="0.211" transform="translate(-21.562 7.715) rotate(-2.762)"/><ellipse class="cls-5" cx="165.66" cy="466.134" rx="2.173" ry="0.301" transform="translate(-325.736 523.183) rotate(-77.057)"/><path class="cls-6" d="M143.613,450.247a1.013,1.013,0,1,0,1.013,1.013A1.014,1.014,0,0,0,143.613,450.247Zm0,1.477a.464.464,0,1,1,.464-.464A.464.464,0,0,1,143.613,451.724Z"/><path class="cls-6" d="M137.379,447.586a1.013,1.013,0,1,0,1.013,1.013A1.012,1.012,0,0,0,137.379,447.586Zm0,1.477a.464.464,0,1,1,.464-.464A.464.464,0,0,1,137.379,449.063Z"/><path class="cls-6" d="M149.25,452.371a1.013,1.013,0,1,0,1.014,1.013A1.014,1.014,0,0,0,149.25,452.371Zm0,1.477a.464.464,0,1,1,.464-.464A.463.463,0,0,1,149.25,453.848Z"/><path class="cls-6" d="M143.338,445.393a.739.739,0,1,0,.739.739A.739.739,0,0,0,143.338,445.393Zm0,1.077a.338.338,0,1,1,.338-.338A.339.339,0,0,1,143.338,446.47Z"/><path class="cls-6" d="M149.714,448.043a.739.739,0,1,0,.739.738A.738.738,0,0,0,149.714,448.043Zm0,1.076a.338.338,0,1,1,.338-.338A.338.338,0,0,1,149.714,449.119Z"/><path class="cls-6" d="M155.224,450.132a.738.738,0,1,0,.738.738A.738.738,0,0,0,155.224,450.132Zm0,1.076a.338.338,0,1,1,.338-.338A.338.338,0,0,1,155.224,451.208Z"/><ellipse class="cls-6" cx="149.366" cy="451.116" rx="2.592" ry="0.165" transform="translate(-319.748 526.928) rotate(-80.86)"/><path class="cls-4" d="M96.149,457.066s9.5-2.562,8.021-10.115c0,0-.346-.582-5.32-.582Z"/><path class="cls-4" d="M109.3,462.549h30.25S108.131,445.549,109.3,462.549Z"/><path class="cls-4" d="M125.631,429.3s5.916,13.814,4.583,17.24C130.214,446.539,124.964,431.382,125.631,429.3Z"/><path class="cls-4" d="M138.535,443.965s-4.083.476-5.5,2.905Z"/><path class="cls-4" d="M137.5,425.931s-7.97-.538-11.385,3.078Z"/><path class="cls-4" d="M138.928,426.949s1.8,13.442.1,16.3C139.024,443.25,138,428.712,138.928,426.949Z"/><path class="cls-3" d="M102.167,463.005q-.378.017-.786,0c-8.032-.228-24.22-8.188-24.22-8.188l-8.393,4.363-6.416-19.145a8.509,8.509,0,0,1,3.787-3,83.589,83.589,0,0,1-25.414-1.268l-.327,0-1.217,5H50.357a.726.726,0,0,1,.724.724h0a.726.726,0,0,1-.724.724H38.828l-.607,2.5h18.8a.875.875,0,1,1,0,1.75H37.8l-.578,2.375h8.916a.532.532,0,0,1,0,1.063H36.959l-.718,2.951c-.184,4.354-4.873,20.432-4.873,20.432l-4.036.063c-5.177,4.78-1.27,5.249-1.27,5.249,2.081.415,10.527.388,10.527.388l64.816.137C111.622,477.588,109.872,462.682,102.167,463.005Z"/><path class="cls-3" d="M62.352,440.039l6.416,19.145,8.393-4.363-.029-.63c0-.089.018-.176.014-.267l-.722-14.968h0c-.117-2.419-3.337-3.17-3.337-3.17h0a56.141,56.141,0,0,1-6.945,1.252A8.509,8.509,0,0,0,62.352,440.039Z"/><path class="cls-4" d="M51.081,441.5h0a.726.726,0,0,0-.724-.724H39.181l-.353,1.448H50.357A.726.726,0,0,0,51.081,441.5Z"/><path class="cls-4" d="M57.893,445.6a.877.877,0,0,0-.875-.875h-18.8l-.426,1.75H57.018A.877.877,0,0,0,57.893,445.6Z"/><path class="cls-4" d="M46.664,449.383a.533.533,0,0,0-.531-.532H37.217l-.258,1.063h9.174A.533.533,0,0,0,46.664,449.383Z"/><ellipse class="cls-5" cx="29.638" cy="476.77" rx="2.173" ry="0.301" transform="translate(-441.658 398.871) rotate(-77.057)"/><ellipse class="cls-5" cx="32.169" cy="476.77" rx="2.173" ry="0.301" transform="translate(-439.694 401.338) rotate(-77.057)"/><ellipse class="cls-5" cx="34.888" cy="476.77" rx="2.173" ry="0.301" transform="translate(-437.584 403.988) rotate(-77.057)"/><ellipse class="cls-5" cx="37.472" cy="476.77" rx="2.173" ry="0.301" transform="translate(-435.579 406.506) rotate(-77.057)"/><ellipse class="cls-5" cx="40.055" cy="476.77" rx="2.173" ry="0.301" transform="translate(-433.574 409.023) rotate(-77.057)"/><ellipse class="cls-5" cx="42.492" cy="476.77" rx="2.173" ry="0.301" transform="translate(-431.683 411.399) rotate(-77.057)"/><ellipse class="cls-5" cx="45.18" cy="476.874" rx="2.173" ry="0.301" transform="translate(-429.699 414.099) rotate(-77.057)"/><ellipse class="cls-5" cx="47.93" cy="476.874" rx="2.173" ry="0.301" transform="translate(-427.565 416.779) rotate(-77.057)"/><ellipse class="cls-5" cx="50.784" cy="476.874" rx="2.173" ry="0.301" transform="translate(-425.35 419.561) rotate(-77.057)"/><ellipse class="cls-5" cx="53.638" cy="476.874" rx="2.173" ry="0.301" transform="translate(-423.135 422.342) rotate(-77.057)"/><ellipse class="cls-5" cx="56.638" cy="476.874" rx="2.173" ry="0.301" transform="translate(-420.807 425.266) rotate(-77.057)"/><ellipse class="cls-5" cx="59.638" cy="476.874" rx="2.173" ry="0.301" transform="translate(-418.479 428.19) rotate(-77.057)"/><ellipse class="cls-5" cx="62.826" cy="476.874" rx="2.173" ry="0.301" transform="translate(-416.005 431.296) rotate(-77.057)"/><ellipse class="cls-5" cx="66.326" cy="476.874" rx="2.173" ry="0.301" transform="translate(-413.289 434.708) rotate(-77.057)"/><ellipse class="cls-5" cx="70.07" cy="476.874" rx="2.173" ry="0.301" transform="translate(-410.383 438.357) rotate(-77.057)"/><ellipse class="cls-5" cx="73.972" cy="476.874" rx="2.173" ry="0.301" transform="translate(-407.356 442.159) rotate(-77.057)"/><ellipse class="cls-5" cx="78.138" cy="476.874" rx="2.173" ry="0.301" transform="translate(-404.122 446.22) rotate(-77.057)"/><ellipse class="cls-5" cx="82.055" cy="476.874" rx="2.173" ry="0.301" transform="translate(-401.083 450.037) rotate(-77.057)"/><ellipse class="cls-5" cx="85.972" cy="476.874" rx="2.173" ry="0.301" transform="translate(-398.043 453.854) rotate(-77.057)"/><ellipse class="cls-5" cx="90.201" cy="476.874" rx="2.173" ry="0.301" transform="translate(-394.761 457.976) rotate(-77.057)"/><ellipse class="cls-5" cx="94.638" cy="476.874" rx="2.173" ry="0.301" transform="translate(-391.318 462.301) rotate(-77.057)"/><ellipse class="cls-5" cx="98.972" cy="476.874" rx="2.173" ry="0.301" transform="translate(-387.955 466.524) rotate(-77.057)"/><ellipse class="cls-6" cx="88.846" cy="462.922" rx="3.642" ry="0.322" transform="translate(-178.856 74.945) rotate(-23.741)"/><ellipse class="cls-6" cx="83.291" cy="460.872" rx="3.642" ry="0.255" transform="translate(-178.5 72.535) rotate(-23.741)"/><ellipse class="cls-6" cx="77.015" cy="458.109" rx="3.642" ry="0.379" transform="translate(-166.453 62.485) rotate(-22.065)"/><ellipse class="cls-6" cx="80.195" cy="459.337" rx="0.284" ry="6.382" transform="translate(-380.684 530.138) rotate(-88.83)"/><ellipse class="cls-6" cx="80.14" cy="459.507" rx="0.182" ry="2.831"/><ellipse class="cls-6" cx="85.972" cy="461.845" rx="6.007" ry="0.211" transform="translate(-22.152 4.679) rotate(-2.762)"/><ellipse class="cls-5" cx="102.381" cy="476.874" rx="2.173" ry="0.301" transform="translate(-385.309 469.847) rotate(-77.057)"/><path class="cls-6" d="M80.334,460.987A1.013,1.013,0,1,0,81.348,462,1.014,1.014,0,0,0,80.334,460.987Zm0,1.477A.464.464,0,1,1,80.8,462,.463.463,0,0,1,80.334,462.464Z"/><path class="cls-6" d="M74.1,458.326a1.013,1.013,0,1,0,1.013,1.013A1.012,1.012,0,0,0,74.1,458.326Zm0,1.477a.464.464,0,1,1,.464-.464A.464.464,0,0,1,74.1,459.8Z"/><path class="cls-6" d="M85.972,463.111a1.014,1.014,0,1,0,1.013,1.013A1.014,1.014,0,0,0,85.972,463.111Zm0,1.477a.464.464,0,1,1,.463-.464A.463.463,0,0,1,85.972,464.588Z"/><path class="cls-6" d="M80.06,456.133a.739.739,0,1,0,.738.739A.739.739,0,0,0,80.06,456.133Zm0,1.077a.338.338,0,1,1,.338-.338A.338.338,0,0,1,80.06,457.21Z"/><path class="cls-6" d="M86.435,458.783a.739.739,0,1,0,.739.739A.738.738,0,0,0,86.435,458.783Zm0,1.077a.338.338,0,1,1,.338-.338A.339.339,0,0,1,86.435,459.86Z"/><path class="cls-6" d="M91.945,460.872a.739.739,0,1,0,.738.738A.738.738,0,0,0,91.945,460.872Zm0,1.076a.338.338,0,1,1,.338-.338A.338.338,0,0,1,91.945,461.948Z"/><ellipse class="cls-6" cx="86.087" cy="461.856" rx="2.592" ry="0.165" transform="translate(-383.579 473.487) rotate(-80.86)"/><path class="cls-4" d="M32.87,467.806s9.506-2.561,8.021-10.115c0,0-.346-.582-5.32-.582Z"/><path class="cls-4" d="M46.018,473.289h30.25S44.852,456.289,46.018,473.289Z"/><path class="cls-4" d="M62.352,440.039s5.916,13.814,4.583,17.24C66.935,457.279,61.685,442.122,62.352,440.039Z"/><path class="cls-4" d="M75.256,454.706s-4.083.475-5.5,2.9Z"/><path class="cls-4" d="M74.216,436.671s-7.97-.538-11.385,3.078Z"/><path class="cls-4" d="M75.649,437.689s1.8,13.442.1,16.3C75.746,453.99,74.722,439.452,75.649,437.689Z"/><path class="cls-7" d="M38.711,257.324a1.313,1.313,0,0,0,.233-.307C38.865,257.119,38.79,257.223,38.711,257.324Z"/><path class="cls-8" d="M38.711,257.324l-.309-.055S38.486,257.524,38.711,257.324Z"/><path class="cls-1" d="M133.953,113.532,96.42,109.145a6.977,6.977,0,0,0-.718-.047C96.385,110.011,115.2,134.776,133.953,113.532Z"/><path class="cls-8" d="M158.767,126.178a30.552,30.552,0,0,0-21.358-12.42l-3.483-.4c-.03.034-.06.065-.091.1-18.748,21.245-37.567-3.521-38.25-4.434L95.564,109l-5.314-.6a30.393,30.393,0,0,0-21.288,5.526c-1.291.5-2.822,1.076-4.508,1.687l0,0c-6.979,8.355-8.879,34.4-8.879,34.4s12.488,69.6-16.635,107.014a1.313,1.313,0,0,1-.233.307L52.475,259.8l80.653,14.527,14.176,2.553s7-101.678,14.254-108.923l1.049.311,10.318,3.062c-.5-16.341,18.02-22.909,18.02-22.909Z"/><rect class="cls-1" x="5.776" y="157.09" width="96.96" height="20" rx="10" ry="10" transform="translate(226.088 203.648) rotate(120)"/><rect class="cls-1" x="37.422" y="188.263" width="20" height="81.333" rx="10" ry="10" transform="translate(-90.075 39.847) rotate(-24.321)"/><path class="cls-8" d="M49.5,149.75s15.75-5.5,23,13L89,138.25,79.25,117.5l-14.8-1.893A102.945,102.945,0,0,0,49.5,149.75Z"/><rect class="cls-1" x="108.02" y="93.944" width="17.5" height="25" rx="6.773" ry="6.773" transform="translate(17.1 -16.159) rotate(8.539)"/><circle class="cls-3" cx="132.5" cy="65.25" r="8.25"/><circle class="cls-3" cx="111.477" cy="63" r="8.25"/><path class="cls-3" d="M111.477,87.25S124.75,93,130,89.75C130,89.75,117.705,103.5,111.477,87.25Z"/><circle class="cls-2" cx="114.828" cy="63.312" r="1.938"/><circle class="cls-2" cx="136.953" cy="65.25" r="1.938"/><ellipse class="cls-9" cx="95.661" cy="56.217" rx="21.693" ry="7.842" transform="matrix(0.25, -0.968, 0.968, 0.25, 17.284, 134.756)"/><path class="cls-10" d="M124.681,30.693c-16.946-1.408-31.25,4.271-31.949,12.684-.408,4.909,3.912,9.662,10.942,13.052.129-.043,12.449-4.078,39.934,2.3,6.123-2.286,10.13-5.9,10.491-10.254C154.8,40.063,141.627,32.1,124.681,30.693Z"/><polygon class="cls-6" points="143.615 58.732 143.608 58.73 143.604 58.732 143.615 58.732"/><rect class="cls-10" x="98.247" y="41.31" width="48.125" height="13.926" rx="2.077" ry="2.077" transform="translate(8.524 -17.626) rotate(8.539)"/><path class="cls-6" d="M135.283,42.285s-17.775-6.226-22.066-2.558C113.217,39.727,129.5,40.787,135.283,42.285Z"/><path class="cls-6" d="M136.343,47.691s-23.559-9.937-28.634-4.164C107.709,43.527,128.745,45.292,136.343,47.691Z"/><path class="cls-6" d="M129.591,49.464s-19.084-4.874-23.235-.676C106.356,48.788,123.432,48.426,129.591,49.464Z"/><path class="cls-6" d="M142.74,41.292s-16.2-7.956-20.48-4.633C122.26,36.659,137.434,39.239,142.74,41.292Z"/><path class="cls-6" d="M89.37,67.772a34.784,34.784,0,0,0,.542,6.038,19.89,19.89,0,0,1-1.9-4.784c-1.937-7.586.723-14.815,5.941-16.147.118-.03.237-.04.355-.064C91.309,55.724,89.36,61.119,89.37,67.772Z"/><path class="cls-6" d="M96.207,60.434A15.405,15.405,0,0,1,97.835,57a8.746,8.746,0,0,0-1.051,14.41c.085.068.176.124.263.188A13.837,13.837,0,0,1,96.207,60.434Z"/><path class="cls-6" d="M100.64,40.953a15.44,15.44,0,0,1,3.4-1.689A8.746,8.746,0,0,0,94.3,49.928c.024.106.06.206.089.311A13.837,13.837,0,0,1,100.64,40.953Z"/><circle class="cls-11" cx="60.9" cy="258.752" r="16.472"/><rect class="cls-1" x="216.227" y="114.629" width="20" height="81.333" rx="10" ry="10" transform="translate(46.085 -51.693) rotate(14.499)"/><circle class="cls-11" cx="234.297" cy="124.091" r="16.472"/><circle class="cls-12" cx="241.02" cy="114.176" r="7.732"/><polygon class="cls-12" points="161.019 312.51 225.799 354.24 349.879 354.41 349.879 312.51 161.019 312.51"/><polygon class="cls-13" points="161.019 312.51 225.799 354.24 225.799 371.81 161.019 326.79 161.019 312.51"/><rect class="cls-14" x="225.799" y="354.24" width="124.08" height="17.57"/><rect class="cls-14" x="161.009" y="318" width="10.98" height="95.53" rx="5" ry="5"/><rect class="cls-14" x="222.509" y="363.02" width="10.98" height="107.61" rx="5" ry="5"/><path class="cls-15" d="M177.019,291a1.261,1.261,0,0,0,.64,1.53,1.29,1.29,0,0,0,.55,1s-.37,1.53.28,2.17c0,0,.36,4.09.91,5l1.11,9.72s.36,3.69,1,4.09a13.945,13.945,0,0,0,.64,4.49s-.09,4.18,1.1,5.14v1.6s.74,2.73,14.23,2c0,0,9.46-.16,7.72-3.93,0,0,.92-.64,1.19-8.83,0,0,.46-.16,1.2-9.71,0,0,.55-1,.64-5.46,0,0,.37-.24.18-1,0,0,.74,0,.55-3.45,0,0,.55.48.37-2.09a1.4,1.4,0,0,0,.46-1.12s.64.08.55-1.13Z"/><ellipse class="cls-16" cx="193.679" cy="291.07" rx="16.75" ry="2.44"/><path class="cls-15" d="M219.879,296.49a1.261,1.261,0,0,0,.64,1.53,1.29,1.29,0,0,0,.55,1s-.36,1.53.28,2.17c0,0,.37,4.09.92,5l1.1,9.72s.37,3.69,1,4.09a14.292,14.292,0,0,0,.64,4.49s-.09,4.18,1.1,5.14v1.61s.74,2.72,14.24,2c0,0,9.46-.16,7.71-3.93,0,0,.92-.64,1.2-8.83,0,0,.46-.16,1.19-9.71,0,0,.55-1,.64-5.46,0,0,.37-.24.19-1,0,0,.73,0,.55-3.45,0,0,.55.48.36-2.09a1.359,1.359,0,0,0,.46-1.12s.65.08.55-1.13Z"/><ellipse class="cls-16" cx="236.509" cy="296.56" rx="16.75" ry="2.44"/><path class="cls-15" d="M199.879,305.47a1.241,1.241,0,0,0,.66,1.51,1.3,1.3,0,0,0,.56,1s-.35,1.53.3,2.16c0,0,.42,4.09,1,5l1.21,9.7s.41,3.69,1.06,4.08a14.113,14.113,0,0,0,.69,4.49s0,4.17,1.16,5.12v1.61s.76,2.72,14.25,1.84c0,0,9.46-.27,7.67-4,0,0,.91-.65,1.1-8.84,0,0,.45-.16,1.08-9.72,0,0,.54-1.05.58-5.47,0,0,.37-.24.17-1,0,0,.74,0,.52-3.46,0,0,.55.48.34-2.09a1.428,1.428,0,0,0,.45-1.13s.64.07.53-1.13Z"/><ellipse class="cls-16" cx="216.564" cy="305.34" rx="16.75" ry="2.44" transform="translate(-3.45 2.476) rotate(-0.65)"/><path class="cls-15" d="M265.959,297.63a1.261,1.261,0,0,0,.64,1.53,1.29,1.29,0,0,0,.55,1s-.37,1.52.28,2.17c0,0,.36,4.09.92,5l1.1,9.71s.37,3.7,1,4.1a14.292,14.292,0,0,0,.64,4.49s-.09,4.18,1.1,5.14v1.6s.74,2.73,14.24,2c0,0,9.46-.16,7.71-3.93,0,0,.92-.64,1.19-8.83,0,0,.46-.16,1.2-9.71,0,0,.55-1.05.64-5.46,0,0,.37-.24.18-1,0,0,.74,0,.56-3.45,0,0,.55.48.36-2.09a1.4,1.4,0,0,0,.46-1.13s.64.09.55-1.12Z"/><ellipse class="cls-16" cx="282.619" cy="297.66" rx="16.75" ry="2.44"/><path class="cls-15" d="M247.289,307.47a1.261,1.261,0,0,0,.64,1.53,1.28,1.28,0,0,0,.56,1s-.37,1.53.27,2.17c0,0,.37,4.09.92,5l1.1,9.72s.37,3.69,1,4.09a14.292,14.292,0,0,0,.64,4.49s-.09,4.18,1.11,5.14v1.61s.73,2.72,14.23,2c0,0,9.46-.16,7.71-3.93,0,0,.92-.64,1.2-8.83,0,0,.46-.16,1.19-9.71,0,0,.55-1,.64-5.46,0,0,.37-.24.19-1,0,0,.73,0,.55-3.45,0,0,.55.48.37-2.09a1.369,1.369,0,0,0,.45-1.12s.65.08.56-1.13Z"/><ellipse class="cls-16" cx="263.959" cy="307.54" rx="16.75" ry="2.44"/><path class="cls-15" d="M222.039,316.26a1.251,1.251,0,0,0,.64,1.52,1.3,1.3,0,0,0,.55,1s-.37,1.52.28,2.16c0,0,.36,4.1.91,5l1.11,9.71s.36,3.69,1,4.09a14.006,14.006,0,0,0,.64,4.5s-.09,4.17,1.1,5.14v1.6s.74,2.73,14.23,2c0,0,9.46-.16,7.72-3.94,0,0,.92-.64,1.19-8.82,0,0,.46-.17,1.2-9.72,0,0,.55-1,.64-5.45,0,0,.37-.24.18-1.05,0,0,.74,0,.55-3.45,0,0,.55.48.37-2.08a1.416,1.416,0,0,0,.46-1.13s.64.08.55-1.12Z"/><ellipse class="cls-16" cx="238.699" cy="316.33" rx="16.75" ry="2.44"/><rect class="cls-1" x="446.76" y="38.124" width="46.203" height="68.5" rx="23.101" ry="23.101" transform="translate(7.606 -38.658) rotate(4.75)"/><rect class="cls-1" x="487.69" y="112.473" width="96.96" height="20" rx="10" ry="10" transform="translate(-4.198 224.848) rotate(-23.595)"/><path class="cls-2" d="M492.788,274.9a12.285,12.285,0,0,0-12.25-12.25h-7.1l-66.587-13.91a13.358,13.358,0,0,0-15.76,10.314l-.126.6a13.358,13.358,0,0,0,7.119,14.634s6.163,51.422,5.03,75.747a55.938,55.938,0,0,1-.792,7.681,14.628,14.628,0,0,1-.849,2.978l-.181,1.41-9.038,70.284a15.043,15.043,0,0,0,12.964,16.791l.684.088a15.044,15.044,0,0,0,16.79-12.965l9.863-76.691A12.085,12.085,0,0,0,434,353.893v-71.64l21.333,4.456s7.5,46.095,5.867,68.7a14.9,14.9,0,0,0-.35,2.078l-.277,3.14a20.169,20.169,0,0,1-1.039,3.842c.21.184.431.355.653.525l-6.207,70.313A15.045,15.045,0,0,0,467.6,451.571l1.678.148A15.044,15.044,0,0,0,485.539,438.1l6.87-77.82a14.953,14.953,0,0,0,.019-2.115,12.125,12.125,0,0,0,.36-2.888Z"/><polygon class="cls-2" points="459.527 364.482 459.531 364.472 459.524 364.466 459.527 364.482"/><path class="cls-3" d="M515.58,452.265q-.378.017-.786,0c-8.032-.228-24.22-8.188-24.22-8.188l-8.393,4.362L475.764,429.3a8.517,8.517,0,0,1,3.788-3,83.587,83.587,0,0,1-25.414-1.268l-.328,0-1.217,5h11.176a.727.727,0,0,1,.725.724h0a.727.727,0,0,1-.725.724H452.241l-.608,2.5h18.8a.875.875,0,0,1,0,1.75H451.208l-.578,2.375h8.916a.532.532,0,0,1,0,1.063h-9.174l-.718,2.951c-.184,4.354-4.873,20.432-4.873,20.432l-4.036.063c-5.177,4.78-1.271,5.249-1.271,5.249,2.082.415,10.527.387,10.527.387l64.817.138C525.035,466.848,523.285,451.942,515.58,452.265Z"/><path class="cls-3" d="M475.764,429.3l6.417,19.144,8.393-4.362-.03-.63c0-.09.019-.176.014-.267l-.722-14.968h0c-.116-2.419-3.336-3.17-3.336-3.17h0a56.175,56.175,0,0,1-6.945,1.252A8.517,8.517,0,0,0,475.764,429.3Z"/><path class="cls-4" d="M464.494,430.762h0a.727.727,0,0,0-.725-.724H452.593l-.352,1.448h11.528A.727.727,0,0,0,464.494,430.762Z"/><path class="cls-4" d="M471.306,434.861a.878.878,0,0,0-.875-.875h-18.8l-.425,1.75h19.223A.877.877,0,0,0,471.306,434.861Z"/><path class="cls-4" d="M460.077,438.643a.533.533,0,0,0-.531-.532H450.63l-.258,1.063h9.174A.533.533,0,0,0,460.077,438.643Z"/><ellipse class="cls-5" cx="443.051" cy="466.03" rx="2.173" ry="0.301" transform="translate(-110.372 793.447) rotate(-77.057)"/><ellipse class="cls-5" cx="445.582" cy="466.03" rx="2.173" ry="0.301" transform="translate(-108.407 795.914) rotate(-77.057)"/><ellipse class="cls-5" cx="448.301" cy="466.03" rx="2.173" ry="0.301" transform="translate(-106.298 798.563) rotate(-77.057)"/><ellipse class="cls-5" cx="450.884" cy="466.03" rx="2.173" ry="0.301" transform="translate(-104.293 801.081) rotate(-77.057)"/><ellipse class="cls-5" cx="453.468" cy="466.03" rx="2.173" ry="0.301" transform="translate(-102.288 803.599) rotate(-77.057)"/><ellipse class="cls-5" cx="455.905" cy="466.03" rx="2.173" ry="0.301" transform="translate(-100.397 805.974) rotate(-77.057)"/><ellipse class="cls-5" cx="458.593" cy="466.134" rx="2.173" ry="0.301" transform="translate(-98.412 808.674) rotate(-77.057)"/><ellipse class="cls-5" cx="461.343" cy="466.134" rx="2.173" ry="0.301" transform="translate(-96.278 811.354) rotate(-77.057)"/><ellipse class="cls-5" cx="464.197" cy="466.134" rx="2.173" ry="0.301" transform="translate(-94.063 814.136) rotate(-77.057)"/><ellipse class="cls-5" cx="467.051" cy="466.134" rx="2.173" ry="0.301" transform="translate(-91.849 816.918) rotate(-77.057)"/><ellipse class="cls-5" cx="470.051" cy="466.134" rx="2.173" ry="0.301" transform="translate(-89.521 819.841) rotate(-77.057)"/><ellipse class="cls-5" cx="473.051" cy="466.134" rx="2.173" ry="0.301" transform="translate(-87.192 822.765) rotate(-77.057)"/><ellipse class="cls-5" cx="476.238" cy="466.134" rx="2.173" ry="0.301" transform="translate(-84.719 825.872) rotate(-77.057)"/><ellipse class="cls-5" cx="479.738" cy="466.134" rx="2.173" ry="0.301" transform="translate(-82.003 829.283) rotate(-77.057)"/><ellipse class="cls-5" cx="483.483" cy="466.134" rx="2.173" ry="0.301" transform="translate(-79.097 832.932) rotate(-77.057)"/><ellipse class="cls-5" cx="487.384" cy="466.134" rx="2.173" ry="0.301" transform="translate(-76.069 836.734) rotate(-77.057)"/><ellipse class="cls-5" cx="491.551" cy="466.134" rx="2.173" ry="0.301" transform="translate(-72.836 840.795) rotate(-77.057)"/><ellipse class="cls-5" cx="495.468" cy="466.134" rx="2.173" ry="0.301" transform="translate(-69.797 844.612) rotate(-77.057)"/><ellipse class="cls-5" cx="499.384" cy="466.134" rx="2.173" ry="0.301" transform="translate(-66.757 848.43) rotate(-77.057)"/><ellipse class="cls-5" cx="503.613" cy="466.134" rx="2.173" ry="0.301" transform="translate(-63.475 852.551) rotate(-77.057)"/><ellipse class="cls-5" cx="508.051" cy="466.134" rx="2.173" ry="0.301" transform="translate(-60.032 856.876) rotate(-77.057)"/><ellipse class="cls-5" cx="512.384" cy="466.134" rx="2.173" ry="0.301" transform="translate(-56.669 861.099) rotate(-77.057)"/><ellipse class="cls-6" cx="502.258" cy="452.182" rx="3.642" ry="0.322" transform="translate(-139.546 240.477) rotate(-23.741)"/><ellipse class="cls-6" cx="496.704" cy="450.132" rx="3.642" ry="0.255" transform="translate(-139.191 238.067) rotate(-23.741)"/><ellipse class="cls-6" cx="490.427" cy="447.369" rx="3.642" ry="0.379" transform="translate(-132.139 217.001) rotate(-22.065)"/><ellipse class="cls-6" cx="493.607" cy="448.597" rx="0.284" ry="6.382" transform="translate(35.026 932.943) rotate(-88.83)"/><ellipse class="cls-6" cx="493.552" cy="448.766" rx="0.182" ry="2.831"/><ellipse class="cls-6" cx="499.384" cy="451.105" rx="6.007" ry="0.211" transform="translate(-21.155 24.585) rotate(-2.762)"/><ellipse class="cls-5" cx="515.794" cy="466.134" rx="2.173" ry="0.301" transform="translate(-54.023 864.422) rotate(-77.057)"/><path class="cls-6" d="M493.747,450.247a1.013,1.013,0,1,0,1.013,1.013A1.014,1.014,0,0,0,493.747,450.247Zm0,1.477a.464.464,0,1,1,.464-.464A.464.464,0,0,1,493.747,451.724Z"/><path class="cls-6" d="M487.513,447.586a1.013,1.013,0,1,0,1.013,1.013A1.012,1.012,0,0,0,487.513,447.586Zm0,1.477a.464.464,0,1,1,.463-.464A.464.464,0,0,1,487.513,449.063Z"/><path class="cls-6" d="M499.384,452.371a1.013,1.013,0,1,0,1.013,1.013A1.014,1.014,0,0,0,499.384,452.371Zm0,1.477a.464.464,0,1,1,.464-.464A.463.463,0,0,1,499.384,453.848Z"/><path class="cls-6" d="M493.472,445.393a.739.739,0,1,0,.739.739A.739.739,0,0,0,493.472,445.393Zm0,1.077a.338.338,0,1,1,.338-.338A.339.339,0,0,1,493.472,446.47Z"/><path class="cls-6" d="M499.848,448.043a.739.739,0,1,0,.738.738A.738.738,0,0,0,499.848,448.043Zm0,1.076a.338.338,0,1,1,.338-.338A.338.338,0,0,1,499.848,449.119Z"/><path class="cls-6" d="M505.358,450.132a.738.738,0,1,0,.738.738A.738.738,0,0,0,505.358,450.132Zm0,1.076a.338.338,0,1,1,.338-.338A.338.338,0,0,1,505.358,451.208Z"/><ellipse class="cls-6" cx="499.499" cy="451.116" rx="2.592" ry="0.165" transform="translate(-25.23 872.617) rotate(-80.86)"/><path class="cls-4" d="M446.282,457.066s9.506-2.562,8.022-10.115c0,0-.346-.582-5.32-.582Z"/><path class="cls-4" d="M459.431,462.549h30.25S458.264,445.549,459.431,462.549Z"/><path class="cls-4" d="M475.764,429.3s5.917,13.814,4.584,17.24C480.348,446.539,475.1,431.382,475.764,429.3Z"/><path class="cls-4" d="M488.669,443.965s-4.083.476-5.5,2.905Z"/><path class="cls-4" d="M487.629,425.931s-7.97-.538-11.385,3.078Z"/><path class="cls-4" d="M489.061,426.949s1.8,13.442.1,16.3C489.158,443.25,488.135,428.712,489.061,426.949Z"/><path class="cls-3" d="M452.3,463.005q-.378.017-.786,0c-8.032-.228-24.22-8.188-24.22-8.188l-8.393,4.363-6.416-19.145a8.509,8.509,0,0,1,3.787-3,83.589,83.589,0,0,1-25.414-1.268l-.327,0-1.217,5H400.49a.727.727,0,0,1,.725.724h0a.727.727,0,0,1-.725.724H388.962l-.608,2.5h18.8a.875.875,0,0,1,0,1.75H387.929l-.578,2.375h8.916a.532.532,0,0,1,0,1.063h-9.174l-.718,2.951c-.184,4.354-4.873,20.432-4.873,20.432l-4.036.063c-5.177,4.78-1.27,5.249-1.27,5.249,2.081.415,10.527.388,10.527.388l64.816.137C461.756,477.588,460.006,462.682,452.3,463.005Z"/><path class="cls-3" d="M412.486,440.039l6.416,19.145,8.393-4.363-.03-.63c0-.089.019-.176.015-.267l-.722-14.968h0c-.117-2.419-3.337-3.17-3.337-3.17h0a56.141,56.141,0,0,1-6.945,1.252A8.509,8.509,0,0,0,412.486,440.039Z"/><path class="cls-4" d="M401.215,441.5h0a.727.727,0,0,0-.725-.724H389.315l-.353,1.448H400.49A.727.727,0,0,0,401.215,441.5Z"/><path class="cls-4" d="M408.027,445.6a.877.877,0,0,0-.875-.875h-18.8l-.425,1.75h19.223A.877.877,0,0,0,408.027,445.6Z"/><path class="cls-4" d="M396.8,449.383a.533.533,0,0,0-.531-.532h-8.916l-.258,1.063h9.174A.533.533,0,0,0,396.8,449.383Z"/><ellipse class="cls-5" cx="379.772" cy="476.77" rx="2.173" ry="0.301" transform="translate(-169.945 740.11) rotate(-77.057)"/><ellipse class="cls-5" cx="382.303" cy="476.77" rx="2.173" ry="0.301" transform="translate(-167.981 742.577) rotate(-77.057)"/><ellipse class="cls-5" cx="385.022" cy="476.77" rx="2.173" ry="0.301" transform="translate(-165.871 745.227) rotate(-77.057)"/><ellipse class="cls-5" cx="387.605" cy="476.77" rx="2.173" ry="0.301" transform="translate(-163.866 747.744) rotate(-77.057)"/><ellipse class="cls-5" cx="390.189" cy="476.77" rx="2.173" ry="0.301" transform="translate(-161.861 750.262) rotate(-77.057)"/><ellipse class="cls-5" cx="392.626" cy="476.77" rx="2.173" ry="0.301" transform="translate(-159.97 752.638) rotate(-77.057)"/><ellipse class="cls-5" cx="395.314" cy="476.874" rx="2.173" ry="0.301" transform="translate(-157.986 755.338) rotate(-77.057)"/><ellipse class="cls-5" cx="398.064" cy="476.874" rx="2.173" ry="0.301" transform="translate(-155.852 758.018) rotate(-77.057)"/><ellipse class="cls-5" cx="400.918" cy="476.874" rx="2.173" ry="0.301" transform="translate(-153.637 760.799) rotate(-77.057)"/><ellipse class="cls-5" cx="403.772" cy="476.874" rx="2.173" ry="0.301" transform="translate(-151.422 763.581) rotate(-77.057)"/><ellipse class="cls-5" cx="406.772" cy="476.874" rx="2.173" ry="0.301" transform="translate(-149.094 766.505) rotate(-77.057)"/><ellipse class="cls-5" cx="409.772" cy="476.874" rx="2.173" ry="0.301" transform="translate(-146.766 769.429) rotate(-77.057)"/><ellipse class="cls-5" cx="412.96" cy="476.874" rx="2.173" ry="0.301" transform="translate(-144.292 772.535) rotate(-77.057)"/><ellipse class="cls-5" cx="416.46" cy="476.874" rx="2.173" ry="0.301" transform="translate(-141.576 775.946) rotate(-77.057)"/><ellipse class="cls-5" cx="420.204" cy="476.874" rx="2.173" ry="0.301" transform="translate(-138.67 779.596) rotate(-77.057)"/><ellipse class="cls-5" cx="424.105" cy="476.874" rx="2.173" ry="0.301" transform="translate(-135.643 783.398) rotate(-77.057)"/><ellipse class="cls-5" cx="428.272" cy="476.874" rx="2.173" ry="0.301" transform="translate(-132.409 787.459) rotate(-77.057)"/><ellipse class="cls-5" cx="432.189" cy="476.874" rx="2.173" ry="0.301" transform="translate(-129.37 791.276) rotate(-77.057)"/><ellipse class="cls-5" cx="436.105" cy="476.874" rx="2.173" ry="0.301" transform="translate(-126.33 795.093) rotate(-77.057)"/><ellipse class="cls-5" cx="440.335" cy="476.874" rx="2.173" ry="0.301" transform="translate(-123.048 799.215) rotate(-77.057)"/><ellipse class="cls-5" cx="444.772" cy="476.874" rx="2.173" ry="0.301" transform="translate(-119.605 803.539) rotate(-77.057)"/><ellipse class="cls-5" cx="449.105" cy="476.874" rx="2.173" ry="0.301" transform="translate(-116.242 807.763) rotate(-77.057)"/><ellipse class="cls-6" cx="438.979" cy="462.922" rx="3.642" ry="0.322" transform="translate(-149.225 215.91) rotate(-23.741)"/><ellipse class="cls-6" cx="433.425" cy="460.872" rx="3.642" ry="0.255" transform="translate(-148.87 213.5) rotate(-23.741)"/><ellipse class="cls-6" cx="427.148" cy="458.109" rx="3.642" ry="0.379" transform="translate(-140.808 194.016) rotate(-22.065)"/><ellipse class="cls-6" cx="430.328" cy="459.337" rx="0.284" ry="6.382" transform="translate(-37.699 880.199) rotate(-88.83)"/><ellipse class="cls-6" cx="430.273" cy="459.507" rx="0.182" ry="2.831"/><ellipse class="cls-6" cx="436.105" cy="461.845" rx="6.007" ry="0.211" transform="translate(-21.746 21.549) rotate(-2.762)"/><ellipse class="cls-5" cx="452.515" cy="476.874" rx="2.173" ry="0.301" transform="translate(-113.596 811.085) rotate(-77.057)"/><path class="cls-6" d="M430.468,460.987A1.013,1.013,0,1,0,431.481,462,1.014,1.014,0,0,0,430.468,460.987Zm0,1.477a.464.464,0,1,1,.464-.464A.463.463,0,0,1,430.468,462.464Z"/><path class="cls-6" d="M424.234,458.326a1.013,1.013,0,1,0,1.013,1.013A1.012,1.012,0,0,0,424.234,458.326Zm0,1.477a.464.464,0,1,1,.464-.464A.464.464,0,0,1,424.234,459.8Z"/><path class="cls-6" d="M436.105,463.111a1.014,1.014,0,1,0,1.014,1.013A1.014,1.014,0,0,0,436.105,463.111Zm0,1.477a.464.464,0,1,1,.464-.464A.463.463,0,0,1,436.105,464.588Z"/><path class="cls-6" d="M430.194,456.133a.739.739,0,1,0,.738.739A.739.739,0,0,0,430.194,456.133Zm0,1.077a.338.338,0,1,1,.338-.338A.338.338,0,0,1,430.194,457.21Z"/><path class="cls-6" d="M436.569,458.783a.739.739,0,1,0,.739.739A.738.738,0,0,0,436.569,458.783Zm0,1.077a.338.338,0,1,1,.338-.338A.339.339,0,0,1,436.569,459.86Z"/><path class="cls-6" d="M442.079,460.872a.739.739,0,1,0,.738.738A.738.738,0,0,0,442.079,460.872Zm0,1.076a.338.338,0,1,1,.338-.338A.338.338,0,0,1,442.079,461.948Z"/><ellipse class="cls-6" cx="436.221" cy="461.856" rx="2.592" ry="0.165" transform="translate(-89.062 819.176) rotate(-80.86)"/><path class="cls-4" d="M383,467.806s9.5-2.561,8.021-10.115c0,0-.346-.582-5.32-.582Z"/><path class="cls-4" d="M396.152,473.289H426.4S394.986,456.289,396.152,473.289Z"/><path class="cls-4" d="M412.486,440.039s5.916,13.814,4.583,17.24C417.069,457.279,411.819,442.122,412.486,440.039Z"/><path class="cls-4" d="M425.39,454.706s-4.083.475-5.5,2.9Z"/><path class="cls-4" d="M424.35,436.671s-7.97-.538-11.385,3.078Z"/><path class="cls-4" d="M425.783,437.689s1.8,13.442.1,16.3C425.88,453.99,424.856,439.452,425.783,437.689Z"/><path class="cls-7" d="M388.844,257.324a1.284,1.284,0,0,0,.234-.307C389,257.119,388.924,257.223,388.844,257.324Z"/><path class="cls-8" d="M388.844,257.324l-.308-.055S388.619,257.524,388.844,257.324Z"/><path class="cls-1" d="M484.087,113.532l-37.534-4.387a6.94,6.94,0,0,0-.717-.047C446.519,110.011,465.338,134.776,484.087,113.532Z"/><rect class="cls-1" x="458.154" y="93.944" width="17.5" height="25" rx="6.773" ry="6.773" transform="translate(20.981 -68.149) rotate(8.539)"/><circle class="cls-3" cx="482.634" cy="65.25" r="8.25"/><circle class="cls-3" cx="461.611" cy="63" r="8.25"/><path class="cls-3" d="M461.611,87.25s13.273,5.75,18.523,2.5C480.134,89.75,467.838,103.5,461.611,87.25Z"/><circle class="cls-2" cx="464.961" cy="63.312" r="1.938"/><circle class="cls-2" cx="487.087" cy="65.25" r="1.938"/><ellipse class="cls-9" cx="445.795" cy="56.217" rx="21.693" ry="7.842" transform="translate(279.758 473.739) rotate(-75.501)"/><path class="cls-10" d="M474.815,30.693c-16.946-1.408-31.25,4.271-31.949,12.684-.408,4.909,3.911,9.662,10.942,13.052.129-.043,12.449-4.078,39.934,2.3,6.123-2.286,10.129-5.9,10.491-10.254C504.932,40.063,491.761,32.1,474.815,30.693Z"/><polygon class="cls-6" points="493.749 58.732 493.742 58.73 493.737 58.732 493.749 58.732"/><rect class="cls-10" x="448.381" y="41.31" width="48.125" height="13.926" rx="2.077" ry="2.077" transform="translate(12.405 -69.616) rotate(8.539)"/><path class="cls-6" d="M485.417,42.285s-17.775-6.226-22.066-2.558C463.351,39.727,479.637,40.787,485.417,42.285Z"/><path class="cls-6" d="M486.477,47.691s-23.559-9.937-28.634-4.164C457.843,43.527,478.879,45.292,486.477,47.691Z"/><path class="cls-6" d="M479.724,49.464s-19.083-4.874-23.234-.676C456.49,48.788,473.566,48.426,479.724,49.464Z"/><path class="cls-6" d="M492.873,41.292s-16.2-7.956-20.479-4.633C472.394,36.659,487.568,39.239,492.873,41.292Z"/><path class="cls-6" d="M439.5,67.772a34.784,34.784,0,0,0,.542,6.038,19.849,19.849,0,0,1-1.9-4.784c-1.937-7.586.723-14.815,5.941-16.147.118-.03.237-.04.355-.064C441.442,55.724,439.494,61.119,439.5,67.772Z"/><path class="cls-6" d="M446.341,60.434A15.405,15.405,0,0,1,447.969,57a8.746,8.746,0,0,0-1.051,14.41c.085.068.176.124.262.188A13.841,13.841,0,0,1,446.341,60.434Z"/><path class="cls-6" d="M450.774,40.953a15.44,15.44,0,0,1,3.4-1.689,8.746,8.746,0,0,0-9.748,10.664c.024.106.06.206.089.311A13.837,13.837,0,0,1,450.774,40.953Z"/><rect class="cls-1" x="540.578" y="42.947" width="20" height="81.333" rx="10" ry="10" transform="matrix(0.742, -0.67, 0.67, 0.742, 85.846, 390.454)"/><circle class="cls-11" cx="528.982" cy="59.687" r="16.472"/><circle class="cls-12" cx="524.411" cy="48.614" r="7.732"/><polygon class="cls-8" points="497.844 116.811 512.508 117.584 504.171 121.028 497.844 116.811"/><path class="cls-8" d="M522.417,113.491l-18.249,7.538a30.656,30.656,0,0,0-16.625-7.271l-3.483-.4c-.03.034-.06.065-.091.1-18.748,21.245-37.567-3.521-38.25-4.434L445.7,109l-5.314-.6A30.393,30.393,0,0,0,419.1,113.92c-1.291.5-2.823,1.076-4.508,1.687l0,0c-6.979,8.355-8.879,34.4-8.879,34.4s12.488,69.6-16.635,107.014a1.284,1.284,0,0,1-.234.307l13.765,2.479,80.653,14.527,14.176,2.553s6.085-88.438,12.794-106.223l-.008.008,1.482-5.112.192-.66h0a54.937,54.937,0,0,1,1-6.448,37.141,37.141,0,0,1,5.806-13.857l0,0L530,139.833v-.055C518.308,130.823,522.417,113.491,522.417,113.491Z"/><polygon class="cls-8" points="511.709 167.97 511.709 167.965 511.709 167.965 511.709 167.97"/><rect class="cls-1" x="355.869" y="157.09" width="96.96" height="20" rx="10" ry="10" transform="translate(750.84 -100.045) rotate(119.917)"/><rect class="cls-1" x="387.604" y="188.273" width="20" height="81.333" rx="10" ry="10" transform="translate(-59.066 184.732) rotate(-24.404)"/><circle class="cls-11" cx="411.034" cy="258.752" r="16.472"/><path class="cls-8" d="M399.634,149.75s15.75-5.5,23,13l16.5-24.5-9.75-20.75-14.8-1.893A102.945,102.945,0,0,0,399.634,149.75Z"/><polygon class="cls-12" points="511.024 312.51 575.804 354.24 699.884 354.41 699.884 312.51 511.024 312.51"/><polygon class="cls-13" points="511.024 312.51 575.804 354.24 575.804 371.81 511.024 326.79 511.024 312.51"/><rect class="cls-14" x="575.804" y="354.24" width="124.08" height="17.57"/><rect class="cls-14" x="511.014" y="318" width="10.98" height="95.53" rx="5" ry="5"/><rect class="cls-14" x="572.514" y="363.02" width="10.98" height="107.61" rx="5" ry="5"/><path class="cls-15" d="M527.024,291a1.261,1.261,0,0,0,.64,1.53,1.29,1.29,0,0,0,.55,1s-.37,1.53.28,2.17c0,0,.36,4.09.91,5l1.11,9.72s.36,3.69,1,4.09a13.945,13.945,0,0,0,.64,4.49s-.09,4.18,1.1,5.14v1.6s.74,2.73,14.23,2c0,0,9.46-.16,7.72-3.93,0,0,.92-.64,1.19-8.83,0,0,.46-.16,1.2-9.71,0,0,.55-1,.64-5.46,0,0,.37-.24.18-1,0,0,.74,0,.55-3.45,0,0,.55.48.37-2.09a1.4,1.4,0,0,0,.46-1.12s.64.08.55-1.13Z"/><ellipse class="cls-16" cx="543.684" cy="291.07" rx="16.75" ry="2.44"/><path class="cls-15" d="M569.884,296.49a1.261,1.261,0,0,0,.64,1.53,1.29,1.29,0,0,0,.55,1s-.36,1.53.28,2.17c0,0,.37,4.09.92,5l1.1,9.72s.37,3.69,1,4.09a14.292,14.292,0,0,0,.64,4.49s-.09,4.18,1.1,5.14v1.61s.74,2.72,14.24,2c0,0,9.46-.16,7.71-3.93,0,0,.92-.64,1.2-8.83,0,0,.46-.16,1.19-9.71,0,0,.55-1,.64-5.46,0,0,.37-.24.19-1,0,0,.73,0,.55-3.45,0,0,.55.48.36-2.09a1.359,1.359,0,0,0,.46-1.12s.65.08.55-1.13Z"/><ellipse class="cls-16" cx="586.514" cy="296.56" rx="16.75" ry="2.44"/><path class="cls-15" d="M549.884,305.47a1.241,1.241,0,0,0,.66,1.51,1.3,1.3,0,0,0,.56,1s-.35,1.53.3,2.16c0,0,.42,4.09,1,5l1.21,9.7s.41,3.69,1.06,4.08a14.113,14.113,0,0,0,.69,4.49s0,4.17,1.16,5.12v1.61s.76,2.72,14.25,1.84c0,0,9.46-.27,7.67-4,0,0,.91-.65,1.1-8.84,0,0,.45-.16,1.08-9.72,0,0,.54-1.05.58-5.47,0,0,.37-.24.17-1,0,0,.74,0,.52-3.46,0,0,.55.48.34-2.09a1.428,1.428,0,0,0,.45-1.13s.64.07.53-1.13Z"/><ellipse class="cls-16" cx="566.569" cy="305.34" rx="16.75" ry="2.44" transform="translate(-3.427 6.447) rotate(-0.65)"/><path class="cls-15" d="M615.964,297.63a1.261,1.261,0,0,0,.64,1.53,1.29,1.29,0,0,0,.55,1s-.37,1.52.28,2.17c0,0,.36,4.09.92,5l1.1,9.71s.37,3.7,1,4.1a14.292,14.292,0,0,0,.64,4.49s-.09,4.18,1.1,5.14v1.6s.74,2.73,14.24,2c0,0,9.46-.16,7.71-3.93,0,0,.92-.64,1.19-8.83,0,0,.46-.16,1.2-9.71,0,0,.55-1.05.64-5.46,0,0,.37-.24.18-1,0,0,.74,0,.56-3.45,0,0,.55.48.36-2.09a1.4,1.4,0,0,0,.46-1.13s.64.09.55-1.12Z"/><ellipse class="cls-16" cx="632.624" cy="297.66" rx="16.75" ry="2.44"/><path class="cls-15" d="M597.294,307.47a1.261,1.261,0,0,0,.64,1.53,1.28,1.28,0,0,0,.56,1s-.37,1.53.27,2.17c0,0,.37,4.09.92,5l1.1,9.72s.37,3.69,1,4.09a14.292,14.292,0,0,0,.64,4.49s-.09,4.18,1.11,5.14v1.61s.73,2.72,14.23,2c0,0,9.46-.16,7.71-3.93,0,0,.92-.64,1.2-8.83,0,0,.46-.16,1.19-9.71,0,0,.55-1,.64-5.46,0,0,.37-.24.19-1,0,0,.73,0,.55-3.45,0,0,.55.48.37-2.09a1.369,1.369,0,0,0,.45-1.12s.65.08.56-1.13Z"/><ellipse class="cls-16" cx="613.964" cy="307.54" rx="16.75" ry="2.44"/><path class="cls-15" d="M572.044,316.26a1.251,1.251,0,0,0,.64,1.52,1.3,1.3,0,0,0,.55,1s-.37,1.52.28,2.16c0,0,.36,4.1.91,5l1.11,9.71s.36,3.69,1,4.09a14.006,14.006,0,0,0,.64,4.5s-.09,4.17,1.1,5.14v1.6s.74,2.73,14.23,2c0,0,9.46-.16,7.72-3.94,0,0,.92-.64,1.19-8.82,0,0,.46-.17,1.2-9.72,0,0,.55-1,.64-5.45,0,0,.37-.24.18-1.05,0,0,.74,0,.55-3.45,0,0,.55.48.37-2.08a1.416,1.416,0,0,0,.46-1.13s.64.08.55-1.12Z"/><ellipse class="cls-16" cx="588.704" cy="316.33" rx="16.75" ry="2.44"/><rect class="cls-1" x="841.308" y="113.066" width="96.96" height="20" rx="10" ry="10" transform="translate(4.94 277.701) rotate(-17.787)"/><rect class="cls-1" x="943.312" y="57.849" width="20" height="81.333" rx="10" ry="10" transform="translate(628.769 -803.25) rotate(64.306)"/><circle class="cls-11" cx="982.357" cy="84.542" r="16.472"/><circle class="cls-12" cx="994.269" cy="83.279" r="7.732"/><rect class="cls-1" x="796.881" y="38.124" width="46.203" height="68.5" rx="23.101" ry="23.101" transform="translate(8.809 -67.649) rotate(4.75)"/><path class="cls-2" d="M842.909,274.9a12.285,12.285,0,0,0-12.25-12.25h-7.1l-66.587-13.91a13.359,13.359,0,0,0-15.761,10.314l-.125.6a13.357,13.357,0,0,0,7.119,14.634s6.163,51.422,5.029,75.747a55.8,55.8,0,0,1-.791,7.681,14.692,14.692,0,0,1-.849,2.978l-.181,1.41-9.039,70.284a15.044,15.044,0,0,0,12.965,16.791l.684.088a15.044,15.044,0,0,0,16.79-12.965l9.862-76.691a12.074,12.074,0,0,0,1.447-5.722v-71.64l21.333,4.456s7.5,46.095,5.867,68.7a14.749,14.749,0,0,0-.35,2.078l-.278,3.14a20.1,20.1,0,0,1-1.038,3.842c.21.184.431.355.653.525L804.1,435.31a15.045,15.045,0,0,0,13.623,16.261l1.678.148A15.044,15.044,0,0,0,835.66,438.1l6.87-77.82a14.953,14.953,0,0,0,.019-2.115,12.125,12.125,0,0,0,.36-2.888Z"/><polygon class="cls-2" points="809.648 364.482 809.652 364.472 809.645 364.466 809.648 364.482"/><path class="cls-3" d="M865.7,452.265c-.252.011-.515.012-.786,0-8.032-.228-24.22-8.188-24.22-8.188l-8.393,4.362L825.885,429.3a8.517,8.517,0,0,1,3.788-3,83.587,83.587,0,0,1-25.414-1.268l-.328,0-1.217,5H813.89a.726.726,0,0,1,.724.724h0a.726.726,0,0,1-.724.724H802.362l-.608,2.5h18.8a.875.875,0,0,1,0,1.75H801.329l-.578,2.375h8.916a.532.532,0,0,1,0,1.063h-9.174l-.718,2.951c-.184,4.354-4.873,20.432-4.873,20.432l-4.036.063c-5.177,4.78-1.271,5.249-1.271,5.249,2.082.415,10.527.387,10.527.387l64.817.138C875.156,466.848,873.406,451.942,865.7,452.265Z"/><path class="cls-3" d="M825.885,429.3l6.417,19.144,8.393-4.362-.03-.63c0-.09.019-.176.014-.267l-.722-14.968h0c-.116-2.419-3.337-3.17-3.337-3.17h0a56.208,56.208,0,0,1-6.945,1.252A8.517,8.517,0,0,0,825.885,429.3Z"/><path class="cls-4" d="M814.614,430.762h0a.726.726,0,0,0-.724-.724H802.714l-.352,1.448H813.89A.726.726,0,0,0,814.614,430.762Z"/><path class="cls-4" d="M821.427,434.861a.878.878,0,0,0-.875-.875h-18.8l-.425,1.75h19.223A.877.877,0,0,0,821.427,434.861Z"/><path class="cls-4" d="M810.2,438.643a.533.533,0,0,0-.531-.532h-8.916l-.258,1.063h9.174A.533.533,0,0,0,810.2,438.643Z"/><ellipse class="cls-5" cx="793.172" cy="466.03" rx="2.173" ry="0.301" transform="translate(161.331 1134.673) rotate(-77.057)"/><ellipse class="cls-5" cx="795.703" cy="466.03" rx="2.173" ry="0.301" transform="translate(163.295 1137.14) rotate(-77.057)"/><ellipse class="cls-5" cx="798.422" cy="466.03" rx="2.173" ry="0.301" transform="translate(165.405 1139.789) rotate(-77.057)"/><ellipse class="cls-5" cx="801.005" cy="466.03" rx="2.173" ry="0.301" transform="translate(167.41 1142.307) rotate(-77.057)"/><ellipse class="cls-5" cx="803.588" cy="466.03" rx="2.173" ry="0.301" transform="translate(169.415 1144.825) rotate(-77.057)"/><ellipse class="cls-5" cx="806.026" cy="466.03" rx="2.173" ry="0.301" transform="translate(171.306 1147.2) rotate(-77.057)"/><ellipse class="cls-5" cx="808.713" cy="466.134" rx="2.173" ry="0.301" transform="translate(173.29 1149.9) rotate(-77.057)"/><ellipse class="cls-5" cx="811.463" cy="466.134" rx="2.173" ry="0.301" transform="translate(175.424 1152.58) rotate(-77.057)"/><ellipse class="cls-5" cx="814.318" cy="466.134" rx="2.173" ry="0.301" transform="translate(177.639 1155.362) rotate(-77.057)"/><ellipse class="cls-5" cx="817.172" cy="466.134" rx="2.173" ry="0.301" transform="translate(179.854 1158.144) rotate(-77.057)"/><ellipse class="cls-5" cx="820.172" cy="466.134" rx="2.173" ry="0.301" transform="translate(182.182 1161.068) rotate(-77.057)"/><ellipse class="cls-5" cx="823.172" cy="466.134" rx="2.173" ry="0.301" transform="translate(184.51 1163.991) rotate(-77.057)"/><ellipse class="cls-5" cx="826.359" cy="466.134" rx="2.173" ry="0.301" transform="translate(186.984 1167.098) rotate(-77.057)"/><ellipse class="cls-5" cx="829.859" cy="466.134" rx="2.173" ry="0.301" transform="translate(189.7 1170.509) rotate(-77.057)"/><ellipse class="cls-5" cx="833.604" cy="466.134" rx="2.173" ry="0.301" transform="translate(192.606 1174.158) rotate(-77.057)"/><ellipse class="cls-5" cx="837.505" cy="466.134" rx="2.173" ry="0.301" transform="translate(195.633 1177.961) rotate(-77.057)"/><ellipse class="cls-5" cx="841.672" cy="466.134" rx="2.173" ry="0.301" transform="translate(198.867 1182.021) rotate(-77.057)"/><ellipse class="cls-5" cx="845.588" cy="466.134" rx="2.173" ry="0.301" transform="translate(201.906 1185.839) rotate(-77.057)"/><ellipse class="cls-5" cx="849.505" cy="466.134" rx="2.173" ry="0.301" transform="translate(204.946 1189.656) rotate(-77.057)"/><ellipse class="cls-5" cx="853.734" cy="466.134" rx="2.173" ry="0.301" transform="translate(208.228 1193.777) rotate(-77.057)"/><ellipse class="cls-5" cx="858.172" cy="466.134" rx="2.173" ry="0.301" transform="translate(211.671 1198.102) rotate(-77.057)"/><ellipse class="cls-5" cx="862.505" cy="466.134" rx="2.173" ry="0.301" transform="translate(215.034 1202.325) rotate(-77.057)"/><ellipse class="cls-6" cx="852.379" cy="452.182" rx="3.642" ry="0.322" transform="translate(-109.917 381.437) rotate(-23.741)"/><ellipse class="cls-6" cx="846.824" cy="450.132" rx="3.642" ry="0.255" transform="translate(-109.562 379.027) rotate(-23.741)"/><ellipse class="cls-6" cx="840.548" cy="447.369" rx="3.642" ry="0.379" transform="translate(-106.495 348.528) rotate(-22.065)"/><ellipse class="cls-6" cx="843.728" cy="448.597" rx="0.284" ry="6.382" transform="translate(377.999 1282.991) rotate(-88.83)"/><ellipse class="cls-6" cx="843.673" cy="448.766" rx="0.182" ry="2.831"/><ellipse class="cls-6" cx="849.505" cy="451.105" rx="6.007" ry="0.211" transform="translate(-20.748 41.454) rotate(-2.762)"/><ellipse class="cls-5" cx="865.915" cy="466.134" rx="2.173" ry="0.301" transform="translate(217.68 1205.648) rotate(-77.057)"/><path class="cls-6" d="M843.868,450.247a1.013,1.013,0,1,0,1.013,1.013A1.013,1.013,0,0,0,843.868,450.247Zm0,1.477a.464.464,0,1,1,.464-.464A.464.464,0,0,1,843.868,451.724Z"/><path class="cls-6" d="M837.634,447.586a1.013,1.013,0,1,0,1.013,1.013A1.013,1.013,0,0,0,837.634,447.586Zm0,1.477a.464.464,0,1,1,.463-.464A.464.464,0,0,1,837.634,449.063Z"/><path class="cls-6" d="M849.505,452.371a1.013,1.013,0,1,0,1.013,1.013A1.014,1.014,0,0,0,849.505,452.371Zm0,1.477a.464.464,0,1,1,.464-.464A.464.464,0,0,1,849.505,453.848Z"/><path class="cls-6" d="M843.593,445.393a.739.739,0,1,0,.739.739A.738.738,0,0,0,843.593,445.393Zm0,1.077a.338.338,0,1,1,.338-.338A.339.339,0,0,1,843.593,446.47Z"/><path class="cls-6" d="M849.969,448.043a.739.739,0,1,0,.738.738A.739.739,0,0,0,849.969,448.043Zm0,1.076a.338.338,0,1,1,.338-.338A.338.338,0,0,1,849.969,449.119Z"/><path class="cls-6" d="M855.478,450.132a.738.738,0,1,0,.739.738A.738.738,0,0,0,855.478,450.132Zm0,1.076a.338.338,0,1,1,.338-.338A.338.338,0,0,1,855.478,451.208Z"/><ellipse class="cls-6" cx="849.62" cy="451.116" rx="2.592" ry="0.165" transform="translate(269.276 1218.293) rotate(-80.86)"/><path class="cls-4" d="M796.4,457.066s9.506-2.562,8.021-10.115c0,0-.345-.582-5.32-.582Z"/><path class="cls-4" d="M809.552,462.549H839.8S808.385,445.549,809.552,462.549Z"/><path class="cls-4" d="M825.885,429.3s5.917,13.814,4.584,17.24C830.469,446.539,825.219,431.382,825.885,429.3Z"/><path class="cls-4" d="M838.79,443.965s-4.083.476-5.5,2.905Z"/><path class="cls-4" d="M837.75,425.931s-7.971-.538-11.385,3.078Z"/><path class="cls-4" d="M839.182,426.949s1.8,13.442.1,16.3C839.279,443.25,838.256,428.712,839.182,426.949Z"/><path class="cls-3" d="M802.422,463.005q-.378.017-.786,0c-8.032-.228-24.22-8.188-24.22-8.188l-8.393,4.363-6.417-19.145a8.517,8.517,0,0,1,3.788-3,83.587,83.587,0,0,1-25.414-1.268l-.327,0-1.217,5h11.175a.727.727,0,0,1,.725.724h0a.727.727,0,0,1-.725.724H739.083l-.608,2.5h18.8a.875.875,0,0,1,0,1.75H738.05l-.578,2.375h8.916a.532.532,0,0,1,0,1.063h-9.174l-.718,2.951c-.184,4.354-4.873,20.432-4.873,20.432l-4.036.063c-5.177,4.78-1.27,5.249-1.27,5.249,2.081.415,10.527.388,10.527.388l64.816.137C811.877,477.588,810.127,462.682,802.422,463.005Z"/><path class="cls-3" d="M762.606,440.039l6.417,19.145,8.393-4.363-.03-.63c0-.089.019-.176.014-.267l-.722-14.968h0c-.116-2.419-3.336-3.17-3.336-3.17h0a56.175,56.175,0,0,1-6.945,1.252A8.517,8.517,0,0,0,762.606,440.039Z"/><path class="cls-4" d="M751.336,441.5h0a.727.727,0,0,0-.725-.724H739.436l-.353,1.448h11.528A.727.727,0,0,0,751.336,441.5Z"/><path class="cls-4" d="M758.148,445.6a.878.878,0,0,0-.875-.875h-18.8l-.425,1.75h19.223A.877.877,0,0,0,758.148,445.6Z"/><path class="cls-4" d="M746.919,449.383a.533.533,0,0,0-.531-.532h-8.916l-.258,1.063h9.174A.533.533,0,0,0,746.919,449.383Z"/><ellipse class="cls-5" cx="729.893" cy="476.77" rx="2.173" ry="0.301" transform="translate(101.758 1081.336) rotate(-77.057)"/><ellipse class="cls-5" cx="732.424" cy="476.77" rx="2.173" ry="0.301" transform="translate(103.722 1083.803) rotate(-77.057)"/><ellipse class="cls-5" cx="735.143" cy="476.77" rx="2.173" ry="0.301" transform="translate(105.832 1086.453) rotate(-77.057)"/><ellipse class="cls-5" cx="737.726" cy="476.77" rx="2.173" ry="0.301" transform="translate(107.837 1088.97) rotate(-77.057)"/><ellipse class="cls-5" cx="740.31" cy="476.77" rx="2.173" ry="0.301" transform="translate(109.841 1091.488) rotate(-77.057)"/><ellipse class="cls-5" cx="742.747" cy="476.77" rx="2.173" ry="0.301" transform="translate(111.733 1093.864) rotate(-77.057)"/><ellipse class="cls-5" cx="745.435" cy="476.874" rx="2.173" ry="0.301" transform="translate(113.717 1096.564) rotate(-77.057)"/><ellipse class="cls-5" cx="748.185" cy="476.874" rx="2.173" ry="0.301" transform="translate(115.851 1099.244) rotate(-77.057)"/><ellipse class="cls-5" cx="751.039" cy="476.874" rx="2.173" ry="0.301" transform="translate(118.066 1102.026) rotate(-77.057)"/><ellipse class="cls-5" cx="753.893" cy="476.874" rx="2.173" ry="0.301" transform="translate(120.281 1104.807) rotate(-77.057)"/><ellipse class="cls-5" cx="756.893" cy="476.874" rx="2.173" ry="0.301" transform="translate(122.609 1107.731) rotate(-77.057)"/><ellipse class="cls-5" cx="759.893" cy="476.874" rx="2.173" ry="0.301" transform="translate(124.937 1110.655) rotate(-77.057)"/><ellipse class="cls-5" cx="763.08" cy="476.874" rx="2.173" ry="0.301" transform="translate(127.411 1113.761) rotate(-77.057)"/><ellipse class="cls-5" cx="766.58" cy="476.874" rx="2.173" ry="0.301" transform="translate(130.127 1117.172) rotate(-77.057)"/><ellipse class="cls-5" cx="770.325" cy="476.874" rx="2.173" ry="0.301" transform="translate(133.033 1120.822) rotate(-77.057)"/><ellipse class="cls-5" cx="774.226" cy="476.874" rx="2.173" ry="0.301" transform="translate(136.06 1124.624) rotate(-77.057)"/><ellipse class="cls-5" cx="778.393" cy="476.874" rx="2.173" ry="0.301" transform="translate(139.294 1128.685) rotate(-77.057)"/><ellipse class="cls-5" cx="782.31" cy="476.874" rx="2.173" ry="0.301" transform="translate(142.333 1132.502) rotate(-77.057)"/><ellipse class="cls-5" cx="786.226" cy="476.874" rx="2.173" ry="0.301" transform="translate(145.372 1136.319) rotate(-77.057)"/><ellipse class="cls-5" cx="790.455" cy="476.874" rx="2.173" ry="0.301" transform="translate(148.654 1140.441) rotate(-77.057)"/><ellipse class="cls-5" cx="794.893" cy="476.874" rx="2.173" ry="0.301" transform="translate(152.098 1144.766) rotate(-77.057)"/><ellipse class="cls-5" cx="799.226" cy="476.874" rx="2.173" ry="0.301" transform="translate(155.461 1148.989) rotate(-77.057)"/><ellipse class="cls-6" cx="789.1" cy="462.922" rx="3.642" ry="0.322" transform="translate(-119.596 356.87) rotate(-23.741)"/><ellipse class="cls-6" cx="783.546" cy="460.872" rx="3.642" ry="0.255" transform="translate(-119.241 354.46) rotate(-23.741)"/><ellipse class="cls-6" cx="777.269" cy="458.109" rx="3.642" ry="0.379" transform="translate(-115.164 325.543) rotate(-22.065)"/><ellipse class="cls-6" cx="780.449" cy="459.337" rx="0.284" ry="6.382" transform="translate(305.274 1230.247) rotate(-88.83)"/><ellipse class="cls-6" cx="780.394" cy="459.507" rx="0.182" ry="2.831"/><ellipse class="cls-6" cx="786.226" cy="461.845" rx="6.007" ry="0.211" transform="translate(-21.339 38.418) rotate(-2.762)"/><ellipse class="cls-5" cx="802.636" cy="476.874" rx="2.173" ry="0.301" transform="translate(158.107 1152.312) rotate(-77.057)"/><path class="cls-6" d="M780.589,460.987A1.013,1.013,0,1,0,781.6,462,1.014,1.014,0,0,0,780.589,460.987Zm0,1.477a.464.464,0,1,1,.464-.464A.464.464,0,0,1,780.589,462.464Z"/><path class="cls-6" d="M774.355,458.326a1.013,1.013,0,1,0,1.013,1.013A1.012,1.012,0,0,0,774.355,458.326Zm0,1.477a.464.464,0,1,1,.463-.464A.464.464,0,0,1,774.355,459.8Z"/><path class="cls-6" d="M786.226,463.111a1.014,1.014,0,1,0,1.013,1.013A1.014,1.014,0,0,0,786.226,463.111Zm0,1.477a.464.464,0,1,1,.464-.464A.463.463,0,0,1,786.226,464.588Z"/><path class="cls-6" d="M780.314,456.133a.739.739,0,1,0,.739.739A.739.739,0,0,0,780.314,456.133Zm0,1.077a.338.338,0,1,1,.338-.338A.339.339,0,0,1,780.314,457.21Z"/><path class="cls-6" d="M786.69,458.783a.739.739,0,1,0,.738.739A.738.738,0,0,0,786.69,458.783Zm0,1.077a.338.338,0,1,1,.338-.338A.338.338,0,0,1,786.69,459.86Z"/><path class="cls-6" d="M792.2,460.872a.739.739,0,1,0,.738.738A.738.738,0,0,0,792.2,460.872Zm0,1.076a.338.338,0,1,1,.338-.338A.338.338,0,0,1,792.2,461.948Z"/><ellipse class="cls-6" cx="786.341" cy="461.856" rx="2.592" ry="0.165" transform="translate(205.445 1164.851) rotate(-80.86)"/><path class="cls-4" d="M733.125,467.806s9.5-2.561,8.021-10.115c0,0-.346-.582-5.32-.582Z"/><path class="cls-4" d="M746.273,473.289h30.25S745.106,456.289,746.273,473.289Z"/><path class="cls-4" d="M762.606,440.039s5.917,13.814,4.584,17.24C767.19,457.279,761.94,442.122,762.606,440.039Z"/><path class="cls-4" d="M775.511,454.706s-4.083.475-5.5,2.9Z"/><path class="cls-4" d="M774.471,436.671s-7.97-.538-11.385,3.078Z"/><path class="cls-4" d="M775.9,437.689s1.8,13.442.1,16.3C776,453.99,774.977,439.452,775.9,437.689Z"/><path class="cls-7" d="M738.965,257.324a1.284,1.284,0,0,0,.234-.307C739.12,257.119,739.045,257.223,738.965,257.324Z"/><path class="cls-8" d="M738.965,257.324l-.308-.055S738.74,257.524,738.965,257.324Z"/><path class="cls-1" d="M834.207,113.532l-37.533-4.387a6.94,6.94,0,0,0-.717-.047C796.64,110.011,815.459,134.776,834.207,113.532Z"/><rect class="cls-1" x="808.275" y="93.944" width="17.5" height="25" rx="6.773" ry="6.773" transform="translate(24.863 -120.137) rotate(8.539)"/><circle class="cls-3" cx="832.755" cy="65.25" r="8.25"/><circle class="cls-3" cx="811.732" cy="63" r="8.25"/><path class="cls-3" d="M811.732,87.25s13.273,5.75,18.523,2.5C830.255,89.75,817.959,103.5,811.732,87.25Z"/><circle class="cls-2" cx="815.082" cy="63.312" r="1.938"/><circle class="cls-2" cx="837.207" cy="65.25" r="1.938"/><ellipse class="cls-9" cx="795.916" cy="56.217" rx="21.693" ry="7.842" transform="translate(542.221 812.709) rotate(-75.501)"/><path class="cls-10" d="M824.936,30.693c-16.946-1.408-31.25,4.271-31.949,12.684-.408,4.909,3.911,9.662,10.942,13.052.128-.043,12.449-4.078,39.934,2.3,6.123-2.286,10.129-5.9,10.491-10.254C855.053,40.063,841.882,32.1,824.936,30.693Z"/><polygon class="cls-6" points="843.87 58.732 843.863 58.73 843.858 58.732 843.87 58.732"/><rect class="cls-10" x="798.502" y="41.31" width="48.125" height="13.926" rx="2.077" ry="2.077" transform="translate(16.286 -121.604) rotate(8.539)"/><path class="cls-6" d="M835.538,42.285s-17.775-6.226-22.066-2.558C813.472,39.727,829.758,40.787,835.538,42.285Z"/><path class="cls-6" d="M836.6,47.691s-23.558-9.937-28.633-4.164C807.964,43.527,829,45.292,836.6,47.691Z"/><path class="cls-6" d="M829.845,49.464s-19.083-4.874-23.235-.676C806.61,48.788,823.687,48.426,829.845,49.464Z"/><path class="cls-6" d="M842.994,41.292s-16.2-7.956-20.479-4.633C822.515,36.659,837.689,39.239,842.994,41.292Z"/><path class="cls-6" d="M789.625,67.772a34.784,34.784,0,0,0,.542,6.038,19.849,19.849,0,0,1-1.9-4.784c-1.937-7.586.723-14.815,5.941-16.147.118-.03.237-.04.355-.064C791.563,55.724,789.615,61.119,789.625,67.772Z"/><path class="cls-6" d="M796.462,60.434A15.447,15.447,0,0,1,798.089,57a8.747,8.747,0,0,0-1.05,14.41c.085.068.175.124.262.188A13.841,13.841,0,0,1,796.462,60.434Z"/><path class="cls-6" d="M800.9,40.953a15.44,15.44,0,0,1,3.4-1.689,8.747,8.747,0,0,0-9.749,10.664c.025.106.061.206.09.311A13.837,13.837,0,0,1,800.9,40.953Z"/><path class="cls-8" d="M872.538,113.491l-10.783,4.454.874-.361-14.664-.773.116.077a30.7,30.7,0,0,0-10.417-3.13l-3.483-.4c-.03.034-.061.065-.091.1-18.749,21.245-37.568-3.521-38.25-4.434l-.021-.028-5.315-.6a30.391,30.391,0,0,0-21.287,5.526c-1.291.5-2.823,1.076-4.508,1.687l0,0c-6.979,8.355-8.879,34.4-8.879,34.4s12.488,69.6-16.635,107.014a1.284,1.284,0,0,1-.234.307L752.73,259.8l80.653,14.527,14.176,2.553s6.085-88.438,12.794-106.223l-.008.008,1.482-5.112.192-.66h0a55.118,55.118,0,0,1,1-6.448,37.144,37.144,0,0,1,5.807-13.857l0,0,11.29-4.757v-.055C868.429,130.823,872.538,113.491,872.538,113.491Zm-18.266,7.525.019.012h0Z"/><polygon class="cls-8" points="861.83 167.97 861.83 167.965 861.83 167.965 861.83 167.97"/><rect class="cls-1" x="705.989" y="157.09" width="96.96" height="20" rx="10" ry="10" transform="translate(1275.58 -403.512) rotate(119.917)"/><rect class="cls-1" x="737.725" y="188.273" width="20" height="81.333" rx="10" ry="10" transform="translate(-27.785 329.391) rotate(-24.404)"/><circle class="cls-11" cx="761.155" cy="258.752" r="16.472"/><path class="cls-8" d="M749.755,149.75s15.75-5.5,23,13l16.5-24.5-9.75-20.75-14.8-1.893A102.945,102.945,0,0,0,749.755,149.75Z"/><polygon class="cls-12" points="861.029 312.51 925.809 354.24 1049.889 354.41 1049.889 312.51 861.029 312.51"/><polygon class="cls-13" points="861.029 312.51 925.809 354.24 925.809 371.81 861.029 326.79 861.029 312.51"/><rect class="cls-14" x="925.809" y="354.24" width="124.08" height="17.57"/><rect class="cls-14" x="861.019" y="318" width="10.98" height="95.53" rx="5" ry="5"/><rect class="cls-14" x="922.519" y="363.02" width="10.98" height="107.61" rx="5" ry="5"/><path class="cls-15" d="M877.029,291a1.261,1.261,0,0,0,.64,1.53,1.29,1.29,0,0,0,.55,1s-.37,1.53.28,2.17c0,0,.36,4.09.91,5l1.11,9.72s.36,3.69,1,4.09a13.945,13.945,0,0,0,.64,4.49s-.09,4.18,1.1,5.14v1.6s.74,2.73,14.23,2c0,0,9.46-.16,7.72-3.93,0,0,.92-.64,1.19-8.83,0,0,.46-.16,1.2-9.71,0,0,.55-1,.64-5.46,0,0,.37-.24.18-1,0,0,.74,0,.55-3.45,0,0,.55.48.37-2.09a1.4,1.4,0,0,0,.46-1.12s.64.08.55-1.13Z"/><ellipse class="cls-16" cx="893.689" cy="291.07" rx="16.75" ry="2.44"/><path class="cls-15" d="M919.889,296.49a1.261,1.261,0,0,0,.64,1.53,1.29,1.29,0,0,0,.55,1s-.36,1.53.28,2.17c0,0,.37,4.09.92,5l1.1,9.72s.37,3.69,1,4.09a14.292,14.292,0,0,0,.64,4.49s-.09,4.18,1.1,5.14v1.61s.74,2.72,14.24,2c0,0,9.46-.16,7.71-3.93,0,0,.92-.64,1.2-8.83,0,0,.46-.16,1.19-9.71,0,0,.55-1,.64-5.46,0,0,.37-.24.19-1,0,0,.73,0,.55-3.45,0,0,.55.48.36-2.09a1.359,1.359,0,0,0,.46-1.12s.65.08.55-1.13Z"/><ellipse class="cls-16" cx="936.519" cy="296.56" rx="16.75" ry="2.44"/><path class="cls-15" d="M899.889,305.47a1.241,1.241,0,0,0,.66,1.51,1.3,1.3,0,0,0,.56,1s-.35,1.53.3,2.16c0,0,.42,4.09,1,5l1.21,9.7s.41,3.69,1.06,4.08a14.113,14.113,0,0,0,.69,4.49s0,4.17,1.16,5.12v1.61s.76,2.72,14.25,1.84c0,0,9.46-.27,7.67-4,0,0,.91-.65,1.1-8.84,0,0,.45-.16,1.08-9.72,0,0,.54-1.05.58-5.47,0,0,.37-.24.17-1,0,0,.74,0,.52-3.46,0,0,.55.48.34-2.09a1.428,1.428,0,0,0,.45-1.13s.64.07.53-1.13Z"/><ellipse class="cls-16" cx="916.574" cy="305.34" rx="16.75" ry="2.44" transform="translate(-3.405 10.418) rotate(-0.65)"/><path class="cls-15" d="M965.969,297.63a1.261,1.261,0,0,0,.64,1.53,1.29,1.29,0,0,0,.55,1s-.37,1.52.28,2.17c0,0,.36,4.09.92,5l1.1,9.71s.37,3.7,1,4.1a14.292,14.292,0,0,0,.64,4.49s-.09,4.18,1.1,5.14v1.6s.74,2.73,14.24,2c0,0,9.46-.16,7.71-3.93,0,0,.92-.64,1.19-8.83,0,0,.46-.16,1.2-9.71,0,0,.55-1.05.64-5.46,0,0,.37-.24.18-1,0,0,.74,0,.56-3.45,0,0,.55.48.36-2.09a1.4,1.4,0,0,0,.46-1.13s.64.09.55-1.12Z"/><ellipse class="cls-16" cx="982.629" cy="297.66" rx="16.75" ry="2.44"/><path class="cls-15" d="M947.3,307.47a1.261,1.261,0,0,0,.64,1.53,1.28,1.28,0,0,0,.56,1s-.37,1.53.27,2.17c0,0,.37,4.09.92,5l1.1,9.72s.37,3.69,1,4.09a14.292,14.292,0,0,0,.64,4.49s-.09,4.18,1.11,5.14v1.61s.73,2.72,14.23,2c0,0,9.46-.16,7.71-3.93,0,0,.92-.64,1.2-8.83,0,0,.46-.16,1.19-9.71,0,0,.55-1,.64-5.46,0,0,.37-.24.19-1,0,0,.73,0,.55-3.45,0,0,.55.48.37-2.09a1.369,1.369,0,0,0,.45-1.12s.65.08.56-1.13Z"/><ellipse class="cls-16" cx="963.969" cy="307.54" rx="16.75" ry="2.44"/><path class="cls-15" d="M922.049,316.26a1.252,1.252,0,0,0,.64,1.52,1.3,1.3,0,0,0,.55,1s-.37,1.52.28,2.16c0,0,.36,4.1.91,5l1.11,9.71s.36,3.69,1,4.09a14.006,14.006,0,0,0,.64,4.5s-.09,4.17,1.1,5.14v1.6s.74,2.73,14.23,2c0,0,9.46-.16,7.72-3.94,0,0,.92-.64,1.19-8.82,0,0,.46-.17,1.2-9.72,0,0,.55-1,.64-5.45,0,0,.37-.24.18-1.05,0,0,.74,0,.55-3.45,0,0,.55.48.37-2.08a1.416,1.416,0,0,0,.46-1.13s.64.08.55-1.12Z"/><ellipse class="cls-16" cx="938.709" cy="316.33" rx="16.75" ry="2.44"/></svg>
