<svg id="Layer_1" data-name="Layer 1" xmlns="http://www.w3.org/2000/svg" viewBox="0 0 2449 3000"><defs><style>.cls-1{fill:#f96908;}.cls-2{fill:#079929;}.cls-3{fill:#15e8f9;}.cls-4{fill:#1651f7;}.cls-5{fill:#ae19f4;}.cls-6{fill:#d18f82;}.cls-7{fill:#fcad95;}.cls-8{fill:#002053;}.cls-9{stroke:#002b6f;}.cls-10,.cls-11,.cls-27,.cls-43,.cls-50,.cls-51,.cls-9{stroke-miterlimit:10;}.cls-10,.cls-50{fill:#fff;}.cls-10,.cls-11{stroke:#fff;}.cls-12{fill:#bd0000;}.cls-13{fill:#700b0b;}.cls-14{fill:#c69d9d;}.cls-15{fill:#a8736c;}.cls-16{fill:#f8f8f8;}.cls-17{fill:#c41707;}.cls-18{fill:#dbdce6;}.cls-19{fill:#f7da0b;}.cls-20{fill:#f2a694;opacity:0.6;}.cls-21{fill:#f7c4c9;}.cls-22{fill:#f797eb;}.cls-23{fill:#a28eef;}.cls-24{fill:#34c691;}.cls-25{fill:#e2ea3b;}.cls-26{fill:#eda08e;}.cls-27,.cls-51{fill:none;}.cls-27{stroke:#000;stroke-width:0.01px;}.cls-28{fill:#4667d1;}.cls-29{fill:#505151;}.cls-30{fill:#020202;}.cls-31,.cls-32{fill:#5a5b5b;}.cls-31{opacity:0.26;}.cls-32{opacity:0.8;}.cls-33{fill:#dee0e0;}.cls-34{fill:#5c26ef;}.cls-35{fill:#7660e2;}.cls-36{fill:#8a9cf9;}.cls-37{fill:#c0cbf9;}.cls-38{fill:#ced6ef;}.cls-39{fill:#e1e5ef;}.cls-40{fill:#353536;}.cls-41{fill:#c6c6c9;}.cls-42{fill:#6a696f;}.cls-43{fill:#f7f7e4;stroke:#d4d4d6;}.cls-44{fill:#c1f7d4;}.cls-45{fill:#acefc1;}.cls-46{fill:#88e5a2;}.cls-47{fill:#64dd80;}.cls-48{fill:#48cc5a;}.cls-49{fill:#16a81d;}.cls-50{stroke:#edebeb;stroke-width:0.02px;}.cls-51{stroke:#020202;stroke-width:0.1px;}.cls-52{fill:#eccef4;}.cls-53{fill:#d9afe8;}.cls-54{fill:#cd9ae2;}.cls-55{fill:#be7cdd;}.cls-56{fill:#b166dd;}.cls-57{fill:#9321d6;}.cls-58{fill:#161616;}.cls-59{fill:#7308bf;}.cls-60{fill:#f4f4f4;}.cls-61{fill:#f40b0b;}</style></defs><title>Martin_spritesheet</title><rect class="cls-1" x="3" y="2" width="350" height="500"/><rect class="cls-2" x="703" y="2" width="350" height="500"/><rect class="cls-3" x="1053" y="2" width="350" height="500"/><rect class="cls-4" x="1403" y="2" width="350" height="500"/><rect class="cls-5" x="1753" y="2" width="350" height="500"/><path class="cls-6" d="M175.73,54.9s.24.36.67,1c1.55,2.13,5.48,7.18,8.72,8.5h-9.39"/><path class="cls-7" d="M190.58,130v16.14L210,156.93c-36.14,32.27-58.37,0-58.37,0l19.45-10.76V130"/><path class="cls-7" d="M254,307.52s14.44,16.58,12.91,17.53c0,0,1,4.16-3-.05l-4.86-5.75.23,21.08s-2.13,3.43-2.48-.59l-.11-9.61v-.93l-.48,13a1.76,1.76,0,0,1-2.48-.59c-1-1.54.47-13,.47-13l-1.42,11.49a1.77,1.77,0,0,1-2.49-.59c-.94-1.54,1.43-11.49,1.43-11.49l-.95-1.54-2.29,5.62s-2.8.17-1.8-1.78l1.13-19Z"/><polygon class="cls-8" points="212.81 312.24 138.59 305.59 124.06 485.79 164.76 485.79 169.22 389.68 171.57 391.18 169.22 485.79 203.86 485.79 212.81 312.24"/><ellipse class="cls-9" cx="174.04" cy="338.25" rx="2.41" ry="3"/><ellipse class="cls-9" cx="174.04" cy="348.95" rx="2.41" ry="3"/><path class="cls-9" d="M177.54,335.24s2.79,33.22-6.29,27.08v3.77s9,7,9.2-29.93Z"/><polygon class="cls-10" points="129.54 484.42 132.04 484.66 142.02 319.69 139.51 319.45 129.54 484.42"/><polygon class="cls-10" points="135.78 484.42 138.28 484.66 148.26 319.69 145.76 319.45 135.78 484.42"/><path d="M129.28,483.11s-24-4-25.37,7.47L102.5,502h60.29l-.64-18.89Z"/><path d="M205.69,483.11s23.95-4,25.36,7.47L232.46,502H172.18l.63-18.89Z"/><circle class="cls-7" cx="179.14" cy="93.1" r="44.1"/><path class="cls-10" d="M166.72,92.82s1.21-14.32-11.94-8.07C154.78,84.75,154.16,95.53,166.72,92.82Z"/><circle class="cls-11" cx="160.95" cy="87.61" r="4.18"/><rect x="147.94" y="76.94" width="20.5" height="3.12" rx="1.56" ry="1.56" transform="translate(316.38 157) rotate(-180)"/><path class="cls-6" d="M179.14,95.76s.16.29.44.75c1,1.65,3.5,5.58,5.58,6.61h-6"/><path class="cls-12" d="M215.81,69s5.71-38.42-17.39-42.57H161S145,27,140.28,45.15V69Z"/><path class="cls-13" d="M178.36,23s2.6-.26,2.48,2.79h-5.65S175,22.76,178.36,23Z"/><path class="cls-13" d="M140.28,59.36H107s.13,8.69,7.86,9.34l25.44.33Z"/><path class="cls-13" d="M216.31,54.28s-6.34-1.93-8.67,3.91V69l8.17-.33Z"/><polygon class="cls-14" points="215.9 66.56 207.64 66.56 207.64 69.03 215.81 69.03 215.9 66.56"/><path class="cls-10" d="M203.15,86s-11.06-9.17-13.44,5.2C189.71,91.15,198.22,97.81,203.15,86Z"/><circle class="cls-11" cx="195.58" cy="87.71" r="4.18"/><rect x="186.03" y="76.94" width="20.5" height="3.12" rx="1.56" ry="1.56" transform="translate(392.55 157) rotate(-180)"/><path class="cls-15" d="M201.85,114.52s-17.64,5.17-29.35.63c0,0-2.35,9.32,9.81,6.56A72.62,72.62,0,0,0,201.85,114.52Z"/><path class="cls-16" d="M151.84,156s17.25,32.8,58.45,0c0,0,43.11-7.72,39.28,24.11l10.54,131.21-15.33,3.86-17.25-117.7s0-16.4-11.49-12.54l-2.88,126.38-72.81-5.79,1.91-115.77s-12.45-5.79-12.45,7.72L124.06,239s-1.92,7.72,5.75,6.76l30.66-3.86.95,16.4-37.36,3.86s-23,3.86-17.25-27l9.58-50.16S119.27,155,151.84,156Z"/><path class="cls-17" d="M168.26,234.42a.87.87,0,0,0,.45,1.06.92.92,0,0,0,.38.73s-.26,1.06.19,1.51a15.54,15.54,0,0,0,.64,3.46l.77,6.76s.25,2.57.7,2.84a10,10,0,0,0,.45,3.13s-.07,2.91.76,3.58v1.11s.52,1.9,9.91,1.4c0,0,6.58-.11,5.37-2.74,0,0,.64-.44.83-6.14,0,0,.32-.11.83-6.76,0,0,.38-.72.45-3.8,0,0,.25-.16.12-.72,0,0,.51,0,.39-2.4,0,0,.38.33.25-1.46a.94.94,0,0,0,.32-.78s.45.06.39-.78Z"/><ellipse class="cls-18" cx="179.86" cy="234.47" rx="11.65" ry="1.7"/><path class="cls-7" d="M168.52,244.45l1.94.29,18.9,2.87s3,2.66-1,2.36l-9.5-1.44-.92-.14L190.74,251a1.78,1.78,0,0,1-1,2.36c-1.67.68-12.78-2.57-12.78-2.57L188.08,254a1.77,1.77,0,0,1-1,2.36c-1.67.69-11.1-3.25-11.1-3.25l-1.68.68,5.18,3.17s-.29,2.79-2.05,1.48l-18.57-4.17-2.74-6.69s7.51-4.66,13.19-7.64h.25l.48,1.45Z"/><path class="cls-16" d="M467,231.5l32-4"/><path class="cls-16" d="M467,181.16l-6,43.29"/><line class="cls-16" x1="500" y1="244.59" x2="461" y2="248.62"/><line class="cls-16" x1="499" y1="227.47" x2="500" y2="244.59"/><polygon class="cls-16" points="534 144 544 154 532.98 160.43 522.98 150.71 534 144"/><rect class="cls-19" x="353" y="2" width="350" height="500"/><path class="cls-7" d="M534.58,130v16.14L554,156.93c-36.14,32.27-58.37,0-58.37,0l19.45-10.76V130"/><path class="cls-7" d="M598,307.52s14.44,16.58,12.91,17.53c0,0,1,4.16-3-.05l-4.86-5.75.23,21.08s-2.13,3.43-2.48-.59l-.11-9.61v-.93l-.48,13a1.76,1.76,0,0,1-2.48-.59c-1-1.54.47-13,.47-13l-1.42,11.49a1.77,1.77,0,0,1-2.49-.59c-.94-1.54,1.43-11.49,1.43-11.49l-1-1.54-2.29,5.62s-2.8.17-1.8-1.78l1.13-19Z"/><polygon class="cls-8" points="556.82 312.24 482.59 305.59 468.06 485.79 508.76 485.79 513.22 389.68 515.57 391.18 513.22 485.79 547.86 485.79 556.82 312.24"/><ellipse class="cls-9" cx="518.04" cy="338.25" rx="2.41" ry="3"/><ellipse class="cls-9" cx="518.04" cy="348.95" rx="2.41" ry="3"/><path class="cls-9" d="M521.54,335.24s2.79,33.22-6.29,27.08v3.77s9,7,9.2-29.93Z"/><polygon class="cls-10" points="473.54 484.42 476.04 484.66 486.02 319.69 483.51 319.45 473.54 484.42"/><polygon class="cls-10" points="479.78 484.42 482.29 484.66 492.26 319.69 489.76 319.45 479.78 484.42"/><path d="M473.28,483.11s-24-4-25.37,7.47L446.5,502h60.29l-.64-18.89Z"/><path d="M549.69,483.11s23.95-4,25.36,7.47L576.46,502H516.18l.63-18.89Z"/><circle class="cls-7" cx="523.14" cy="93.1" r="44.1"/><path class="cls-10" d="M510.72,92.82s1.21-14.32-11.94-8.07C498.78,84.75,498.16,95.53,510.72,92.82Z"/><circle class="cls-11" cx="504.95" cy="87.61" r="4.18"/><rect x="491.94" y="76.94" width="20.5" height="3.12" rx="1.56" ry="1.56" transform="translate(1004.38 157) rotate(180)"/><path class="cls-6" d="M523.14,95.76s.16.29.44.75c1,1.65,3.5,5.58,5.58,6.61h-6"/><path class="cls-12" d="M559.81,69s5.71-38.42-17.39-42.57H505S489,27,484.28,45.15V69Z"/><path class="cls-13" d="M522.36,23s2.6-.26,2.48,2.79h-5.65S519,22.76,522.36,23Z"/><path class="cls-13" d="M484.28,59.36H451s.13,8.69,7.86,9.34l25.44.33Z"/><path class="cls-13" d="M560.31,54.28s-6.34-1.93-8.67,3.91V69l8.17-.33Z"/><polygon class="cls-14" points="559.9 66.56 551.64 66.56 551.64 69.03 559.81 69.03 559.9 66.56"/><path class="cls-10" d="M547.15,86s-11.06-9.17-13.44,5.2C533.71,91.15,542.22,97.81,547.15,86Z"/><circle class="cls-11" cx="539.58" cy="87.71" r="4.18"/><rect x="530.03" y="76.94" width="20.5" height="3.12" rx="1.56" ry="1.56" transform="translate(1080.55 157) rotate(-180)"/><path class="cls-15" d="M545.85,114.52s-17.64,5.17-29.35.63c0,0-2.35,9.32,9.81,6.56A72.62,72.62,0,0,0,545.85,114.52Z"/><path class="cls-16" d="M460.39,184.93S463.27,155,495.84,156c0,0,12.94,24.61,43.18,9.88A83.94,83.94,0,0,0,554.29,156s43.11-7.72,39.28,24.11l10.54,131.21-15.33,3.86-17.25-117.7s0-16.4-11.49-12.54l-2.88,126.38-72.81-5.79,1.91-115.77s-12.45-5.79-12.45,7.72c0,0,25.87-21.23,42.15-22.19l22-13.41,9.58,9.58-23,13.41-41.2,22S445.06,225.23,460.39,184.93Z"/><path class="cls-17" d="M540.27,149.6a.88.88,0,0,0,.9.72.89.89,0,0,0,.68.45s.29,1,.89,1.23a14.84,14.84,0,0,0,2.23,2.73l3.91,5.56s1.46,2.13,2,2.16a9.91,9.91,0,0,0,1.9,2.53s1.34,2.58,2.39,2.77l.53,1s1.36,1.42,9.36-3.53c0,0,5.72-3.25,3.4-5,0,0,.34-.7-2.22-5.79,0,0,.22-.25-2.52-6.33,0,0,0-.82-1.43-3.55,0,0,.15-.26-.23-.69,0,0,.45-.25-.82-2.29,0,0,.5.11-.47-1.4a1,1,0,0,0-.1-.84s.42-.17,0-.87Z"/><ellipse class="cls-18" cx="550.46" cy="144.08" rx="11.65" ry="1.7" transform="translate(-1.62 281.82) rotate(-28.68)"/><path class="cls-7" d="M545.3,158.27l1.85-.67,18-6.55s3.95.87.27,2.54l-9,3.29-.88.32,12.45-3.88a1.78,1.78,0,0,1,.27,2.55c-1.14,1.4-12.45,3.87-12.45,3.87l11.31-2.47a1.78,1.78,0,0,1,.27,2.54c-1.14,1.41-11.31,2.48-11.31,2.48l-1.14,1.4,6.07.3s1.08,2.58-1.09,2.28l-18.29,5.25L535.94,167s2.44-4.31,5.16-8.72l.46-.75c.14-.22.28-.44.41-.66.63-1,1.27-2,1.87-2.91l1.34.93Z"/><polygon class="cls-20" points="534.61 144.59 534 144.03 539.65 135 540 135.45 534.61 144.59"/><path class="cls-7" d="M892.58,130v16.14L912,156.93c-36.14,32.27-58.37,0-58.37,0l19.45-10.76V130"/><path class="cls-7" d="M956,307.52s14.44,16.58,12.91,17.53c0,0,1,4.16-3-.05l-4.86-5.75.23,21.08s-2.13,3.43-2.48-.59l-.11-9.61v-.93l-.48,13a1.76,1.76,0,0,1-2.48-.59c-1-1.54.47-13,.47-13l-1.42,11.49a1.77,1.77,0,0,1-2.49-.59c-.94-1.54,1.43-11.49,1.43-11.49l-1-1.54-2.29,5.62s-2.8.17-1.8-1.78l1.13-19Z"/><polygon class="cls-8" points="914.82 312.24 840.59 305.59 826.06 485.79 866.76 485.79 871.22 389.68 873.57 391.18 871.22 485.79 905.86 485.79 914.82 312.24"/><ellipse class="cls-9" cx="876.04" cy="338.25" rx="2.41" ry="3"/><ellipse class="cls-9" cx="876.04" cy="348.95" rx="2.41" ry="3"/><path class="cls-9" d="M879.54,335.24s2.79,33.22-6.29,27.08v3.77s9,7,9.2-29.93Z"/><polygon class="cls-10" points="831.54 484.42 834.04 484.66 844.02 319.69 841.51 319.45 831.54 484.42"/><polygon class="cls-10" points="837.78 484.42 840.28 484.66 850.26 319.69 847.76 319.45 837.78 484.42"/><path d="M831.28,483.11s-24-4-25.37,7.47L804.5,502h60.29l-.64-18.89Z"/><path d="M907.69,483.11s23.95-4,25.36,7.47L934.46,502H874.18l.63-18.89Z"/><circle class="cls-7" cx="881.14" cy="93.1" r="44.1"/><path class="cls-10" d="M868.72,92.82s1.21-14.32-11.94-8.07C856.78,84.75,856.16,95.53,868.72,92.82Z"/><circle class="cls-11" cx="862.95" cy="87.61" r="4.18"/><rect x="849.94" y="76.94" width="20.5" height="3.12" rx="1.56" ry="1.56" transform="translate(1720.38 157) rotate(-180)"/><path class="cls-6" d="M881.14,95.76s.16.29.44.75c1,1.65,3.5,5.58,5.58,6.61h-6"/><path class="cls-12" d="M917.81,69s5.71-38.42-17.39-42.57H863S847,27,842.28,45.15V69Z"/><path class="cls-13" d="M880.36,23s2.6-.26,2.48,2.79h-5.65S877,22.76,880.36,23Z"/><path class="cls-13" d="M842.28,59.36H809s.13,8.69,7.86,9.34l25.44.33Z"/><path class="cls-13" d="M918.31,54.28s-6.34-1.93-8.67,3.91V69l8.17-.33Z"/><polygon class="cls-14" points="917.9 66.56 909.64 66.56 909.64 69.03 917.81 69.03 917.9 66.56"/><path class="cls-10" d="M905.15,86s-11.06-9.17-13.44,5.2C891.71,91.15,900.22,97.81,905.15,86Z"/><circle class="cls-11" cx="897.58" cy="87.71" r="4.18"/><rect x="888.03" y="76.94" width="20.5" height="3.12" rx="1.56" ry="1.56" transform="translate(1796.55 157) rotate(-180)"/><path class="cls-17" d="M891.47,128.76a.88.88,0,0,0,1.08.4.9.9,0,0,0,.79.21s.6.92,1.23.89a15.34,15.34,0,0,0,3,1.91l5.45,4.06s2,1.57,2.56,1.44a10,10,0,0,0,2.59,1.81s2.07,2,3.13,1.89l.81.76s1.74.93,7.8-6.27c0,0,4.42-4.88,1.67-5.79,0,0,.11-.77-3.91-4.81,0,0,.14-.31-4.36-5.22,0,0-.27-.78-2.47-2.93,0,0,.06-.3-.44-.59,0,0,.35-.37-1.49-1.92,0,0,.51,0-.88-1.18a1,1,0,0,0-.35-.77s.34-.29-.31-.81Z"/><ellipse class="cls-18" cx="899.44" cy="120.33" rx="11.65" ry="1.7" transform="translate(196.39 694.09) rotate(-46.84)"/><path class="cls-7" d="M899,135.42l1.55-1.21,15-11.82s4-.41,1.05,2.33L909,130.66l-.73.58,10.62-7.57A1.78,1.78,0,0,1,920,126c-.65,1.69-10.62,7.56-10.62,7.56l10-5.87a1.77,1.77,0,0,1,1.05,2.33c-.64,1.69-10,5.87-10,5.87l-.65,1.69L915.6,136s1.83,2.12-.32,2.51l-15.75,10.69-6.76-2.57s1-4.86,2.19-9.9c.06-.28.13-.57.2-.85s.13-.51.19-.76c.29-1.15.58-2.28.87-3.34l1.56.46Z"/><path class="cls-16" d="M844.26,189.75l-1.91,115.77,72.81,5.79L918,184.93c11.49-3.86,11.49,12.54,11.49,12.54l17.25,117.7,15.33-3.86L951.57,180.1C955.4,148.27,912.29,156,912.29,156A83.94,83.94,0,0,1,897,165.87C866.78,180.6,853.84,156,853.84,156s-40.24-3.7-30.66,30.79c0,0,3.84,14.37,14.38,11.5l71.85-47.91-20.12-8.62L836.6,181Z"/><circle class="cls-15" cx="889.29" cy="121.63" r="4.79"/><path class="cls-7" d="M1309.6,296s15.08,17.31,13.47,18.3c0,0,1,4.34-3.08-.06l-5.08-6,.25,22s-2.23,3.58-2.6-.62l-.11-10v-1l-.5,13.6a1.84,1.84,0,0,1-2.59-.62c-1-1.61.49-13.6.49-13.6l-1.48,12a1.85,1.85,0,0,1-2.6-.62c-1-1.6,1.49-12,1.49-12l-1-1.6-2.39,5.87s-2.92.16-1.87-1.87l1.17-19.83Z"/><polygon class="cls-16" points="1240.11 148.8 1249 143 1258 154 1248.61 159.48 1240.11 148.8"/><polygon class="cls-16" points="527.98 167.71 537.98 177.43 549 171 539 161 527.98 167.71"/><polygon class="cls-20" points="1250.12 144.32 1249.57 143.69 1256.13 135.3 1256.44 135.79 1250.12 144.32"/><path class="cls-7" d="M1240.65,126.5v16.33l19.7,10.89c-36.58,32.67-59.08,0-59.08,0L1221,142.83V126.5"/><polygon class="cls-8" points="1263.16 310.93 1188.03 304.19 1173.32 486.59 1214.52 486.59 1219.03 389.31 1221.41 390.83 1219.03 486.59 1254.1 486.59 1263.16 310.93"/><ellipse class="cls-9" cx="1223.91" cy="337.25" rx="2.44" ry="3.04"/><ellipse class="cls-9" cx="1223.91" cy="348.08" rx="2.44" ry="3.04"/><path class="cls-9" d="M1227.45,334.21s2.83,33.63-6.37,27.41v3.81s9.13,7.06,9.32-30.29Z"/><polygon class="cls-10" points="1178.87 485.21 1181.4 485.45 1191.5 318.47 1188.97 318.23 1178.87 485.21"/><polygon class="cls-10" points="1185.18 485.21 1187.72 485.45 1197.82 318.47 1195.29 318.23 1185.18 485.21"/><path d="M1178.6,483.88s-24.24-4-25.67,7.56L1151.5,503h61l-.64-19.12Z"/><path d="M1255.94,483.88s24.25-4,25.68,7.56L1283,503h-61l.64-19.12Z"/><circle class="cls-7" cx="1229.08" cy="89.12" r="44.63"/><path class="cls-10" d="M1216.5,88.83s1.23-14.49-12.09-8.17C1204.41,80.66,1203.79,91.58,1216.5,88.83Z"/><circle class="cls-11" cx="1210.66" cy="83.56" r="4.23"/><rect x="1197.5" y="72.76" width="20.75" height="3.16" rx="1.58" ry="1.58" transform="translate(2415.74 148.68) rotate(-180)"/><path class="cls-6" d="M1229.08,91.81s.16.29.43.75c1,1.68,3.55,5.66,5.65,6.7h-6.08"/><path class="cls-12" d="M1266.19,64.75s5.79-38.88-17.6-43.09h-37.83s-16.3.53-21,18.92V64.75Z"/><path class="cls-13" d="M1228.28,18.12s2.64-.27,2.51,2.82h-5.72S1224.85,17.92,1228.28,18.12Z"/><path class="cls-13" d="M1189.74,55H1156s.13,8.8,8,9.45l25.75.33Z"/><path class="cls-13" d="M1266.7,49.83s-6.42-2-8.78,4v11l8.27-.33Z"/><polygon class="cls-14" points="1266.28 62.26 1257.92 62.26 1257.92 64.75 1266.19 64.75 1266.28 62.26"/><path class="cls-10" d="M1253.38,81.88s-11.2-9.28-13.61,5.27C1239.77,87.15,1248.39,93.88,1253.38,81.88Z"/><circle class="cls-11" cx="1245.71" cy="83.67" r="4.23"/><rect x="1236.04" y="72.76" width="20.75" height="3.16" rx="1.58" ry="1.58" transform="translate(2492.84 148.68) rotate(-180)"/><path class="cls-16" d="M1166.53,182.06s2.91-30.27,35.88-29.29c0,0,13.1,24.91,43.71,10a84.69,84.69,0,0,0,15.45-10s43.64-7.81,39.76,24.41L1312,310l-15.52,3.9L1279,194.76s0-16.6-11.64-12.7L1264.48,310l-73.7-5.86L1192.72,187s-12.61-5.86-12.61,7.81c0,0,26.18-21.49,42.67-22.46l22.3-13.57,9.7,9.69L1231.51,182l-41.7,22.31S1151,222.86,1166.53,182.06Z"/><path class="cls-17" d="M1250.86,145a.88.88,0,0,0,.88.76.9.9,0,0,0,.67.49s.24,1.08.84,1.29a15.28,15.28,0,0,0,2.12,2.86l3.71,5.81s1.37,2.22,1.9,2.28a9.86,9.86,0,0,0,1.8,2.64s1.23,2.67,2.28,2.91l.5,1s1.31,1.5,9.63-3.13c0,0,5.93-3,3.66-4.88,0,0,.38-.69-2-5.95,0,0,.24-.25-2.25-6.52,0,0,0-.83-1.28-3.65,0,0,.16-.27-.21-.72,0,0,.47-.22-.72-2.35,0,0,.5.13-.41-1.44a1,1,0,0,0-.06-.85s.44-.15,0-.88Z"/><ellipse class="cls-18" cx="1261.43" cy="139.88" rx="11.79" ry="1.72" transform="translate(66.67 568.03) rotate(-26.04)"/><path class="cls-7" d="M1255.55,154l1.9-.6,18.47-5.78s3.95,1.06.15,2.58l-9.29,2.91-.89.28,12.76-3.34a1.78,1.78,0,0,1,.15,2.58C1277.59,154,1266,156,1266,156l11.55-2a1.79,1.79,0,0,1,.15,2.58c-1.22,1.37-11.55,2-11.55,2l-1.22,1.36,6.12.58s1,2.67-1.2,2.26l-18.74,4.46-5.47-4.86s2.67-4.25,5.62-8.58l.5-.74.45-.64c.68-1,1.37-2,2-2.85l1.3,1Z"/><path class="cls-15" d="M1230.51,118.52s-.82-2.47,1.65-2.47a9.78,9.78,0,0,0,9,0s2.46,0,1.64,1.65c0,0-2.46,8.2-5.74,9C1237.08,126.72,1232.16,123.44,1230.51,118.52Z"/><rect class="cls-21" x="4" y="502" width="350" height="500"/><rect class="cls-22" x="353" y="502" width="350" height="500"/><rect class="cls-23" x="703" y="502" width="350" height="500"/><rect class="cls-24" x="1403" y="502" width="350" height="500"/><rect class="cls-25" x="1753" y="502" width="350" height="500"/><path class="cls-7" d="M1580.58,125v16.14L1600,151.93c-36.14,32.27-58.37,0-58.37,0l19.45-10.76V125"/><path class="cls-7" d="M1644,302.52s14.44,16.58,12.91,17.53c0,0,1,4.16-3-.05l-4.86-5.75.23,21.08s-2.13,3.43-2.48-.59l-.11-9.61v-.93l-.48,13a1.76,1.76,0,0,1-2.48-.59c-1-1.54.47-13,.47-13l-1.42,11.49a1.77,1.77,0,0,1-2.49-.59c-.94-1.54,1.43-11.49,1.43-11.49l-1-1.54-2.29,5.62s-2.8.17-1.8-1.78l1.13-19Z"/><polygon class="cls-8" points="1602.82 307.24 1528.59 300.59 1514.06 480.79 1554.77 480.79 1559.21 384.68 1561.57 386.18 1559.21 480.79 1593.86 480.79 1602.82 307.24"/><ellipse class="cls-9" cx="1564.04" cy="333.25" rx="2.41" ry="3"/><ellipse class="cls-9" cx="1564.04" cy="343.95" rx="2.41" ry="3"/><path class="cls-9" d="M1567.54,330.24s2.79,33.22-6.29,27.08v3.77s9,7,9.2-29.93Z"/><polygon class="cls-10" points="1519.54 479.42 1522.04 479.66 1532.02 314.69 1529.52 314.45 1519.54 479.42"/><polygon class="cls-10" points="1525.78 479.42 1528.29 479.66 1538.26 314.69 1535.76 314.45 1525.78 479.42"/><path d="M1519.28,478.11s-24-4-25.37,7.47L1492.5,497h60.29l-.64-18.89Z"/><path d="M1595.69,478.11s24-4,25.36,7.47l1.41,11.42h-60.28l.63-18.89Z"/><circle class="cls-7" cx="1569.14" cy="88.1" r="44.1"/><path class="cls-10" d="M1556.72,87.82s1.21-14.32-11.94-8.07C1544.78,79.75,1544.16,90.53,1556.72,87.82Z"/><circle class="cls-11" cx="1550.95" cy="82.61" r="4.18"/><rect x="1537.94" y="71.94" width="20.5" height="3.12" rx="1.56" ry="1.56" transform="translate(3096.38 147) rotate(-180)"/><path class="cls-6" d="M1569.14,90.76s.16.29.44.75c1,1.65,3.5,5.58,5.58,6.61h-6"/><path class="cls-12" d="M1605.81,64s5.71-38.42-17.39-42.57H1551S1535,22,1530.28,40.15V64Z"/><path class="cls-13" d="M1568.36,18s2.6-.26,2.48,2.79h-5.65S1565,17.76,1568.36,18Z"/><path class="cls-13" d="M1530.28,54.36H1497s.13,8.69,7.86,9.34l25.44.33Z"/><path class="cls-13" d="M1606.31,49.28s-6.34-1.93-8.67,3.91V64l8.17-.33Z"/><polygon class="cls-14" points="1605.9 61.56 1597.64 61.56 1597.64 64.03 1605.81 64.03 1605.9 61.56"/><path class="cls-10" d="M1593.15,81s-11.06-9.17-13.44,5.2C1579.71,86.15,1588.22,92.81,1593.15,81Z"/><circle class="cls-11" cx="1585.58" cy="82.71" r="4.18"/><rect x="1576.03" y="71.94" width="20.5" height="3.12" rx="1.56" ry="1.56" transform="translate(3172.55 147) rotate(-180)"/><path class="cls-15" d="M1591.85,109.52s-17.64,5.17-29.35.63c0,0-2.35,9.32,9.81,6.56A72.62,72.62,0,0,0,1591.85,109.52Z"/><path class="cls-16" d="M1541.84,151s17.25,32.8,58.45,0c0,0,43.11-7.72,39.28,24.11l10.54,131.21-15.33,3.86-17.25-117.7s0-16.4-11.49-12.54l-2.88,126.38-72.81-5.79,1.91-115.77s-12.45-5.79-12.45,7.72L1514.06,234s-1.92,7.72,5.75,6.76l30.66-3.86,1,16.4-37.36,3.86s-23,3.86-17.25-27l9.58-50.16S1509.27,150,1541.84,151Z"/><path class="cls-17" d="M1558.26,229.42a.87.87,0,0,0,.45,1.06.92.92,0,0,0,.38.73s-.26,1.06.19,1.51a15.54,15.54,0,0,0,.64,3.46l.77,6.76s.25,2.57.7,2.84a10,10,0,0,0,.45,3.13s-.07,2.91.76,3.58v1.11s.52,1.9,9.91,1.4c0,0,6.58-.11,5.37-2.74,0,0,.64-.44.83-6.14,0,0,.32-.11.83-6.76,0,0,.38-.72.45-3.8,0,0,.25-.16.12-.72,0,0,.51,0,.39-2.4,0,0,.38.33.25-1.46a.94.94,0,0,0,.32-.78s.45.06.39-.78Z"/><ellipse class="cls-18" cx="1569.86" cy="229.47" rx="11.65" ry="1.7"/><path class="cls-7" d="M1558.52,239.45l1.94.29,18.9,2.87s3.05,2.66-1,2.36l-9.5-1.44-.92-.14,12.78,2.57a1.78,1.78,0,0,1-1,2.36c-1.67.68-12.78-2.57-12.78-2.57l11.11,3.25a1.77,1.77,0,0,1-1,2.36c-1.67.69-11.1-3.25-11.1-3.25l-1.68.68,5.18,3.17s-.29,2.79-2,1.48l-18.57-4.17-2.74-6.69s7.51-4.66,13.19-7.64h.25l.48,1.45Z"/><path class="cls-7" d="M182.26,618.72v16.63l20,11.09c-37.23,33.25-60.14,0-60.14,0l20.05-11.09V618.72"/><path class="cls-7" d="M247.58,801.61s14.89,17.09,13.3,18.06c0,0,1,4.29-3,0l-5-5.93.24,21.72s-2.2,3.54-2.56-.61l-.11-9.9v-1l-.49,13.43a1.84,1.84,0,0,1-2.57-.61c-1-1.59.49-13.43.49-13.43l-1.46,11.84a1.82,1.82,0,0,1-2.56-.61c-1-1.59,1.46-11.84,1.46-11.84l-1-1.58-2.37,5.79s-2.88.17-1.84-1.84l1.16-19.57Z"/><polygon class="cls-8" points="205.17 806.47 128.69 799.62 113.71 985.3 155.66 985.3 160.24 886.27 162.67 887.81 160.24 985.3 195.94 985.3 205.17 806.47"/><ellipse class="cls-9" cx="165.21" cy="833.27" rx="2.49" ry="3.09"/><ellipse class="cls-9" cx="165.21" cy="844.3" rx="2.49" ry="3.09"/><path class="cls-9" d="M168.82,830.18s2.87,34.23-6.48,27.89V862s9.28,7.18,9.48-30.84Z"/><polygon class="cls-10" points="119.36 983.89 121.94 984.13 132.22 814.15 129.64 813.91 119.36 983.89"/><polygon class="cls-10" points="125.79 983.89 128.37 984.13 138.66 814.15 136.07 813.91 125.79 983.89"/><path d="M119.09,982.53s-24.68-4.07-26.14,7.7L91.5,1002h62.12L153,982.53Z"/><path d="M197.82,982.53s24.69-4.07,26.14,7.7l1.45,11.77H163.29l.66-19.47Z"/><circle class="cls-7" cx="170.47" cy="580.67" r="45.44"/><rect x="138.32" y="564.02" width="21.12" height="3.22" rx="1.58" ry="1.58" transform="translate(297.77 1131.26) rotate(180)"/><path class="cls-6" d="M170.47,583.41l.45.77c1,1.71,3.61,5.76,5.75,6.82h-6.2"/><path class="cls-12" d="M208.26,555.87s5.88-39.59-17.92-43.87H151.82s-16.58.54-21.4,19.26v24.61Z"/><path class="cls-13" d="M169.66,508.39s2.69-.27,2.56,2.88H166.4S166.17,508.19,169.66,508.39Z"/><path class="cls-13" d="M130.42,545.9H96.12s.13,9,8.09,9.63l26.21.34Z"/><path class="cls-13" d="M208.77,540.67s-6.53-2-8.94,4v11.17l8.43-.34Z"/><polygon class="cls-14" points="208.35 553.33 199.83 553.33 199.83 555.87 208.26 555.87 208.35 553.33"/><rect x="177.56" y="564.02" width="21.12" height="3.22" rx="1.58" ry="1.58" transform="translate(376.25 1131.26) rotate(180)"/><path class="cls-16" d="M142.34,645.47s17.77,33.8,60.22,0c0,0,44.43-8,40.48,24.85L253.9,805.51l-15.8,4L220.33,688.21s0-16.9-11.84-12.92l-3,130.22-75-6,2-119.29s-12.83-6-12.83,8L113.71,731s-2,7.95,5.93,7l31.59-4,1,16.9-38.51,4S90,758.79,95.94,727l9.87-51.69S108.78,644.47,142.34,645.47Z"/><path class="cls-17" d="M159.26,726.29a.9.9,0,0,0,.46,1.09.93.93,0,0,0,.39.75s-.26,1.09.2,1.55a16.05,16.05,0,0,0,.66,3.57l.79,7s.26,2.65.72,2.94a10.2,10.2,0,0,0,.47,3.22s-.07,3,.79,3.68v1.16s.52,1.95,10.2,1.43c0,0,6.78-.11,5.53-2.82,0,0,.66-.46.86-6.33,0,0,.33-.11.85-7,0,0,.4-.75.46-3.91,0,0,.27-.17.14-.75,0,0,.52,0,.39-2.47,0,0,.4.34.27-1.5a1,1,0,0,0,.32-.81s.47.06.4-.8Z"/><ellipse class="cls-18" cx="171.21" cy="726.34" rx="12.01" ry="1.75"/><path class="cls-7" d="M159.53,736.62l2,.3,19.47,3s3.14,2.74-1,2.43l-9.79-1.49-.95-.14,13.17,2.65a1.82,1.82,0,0,1-1,2.43c-1.72.71-13.17-2.65-13.17-2.65l11.45,3.36a1.82,1.82,0,0,1-1,2.43c-1.72.7-11.44-3.36-11.44-3.36l-1.72.71,5.33,3.26s-.3,2.88-2.11,1.53l-19.13-4.3-2.83-6.89s7.74-4.8,13.59-7.87h.26l.49,1.49Z"/><path class="cls-26" d="M144.81,576.28s8.35-5.57,15.3,0A13.1,13.1,0,0,1,144.81,576.28Z"/><line class="cls-27" x1="145.24" y1="576.28" x2="159.7" y2="576.28"/><path class="cls-26" d="M180.35,575.29s8.35-5.56,15.3,0A13.1,13.1,0,0,1,180.35,575.29Z"/><line class="cls-27" x1="180.78" y1="575.29" x2="195.24" y2="575.29"/><rect class="cls-15" x="155.18" y="602.17" width="36.53" height="2.96" rx="1.45" ry="1.45"/><path class="cls-7" d="M507.32,623.24v16.44l-19.81,11c36.79,32.87,59.43,0,59.43,0l-19.81-11V623.24"/><path class="cls-7" d="M442.76,804s-14.71,16.88-13.14,17.84c0,0-1,4.24,3-.05l5-5.86-.24,21.47s2.17,3.5,2.53-.6L440,827v-1l.48,13.27a1.82,1.82,0,0,0,2.54-.6c1-1.57-.49-13.27-.49-13.27l1.45,11.7a1.8,1.8,0,0,0,2.53-.61c1-1.56-1.45-11.69-1.45-11.69l1-1.57,2.33,5.72s2.85.17,1.83-1.81L449,807.83Z"/><polygon class="cls-8" points="484.68 808.78 560.25 802 575.05 985.49 533.6 985.49 529.07 887.63 526.67 889.16 529.07 985.49 493.79 985.49 484.68 808.78"/><ellipse class="cls-9" cx="524.16" cy="835.26" rx="2.46" ry="3.06"/><ellipse class="cls-9" cx="524.16" cy="846.16" rx="2.46" ry="3.06"/><path class="cls-9" d="M520.59,832.2S517.75,866,527,859.77v3.84s-9.17,7.1-9.37-30.47Z"/><polygon class="cls-10" points="569.47 984.1 566.92 984.34 556.76 816.36 559.31 816.13 569.47 984.1"/><polygon class="cls-10" points="563.12 984.1 560.56 984.34 550.4 816.36 552.96 816.13 563.12 984.1"/><path d="M569.74,982.76s24.39-4,25.82,7.61L597,1002H535.62l.64-19.24Z"/><path d="M491.93,982.76s-24.39-4-25.82,7.61L464.67,1002h61.38l-.64-19.24Z"/><circle class="cls-7" cx="518.96" cy="585.64" r="44.9"/><path class="cls-10" d="M519.9,586.33s-1.23-14.57,12.16-8.22C532.06,578.11,532.69,589.1,519.9,586.33Z"/><circle class="cls-11" cx="525.78" cy="581.02" r="4.25"/><rect x="520.1" y="569.19" width="20.87" height="3.18" rx="1.59" ry="1.59"/><path class="cls-6" d="M509,588.66s-.16.29-.44.76c-1,1.69-3.57,5.69-5.68,6.74H509"/><path class="cls-12" d="M481.62,561.13s-5.81-39.12,17.71-43.35h38.06s16.39.53,21.15,19v24.32Z"/><path class="cls-13" d="M519.76,514.22s-2.65-.27-2.52,2.84H523S523.21,514,519.76,514.22Z"/><path class="cls-13" d="M558.54,551.29h33.9s-.14,8.85-8,9.51l-25.9.33Z"/><path class="cls-13" d="M481.12,546.12s6.45-2,8.83,4v11l-8.33-.33Z"/><polygon class="cls-14" points="481.54 558.62 489.95 558.62 489.95 561.13 481.62 561.13 481.54 558.62"/><path class="cls-10" d="M488.66,577.38s11.27-9.33,13.69,5.3C502.35,582.68,493.68,589.46,488.66,577.38Z"/><circle class="cls-11" cx="496.37" cy="579.18" r="4.25"/><rect x="486.2" y="569.19" width="20.87" height="3.18" rx="1.59" ry="1.59"/><path class="cls-16" d="M546.76,649.68s-17.56,33.39-59.51,0c0,0-43.9-7.86-40,24.55l-10.73,133.6,15.61,3.93,17.56-119.84s0-16.7,11.7-12.77l2.93,128.68,74.15-5.89-2-117.88s12.69-5.9,12.69,7.86l5.85,42.24s2,7.85-5.85,6.87L538,737.1l-1,16.7,38,3.93s23.42,3.93,17.56-27.5l-9.75-51.08S579.93,648.69,546.76,649.68Z"/><path class="cls-17" d="M530,729.54a.89.89,0,0,1-.45,1.08.92.92,0,0,1-.39.74s.26,1.08-.2,1.54a15.5,15.5,0,0,1-.65,3.52l-.78,6.88s-.26,2.62-.72,2.9a10,10,0,0,1-.45,3.19s.06,3-.78,3.64v1.13s-.52,1.94-10.09,1.43c0,0-6.7-.12-5.46-2.79,0,0-.65-.46-.85-6.26,0,0-.32-.11-.84-6.88,0,0-.39-.74-.46-3.86,0,0-.26-.17-.13-.74,0,0-.52,0-.39-2.45,0,0-.39.34-.26-1.48a1,1,0,0,1-.33-.79s-.45,0-.39-.8Z"/><ellipse class="cls-18" cx="518.23" cy="729.59" rx="11.86" ry="1.73"/><path class="cls-7" d="M529.78,739.75l-2,.3L508.55,743s-3.1,2.71,1,2.41l9.67-1.47.94-.15-13,2.62a1.8,1.8,0,0,0,1,2.4c1.7.7,13-2.61,13-2.61l-11.31,3.31a1.8,1.8,0,0,0,1,2.4c1.7.7,11.31-3.31,11.31-3.31l1.7.7-5.27,3.22s.29,2.84,2.08,1.51l18.91-4.25,2.8-6.81s-7.66-4.74-13.44-7.78h-.25l-.49,1.48Z"/><ellipse class="cls-15" cx="508.52" cy="613.72" rx="5.37" ry="8.78"/><path class="cls-7" d="M851.39,623.08v16.44l-19.58,11c36.35,32.88,58.72,0,58.72,0l-19.57-11V623.08"/><path class="cls-7" d="M787.6,803.89s-14.53,16.89-13,17.86c0,0-1,4.24,3,0l4.89-5.86-.23,21.47s2.14,3.5,2.5-.6l.1-9.79V826l.48,13.27a1.78,1.78,0,0,0,2.51-.6c.95-1.57-.48-13.27-.48-13.27l1.43,11.7a1.77,1.77,0,0,0,2.5-.61c1-1.56-1.43-11.7-1.43-11.7l1-1.57,2.31,5.73s2.81.17,1.8-1.81l-1.13-19.36Z"/><polygon class="cls-8" points="829.02 808.7 903.69 801.92 918.31 985.49 877.36 985.49 872.88 887.58 870.51 889.11 872.88 985.49 838.02 985.49 829.02 808.7"/><ellipse class="cls-9" cx="868.03" cy="835.19" rx="2.43" ry="3.06"/><ellipse class="cls-9" cx="868.03" cy="846.09" rx="2.43" ry="3.06"/><path class="cls-9" d="M864.51,832.13s-2.81,33.84,6.33,27.58v3.84s-9.07,7.11-9.26-30.48Z"/><polygon class="cls-10" points="912.8 984.1 910.28 984.33 900.24 816.29 902.76 816.05 912.8 984.1"/><polygon class="cls-10" points="906.52 984.1 904 984.33 893.96 816.29 896.48 816.05 906.52 984.1"/><path d="M913.06,982.75s24.1-4,25.52,7.61L940,1002H879.35l.64-19.25Z"/><path d="M836.19,982.75s-24.1-4-25.52,7.61L809.25,1002H869.9l-.64-19.25Z"/><ellipse class="cls-7" cx="862.89" cy="585.46" rx="44.37" ry="44.92"/><path class="cls-10" d="M867.68,586.16s-1.22-14.59,12-8.23C879.69,577.93,880.31,588.92,867.68,586.16Z"/><ellipse class="cls-11" cx="873.49" cy="580.85" rx="4.2" ry="4.25"/><rect x="868.84" y="572.91" width="20.63" height="3.18" rx="1.57" ry="1.57"/><path class="cls-6" d="M856,588.49l-.43.76c-1,1.68-3.53,5.69-5.62,6.73H856"/><path class="cls-12" d="M826,561s-5.75-39.14,17.5-43.37h37.6s16.2.53,20.9,19V561Z"/><path class="cls-13" d="M863.68,514s-2.62-.27-2.49,2.84h5.68S867.09,513.81,863.68,514Z"/><path class="cls-13" d="M902,551.1h33.49s-.13,8.85-7.9,9.51L902,561Z"/><path class="cls-13" d="M825.5,545.92s6.38-2,8.73,4v11l-8.23-.34Z"/><polygon class="cls-14" points="825.91 558.43 834.23 558.43 834.23 560.95 826 560.95 825.91 558.43"/><path class="cls-10" d="M833,577.2s11.14-9.33,13.53,5.31C846.48,582.51,837.92,589.29,833,577.2Z"/><ellipse class="cls-11" cx="840.57" cy="579" rx="4.2" ry="4.25"/><rect x="831.49" y="570.96" width="20.63" height="3.18" rx="1.57" ry="1.57"/><path class="cls-16" d="M890.36,649.53s-17.35,33.41-58.8,0c0,0-43.38-7.87-39.52,24.57L781.43,807.75l15.43,3.93,17.35-119.9s0-16.7,11.57-12.77l2.89,128.74,73.26-5.9L900,683.92s12.53-5.89,12.53,7.86L918.31,734s1.93,7.86-5.78,6.88L881.68,737l-1,16.71,37.59,3.93s23.14,3.93,17.35-27.52L926,679S923.13,648.54,890.36,649.53Z"/><path class="cls-17" d="M873.84,729.43a.89.89,0,0,1-.45,1.08.93.93,0,0,1-.38.74s.25,1.08-.2,1.53a15.53,15.53,0,0,1-.64,3.53l-.77,6.88s-.26,2.62-.71,2.9a10,10,0,0,1-.45,3.19s.07,3-.77,3.64v1.14s-.51,1.93-10,1.42c0,0-6.63-.11-5.4-2.79,0,0-.65-.45-.84-6.25,0,0-.32-.12-.84-6.89,0,0-.38-.74-.45-3.87,0,0-.25-.17-.12-.74,0,0-.52,0-.39-2.44,0,0-.39.34-.26-1.48a1,1,0,0,1-.32-.8s-.45.06-.38-.79Z"/><ellipse class="cls-18" cx="862.17" cy="729.47" rx="11.72" ry="1.73"/><path class="cls-7" d="M873.58,739.64l-2,.3-19,2.92s-3.06,2.71,1,2.41l9.56-1.47.93-.15-12.86,2.62a1.81,1.81,0,0,0,1,2.4c1.68.7,12.86-2.61,12.86-2.61l-11.18,3.31a1.82,1.82,0,0,0,1,2.41c1.69.7,11.18-3.32,11.18-3.32l1.68.7-5.21,3.23s.29,2.84,2.06,1.51l18.68-4.25,2.77-6.82s-7.56-4.74-13.27-7.78h-.26l-.48,1.48Z"/><path class="cls-15" d="M874.68,616.78a12.12,12.12,0,0,0,10.16-5.68s1.69,6.59-2.75,7A12.68,12.68,0,0,1,874.68,616.78Z"/><rect class="cls-28" x="1053" y="502" width="350" height="500"/><path class="cls-7" d="M1206.78,623.08v16.44l-19.82,11c36.81,32.88,59.46,0,59.46,0l-19.82-11V623.08"/><polygon class="cls-8" points="1184.13 808.7 1259.74 801.92 1274.54 985.49 1233.08 985.49 1228.54 887.58 1226.14 889.11 1228.54 985.49 1193.25 985.49 1184.13 808.7"/><ellipse class="cls-9" cx="1223.63" cy="835.19" rx="2.46" ry="3.06"/><ellipse class="cls-9" cx="1223.63" cy="846.09" rx="2.46" ry="3.06"/><path class="cls-9" d="M1220.06,832.13s-2.84,33.84,6.41,27.58v3.84s-9.18,7.11-9.37-30.48Z"/><polygon class="cls-10" points="1268.96 984.1 1266.41 984.33 1256.24 816.29 1258.8 816.05 1268.96 984.1"/><polygon class="cls-10" points="1262.6 984.1 1260.05 984.33 1249.88 816.29 1252.44 816.05 1262.6 984.1"/><path d="M1269.23,982.75s24.4-4,25.84,7.61l1.43,11.64h-61.41l.65-19.25Z"/><path d="M1191.39,982.75s-24.4-4-25.84,7.61l-1.43,11.64h61.41l-.65-19.25Z"/><circle class="cls-7" cx="1218.43" cy="585.46" r="44.92"/><path class="cls-10" d="M1223.27,586.16s-1.23-14.59,12.17-8.23C1235.44,577.93,1236.07,588.92,1223.27,586.16Z"/><circle class="cls-11" cx="1229.16" cy="580.85" r="4.25"/><rect x="1224.45" y="572.91" width="20.88" height="3.18" rx="1.59" ry="1.59"/><path class="cls-6" d="M1211.4,588.49s-.16.29-.44.76c-1,1.68-3.57,5.69-5.68,6.73h6.12"/><path class="cls-12" d="M1181.07,561s-5.81-39.14,17.72-43.37h38.08s16.39.53,21.15,19V561Z"/><path class="cls-13" d="M1219.23,514s-2.66-.27-2.52,2.84h5.75S1222.68,513.81,1219.23,514Z"/><path class="cls-13" d="M1258,551.1h33.92s-.14,8.85-8,9.51L1258,561Z"/><path class="cls-13" d="M1180.57,545.92s6.45-2,8.83,4v11l-8.33-.34Z"/><polygon class="cls-14" points="1180.99 558.43 1189.4 558.43 1189.4 560.95 1181.07 560.95 1180.99 558.43"/><path class="cls-10" d="M1188.12,577.2s11.27-9.33,13.69,5.31C1201.81,582.51,1193.14,589.29,1188.12,577.2Z"/><circle class="cls-11" cx="1195.83" cy="579" r="4.25"/><rect x="1186.63" y="570.96" width="20.88" height="3.18" rx="1.59" ry="1.59"/><path class="cls-16" d="M1180.85,679.2l2.28,101.1,0,2.12.6,26.33,74.17-5.93-2-118.68s12.69-5.93,12.69,7.92l5.85,42.52s2,7.91-5.85,6.92l-31.23-4-1,16.81,38.06,4s23.43,3.95,17.57-27.69l-9.76-51.43s-2.93-30.66-36.11-29.67c0,0-17.57,33.63-59.54,0,0,0-43.92-7.91-40,24.73l12,94.25,14.64,34.38,14.64-8.84-.54-1.52-10.2-28.93-6.83-84.47Z"/><path class="cls-17" d="M1229.52,729.43a.89.89,0,0,1-.46,1.08.92.92,0,0,1-.39.74s.26,1.08-.2,1.53a15.66,15.66,0,0,1-.65,3.53l-.78,6.88s-.26,2.62-.71,2.9a10.19,10.19,0,0,1-.46,3.19s.07,3-.78,3.64v1.14s-.52,1.93-10.09,1.42c0,0-6.7-.11-5.47-2.79,0,0-.65-.45-.84-6.25,0,0-.33-.12-.85-6.89,0,0-.39-.74-.46-3.87,0,0-.26-.17-.13-.74,0,0-.52,0-.39-2.44,0,0-.39.34-.26-1.48a1,1,0,0,1-.32-.8s-.46.06-.39-.79Z"/><ellipse class="cls-18" cx="1217.7" cy="729.47" rx="11.87" ry="1.73"/><path class="cls-7" d="M1229.25,739.64l-2,.3L1208,742.86s-3.1,2.71,1,2.41l9.68-1.47.94-.15-13,2.62a1.8,1.8,0,0,0,1,2.4c1.71.7,13-2.61,13-2.61l-11.31,3.31a1.81,1.81,0,0,0,1,2.41c1.7.7,11.32-3.32,11.32-3.32l1.7.7-5.28,3.23s.3,2.84,2.09,1.51l18.92-4.25,2.79-6.82s-7.65-4.74-13.43-7.78h-.26l-.48,1.48Z"/><path class="cls-15" d="M1230.37,616.78a12.32,12.32,0,0,0,10.28-5.68s1.71,6.59-2.79,7A12.92,12.92,0,0,1,1230.37,616.78Z"/><path class="cls-7" d="M1184,810.34l1.51,7.52c.89,5.8-1.82,2.39-1.82,2.39-1.73.63-5.83-21.4-5.83-21.4l6.92-2.52,15.88,11.12"/><polygon class="cls-16" points="1171.25 797.98 1173.34 802.9 1187.98 794.11 1186.58 790.08 1171.25 797.98"/><path class="cls-7" d="M1545.56,624.19v16.3l-19.66,10.87c36.51,32.61,59,0,59,0l-19.65-10.87v-16.3"/><polygon class="cls-8" points="1523.09 808.28 1598.08 801.56 1612.77 983.62 1571.64 983.62 1567.14 886.52 1564.76 888.04 1567.14 983.62 1532.14 983.62 1523.09 808.28"/><ellipse class="cls-9" cx="1562.27" cy="834.56" rx="2.44" ry="3.03"/><ellipse class="cls-9" cx="1562.27" cy="845.37" rx="2.44" ry="3.03"/><path class="cls-9" d="M1558.73,831.52s-2.81,33.57,6.36,27.36v3.81s-9.1,7-9.29-30.24Z"/><polygon class="cls-10" points="1607.23 982.24 1604.7 982.48 1594.62 815.81 1597.15 815.57 1607.23 982.24"/><polygon class="cls-10" points="1600.92 982.24 1598.39 982.48 1588.31 815.81 1590.84 815.57 1600.92 982.24"/><path d="M1607.49,980.91s24.21-4,25.63,7.55l1.43,11.54h-60.91l.64-19.09Z"/><path d="M1530.3,980.91s-24.21-4-25.63,7.55l-1.42,11.54h60.9l-.64-19.09Z"/><circle class="cls-7" cx="1557.11" cy="586.88" r="44.55"/><path class="cls-10" d="M1561.92,587.56s-1.23-14.46,12.07-8.15C1574,579.41,1574.61,590.31,1561.92,587.56Z"/><circle class="cls-11" cx="1567.75" cy="582.3" r="4.22"/><rect x="1563.08" y="574.43" width="20.71" height="3.15" rx="1.58" ry="1.58"/><path class="cls-6" d="M1550.14,589.88s-.16.29-.43.75c-1,1.67-3.54,5.64-5.64,6.68h6.07"/><path class="cls-12" d="M1520.06,562.56s-5.77-38.81,17.58-43h37.76s16.26.52,21,18.88v24.13Z"/><path class="cls-13" d="M1557.91,516s-2.64-.26-2.51,2.82h5.71S1561.33,515.81,1557.91,516Z"/><path class="cls-13" d="M1596.38,552.79H1630s-.13,8.79-7.94,9.44l-25.7.33Z"/><path class="cls-13" d="M1519.56,547.66s6.41-1.95,8.77,4v10.95l-8.27-.33Z"/><polygon class="cls-14" points="1519.98 560.07 1528.33 560.07 1528.33 562.56 1520.06 562.56 1519.98 560.07"/><path class="cls-10" d="M1527.05,578.68s11.18-9.25,13.58,5.26C1540.63,583.94,1532,590.67,1527.05,578.68Z"/><circle class="cls-11" cx="1534.7" cy="580.47" r="4.22"/><rect x="1525.58" y="572.49" width="20.71" height="3.15" rx="1.58" ry="1.58"/><path class="cls-15" d="M1569,617.94a12.24,12.24,0,0,0,10.2-5.64s1.7,6.54-2.76,7A12.91,12.91,0,0,1,1569,617.94Z"/><path class="cls-7" d="M1468.08,741.85s-13.83-17.39-15-16c0,0-4-1.73-.49,2.94l4.82,5.89-20.9-4.1s-3.8,1.49.13,2.58l9.53,1.87.92.18-13-1.92a1.79,1.79,0,0,0,.14,2.58c1.35,1.23,13,1.92,13,1.92l-11.68-.69a1.79,1.79,0,0,0,.14,2.58c1.35,1.22,11.67.69,11.67.69l1.36,1.22-6,1.25s-.67,2.75,1.44,2.11l19.09,2.36Z"/><path class="cls-16" d="M1519.84,679.85l2.27,100.27,0,2.1.59,26.12,73.57-5.89-1.93-117.7s12.58-5.88,12.58,7.85l5.81,42.17s1.93,7.85-5.81,6.87l-31-3.92-1,16.67,37.75,3.92s23.23,3.93,17.42-27.46l-9.68-51s-2.9-30.41-35.81-29.43c0,0-17.43,33.35-59,0,0,0-22-3.74-27.78,5.94L1489.16,698l-2.9,18.4-6.78,18.39h-23.23v16.45h23.23s16.46,1,20.33-2.9Z"/><path class="cls-17" d="M1579.73,732.56a.9.9,0,0,1-.46,1.08.92.92,0,0,1-.38.73s.25,1.07-.2,1.52a15.81,15.81,0,0,1-.64,3.5l-.78,6.83s-.26,2.59-.71,2.88a9.85,9.85,0,0,1-.45,3.16s.06,2.93-.77,3.61V757s-.52,1.91-10,1.41c0,0-6.65-.12-5.42-2.77,0,0-.65-.45-.84-6.2,0,0-.33-.12-.84-6.83,0,0-.39-.74-.46-3.84,0,0-.25-.17-.12-.73,0,0-.52,0-.39-2.43,0,0-.39.34-.26-1.47a1,1,0,0,1-.32-.79s-.45.06-.39-.79Z"/><ellipse class="cls-18" cx="1568.01" cy="732.61" rx="11.77" ry="1.72"/><path class="cls-7" d="M1579.46,742.69l-2,.3-19.1,2.9s-3.07,2.69,1,2.39l9.6-1.46.93-.14L1557,749.27a1.78,1.78,0,0,0,1,2.38c1.69.7,12.91-2.59,12.91-2.59l-11.22,3.29a1.79,1.79,0,0,0,1,2.38c1.69.7,11.22-3.29,11.22-3.29l1.69.7-5.23,3.2s.29,2.81,2.07,1.49l18.76-4.21,2.77-6.76s-7.59-4.71-13.33-7.72h-.25l-.48,1.47Z"/><rect class="cls-29" x="1438.9" y="719.93" width="19.43" height="24.42" rx="0.76" ry="0.76" transform="translate(-160.59 520.04) rotate(-19.3)"/><path class="cls-30" d="M1462.91,743.5l-4.67-15.45-4.31-12.57c-1.79-4-5.74-1.8-5.74-1.8l-11.14,4c-5,1.08-2.88,5.39-2.88,5.39l9.34,27a3.9,3.9,0,0,0,5,1.79l12.23-4.67,1.36-.51-.65-1.64"/><path class="cls-31" d="M1437.05,717.63l1.44,3.6,9,24.43,4.47,4.81-3.4,1.29a3.9,3.9,0,0,1-5-1.79l-9.34-27S1432,718.71,1437.05,717.63Z"/><rect class="cls-32" x="1442.44" y="717.99" width="3.59" height="0.72" rx="0.36" ry="0.36" transform="translate(-146.64 451.98) rotate(-16.94)"/><circle class="cls-32" cx="1454.11" cy="746.55" r="1.26"/><path class="cls-30" d="M1458.24,728.05l5.19,14,.21.56s1.57,2.92-1.92,4.12Z"/><rect class="cls-33" x="1439.47" y="720.33" width="18.12" height="23.38" transform="translate(-160.55 520.01) rotate(-19.3)"/><path class="cls-7" d="M1460.73,734.43l-3.51,2.27s-1.94,0-1-2.27l3.68-2.57Z"/><rect class="cls-34" x="3" y="1002" width="350" height="500"/><rect class="cls-35" x="353" y="1002" width="350" height="500"/><rect class="cls-36" x="703" y="1002" width="350" height="500"/><rect class="cls-37" x="1053" y="1002" width="350" height="500"/><rect class="cls-38" x="1403" y="1002" width="350" height="500"/><rect class="cls-39" x="1753" y="1002" width="350" height="500"/><path class="cls-7" d="M160.56,1126.19v16.3l-19.66,10.87c36.51,32.61,59,0,59,0l-19.65-10.87v-16.3"/><polygon class="cls-8" points="138.09 1310.28 213.08 1303.56 227.77 1485.62 186.64 1485.62 182.14 1388.52 179.76 1390.04 182.14 1485.62 147.14 1485.62 138.09 1310.28"/><ellipse class="cls-9" cx="177.27" cy="1336.56" rx="2.44" ry="3.03"/><ellipse class="cls-9" cx="177.27" cy="1347.37" rx="2.44" ry="3.03"/><path class="cls-9" d="M173.73,1333.52s-2.81,33.57,6.36,27.36v3.81s-9.1,7-9.29-30.24Z"/><polygon class="cls-10" points="222.23 1484.24 219.7 1484.48 209.62 1317.81 212.15 1317.57 222.23 1484.24"/><polygon class="cls-10" points="215.93 1484.24 213.39 1484.48 203.31 1317.81 205.84 1317.57 215.93 1484.24"/><path d="M222.49,1482.91s24.21-4,25.63,7.55l1.43,11.54H188.64l.64-19.09Z"/><path d="M145.3,1482.91s-24.21-4-25.63,7.55L118.25,1502h60.9l-.64-19.09Z"/><circle class="cls-7" cx="172.11" cy="1088.88" r="44.55"/><path class="cls-10" d="M176.92,1089.56s-1.23-14.46,12.07-8.15C189,1081.41,189.61,1092.31,176.92,1089.56Z"/><circle class="cls-11" cx="182.75" cy="1084.3" r="4.22"/><rect x="178.08" y="1076.43" width="20.71" height="3.15" rx="1.58" ry="1.58"/><path class="cls-6" d="M165.14,1091.88s-.16.29-.43.75c-1,1.67-3.54,5.64-5.64,6.68h6.07"/><path class="cls-12" d="M135.06,1064.56s-5.77-38.81,17.58-43H190.4s16.26.52,21,18.88v24.13Z"/><path class="cls-13" d="M172.91,1018s-2.64-.26-2.51,2.82h5.71S176.33,1017.81,172.91,1018Z"/><path class="cls-13" d="M211.38,1054.79H245s-.13,8.79-7.94,9.44l-25.7.33Z"/><path class="cls-13" d="M134.56,1049.66s6.41-2,8.77,3.95v11l-8.27-.33Z"/><polygon class="cls-14" points="134.98 1062.07 143.33 1062.07 143.33 1064.56 135.06 1064.56 134.98 1062.07"/><path class="cls-10" d="M142.05,1080.68s11.18-9.25,13.58,5.26C155.63,1085.94,147,1092.67,142.05,1080.68Z"/><circle class="cls-11" cx="149.7" cy="1082.47" r="4.22"/><rect x="140.58" y="1074.49" width="20.71" height="3.15" rx="1.58" ry="1.58"/><path class="cls-15" d="M184,1119.94a12.24,12.24,0,0,0,10.2-5.64s1.7,6.54-2.76,7A12.91,12.91,0,0,1,184,1119.94Z"/><path class="cls-7" d="M83.37,1195.64s-6.34-21.3-8-20.5c0,0-3-3.08-1.55,2.55l2.28,7.26-17.86-11.6s-4.09,0-.84,2.44l8.14,5.29.79.51L55,1175a1.8,1.8,0,0,0-.84,2.45c.81,1.64,11.38,6.64,11.38,6.64l-10.57-5a1.79,1.79,0,0,0-.84,2.44c.8,1.64,10.57,5,10.57,5l.8,1.64-6-1.08s-1.65,2.3.56,2.49l16.82,9.31Z"/><path class="cls-16" d="M121.46,1227.57l13.38-45.72,2.27,100.27,0,2.1.59,26.12,73.57-5.89-1.93-117.7s12.58-5.88,12.58,7.85l5.81,42.17s1.93,7.85-5.81,6.87l-31-3.92-1,16.67,37.75,3.92s23.23,3.93,17.42-27.46l-9.68-51s-2.9-30.41-35.81-29.43c0,0-17.43,33.35-59,0,0,0-22-3.74-27.78,5.94L104.16,1200l-2.9,18.4L82,1189l-13,8,15,29S101.93,1257.14,121.46,1227.57Z"/><path class="cls-17" d="M194.73,1234.56a.9.9,0,0,1-.46,1.08.92.92,0,0,1-.38.73s.25,1.07-.2,1.52a15.81,15.81,0,0,1-.64,3.5l-.78,6.83s-.26,2.59-.71,2.88a9.85,9.85,0,0,1-.45,3.16s.06,2.93-.77,3.61V1259s-.52,1.91-10,1.41c0,0-6.65-.12-5.42-2.77,0,0-.65-.45-.84-6.2,0,0-.33-.12-.84-6.83,0,0-.39-.74-.46-3.84,0,0-.25-.17-.12-.73,0,0-.52,0-.39-2.43,0,0-.39.34-.26-1.47a1,1,0,0,1-.32-.79s-.45.06-.39-.79Z"/><ellipse class="cls-18" cx="183.01" cy="1234.61" rx="11.77" ry="1.72"/><path class="cls-7" d="M194.46,1244.69l-2,.3-19.1,2.9s-3.07,2.69,1,2.39l9.6-1.46.93-.14L172,1251.27a1.78,1.78,0,0,0,1,2.38c1.69.7,12.91-2.59,12.91-2.59l-11.22,3.29a1.79,1.79,0,0,0,1,2.38c1.69.7,11.22-3.29,11.22-3.29l1.69.7-5.23,3.2s.29,2.81,2.07,1.49l18.76-4.21,2.77-6.76s-7.59-4.71-13.33-7.72h-.25l-.48,1.47Z"/><path class="cls-30" d="M80.05,1194l-2-16-2.12-13.12c-1.1-4.2-5.36-2.74-5.36-2.74l-11.64,2c-5.14.21-3.75,4.82-3.75,4.82l4.64,28.14a3.9,3.9,0,0,0,4.65,2.62l12.85-2.53,1.42-.28-.36-1.73"/><path class="cls-31" d="M58.94,1164.09l.8,3.78,4.72,25.6,3.59,5.5-3.57.7a3.9,3.9,0,0,1-4.65-2.62l-4.64-28.14S53.8,1164.3,58.94,1164.09Z"/><rect class="cls-32" x="64.1" y="1165.65" width="3.59" height="0.72" rx="0.36" ry="0.36" transform="matrix(0.99, -0.13, 0.13, 0.99, -145.31, 17.4)"/><circle class="cls-32" cx="70.85" cy="1195.48" r="1.26"/><path class="cls-30" d="M78.06,1177.94l2.74,14.68.11.59s1,3.14-2.58,3.74Z"/><rect class="cls-29" x="58.16" y="1168.14" width="19.43" height="24.42" rx="0.76" ry="0.76" transform="translate(-194.86 27.61) rotate(-9.55)"/><rect class="cls-33" x="58.76" y="1168.52" width="18.12" height="23.38" transform="translate(-194.83 27.6) rotate(-9.55)"/><rect class="cls-40" x="63.32" y="1176.63" width="8.96" height="6.95" rx="1.67" ry="1.67" transform="translate(-200.56 28.92) rotate(-9.83)"/><circle class="cls-41" cx="67.79" cy="1179.99" r="2.02"/><circle class="cls-42" cx="67.79" cy="1179.99" r="1.34"/><rect class="cls-40" x="64.44" y="1175.65" width="1.79" height="1.34" transform="translate(-199.95 28.44) rotate(-9.83)"/><path class="cls-7" d="M79.43,1184.65l-3.85,1.65s-1.91-.33-.57-2.41l4.06-1.9Z"/><line class="cls-16" x1="441" y1="1149" x2="422" y2="1155"/><path class="cls-7" d="M513.56,1125.19v16.3l-19.66,10.87c36.51,32.61,59,0,59,0l-19.65-10.87v-16.3"/><path class="cls-7" d="M437.93,1157.86s-.42-22.21-2.21-21.88c0,0-2.1-3.78-2.18,2l.25,7.61-14.11-16s-3.92-1.13-1.46,2.13l6.43,7.27.63.71-9.19-9.44a1.79,1.79,0,0,0-1.46,2.13c.33,1.79,9.18,9.44,9.18,9.44l-8.85-7.65a1.8,1.8,0,0,0-1.46,2.13c.33,1.8,8.85,7.65,8.85,7.65l.34,1.79-5.53-2.66s-2.21,1.78-.14,2.55l13.72,13.48Z"/><path class="cls-30" d="M441.11,1150.9l-3.32-15.79-3.22-12.9c-1.45-4.09-5.57-2.28-5.57-2.28l-11.44,3c-5.1.64-3.32,5.12-3.32,5.12l7,27.65a3.9,3.9,0,0,0,4.85,2.22l12.59-3.6,1.4-.4-.51-1.69"/><path class="cls-31" d="M417.56,1122.91l1.13,3.7,6.84,25.11,4,5.18-3.49,1a3.9,3.9,0,0,1-4.85-2.22l-7-27.65S412.46,1123.55,417.56,1122.91Z"/><rect class="cls-32" x="422.86" y="1123.88" width="3.59" height="0.72" rx="0.36" ry="0.36" transform="translate(-224.63 112.96) rotate(-12.01)"/><circle class="cls-32" cx="432.08" cy="1153.19" r="1.26"/><path class="cls-30" d="M437.79,1135.11l4,14.39.16.58s1.31,3-2.26,3.94Z"/><rect class="cls-29" x="418.12" y="1126.15" width="19.43" height="24.42" rx="0.76" ry="0.76" transform="translate(-269.19 141.83) rotate(-14.37)"/><rect class="cls-33" x="418.71" y="1126.54" width="18.12" height="23.38" transform="translate(-269.16 141.81) rotate(-14.37)"/><rect class="cls-40" x="423.27" y="1134.65" width="8.96" height="6.95" rx="1.67" ry="1.67" transform="translate(-274.09 145.29) rotate(-14.66)"/><circle class="cls-41" cx="427.72" cy="1138.01" r="2.02"/><circle class="cls-42" cx="427.72" cy="1138.01" r="1.34"/><rect class="cls-40" x="424.07" y="1133.89" width="1.79" height="1.34" transform="translate(-273.28 144.47) rotate(-14.66)"/><path class="cls-7" d="M439.72,1141.68l-3.7,2s-1.93-.16-.77-2.35l3.88-2.24Z"/><polygon class="cls-8" points="491.09 1309.28 566.08 1302.56 580.77 1484.62 539.64 1484.62 535.14 1387.52 532.76 1389.04 535.14 1484.62 500.14 1484.62 491.09 1309.28"/><ellipse class="cls-9" cx="530.27" cy="1335.56" rx="2.44" ry="3.03"/><ellipse class="cls-9" cx="530.27" cy="1346.37" rx="2.44" ry="3.03"/><path class="cls-9" d="M526.73,1332.52s-2.81,33.57,6.36,27.36v3.81s-9.1,7-9.29-30.24Z"/><polygon class="cls-10" points="575.23 1483.24 572.7 1483.48 562.62 1316.81 565.15 1316.57 575.23 1483.24"/><polygon class="cls-10" points="568.92 1483.24 566.39 1483.48 556.31 1316.81 558.84 1316.57 568.92 1483.24"/><path d="M575.49,1481.91s24.21-4,25.63,7.55l1.43,11.54H541.64l.64-19.09Z"/><path d="M498.3,1481.91s-24.21-4-25.63,7.55L471.25,1501h60.9l-.64-19.09Z"/><path class="cls-16" d="M457.16,1199l8.71-41.62c5.81-9.68,27.78-5.94,27.78-5.94,41.62,33.35,59.05,0,59.05,0,32.91-1,35.81,29.43,35.81,29.43l9.68,51c5.81,31.39-17.42,27.46-17.42,27.46L543,1255.39l1-16.67,31,3.92c7.74,1,5.81-6.87,5.81-6.87L575,1193.6c0-13.73-12.58-7.85-12.58-7.85l1.93,117.7-73.57,5.89-.59-26.12,0-2.1-2.27-100.27-6,20.53c-11.44,30.19-31.05,19.18-38.16,13.84A30.66,30.66,0,0,1,441,1213c-3,0-15-55-15-55l14-4,13,45S455.32,1202,457.16,1199Z"/><path class="cls-17" d="M547.73,1233.56a.9.9,0,0,1-.46,1.08.92.92,0,0,1-.38.73s.25,1.07-.2,1.52a15.81,15.81,0,0,1-.64,3.5l-.78,6.83s-.26,2.59-.71,2.88a9.85,9.85,0,0,1-.45,3.16s.06,2.93-.77,3.61V1258s-.52,1.91-10,1.41c0,0-6.65-.12-5.42-2.77,0,0-.65-.45-.84-6.2,0,0-.33-.12-.84-6.83,0,0-.39-.74-.46-3.84,0,0-.25-.17-.12-.73,0,0-.52,0-.39-2.43,0,0-.39.34-.26-1.47a1,1,0,0,1-.32-.79s-.45.06-.39-.79Z"/><ellipse class="cls-18" cx="536.01" cy="1233.61" rx="11.77" ry="1.72"/><path class="cls-7" d="M547.46,1243.69l-2,.3-19.1,2.9s-3.07,2.69,1,2.39l9.6-1.46.93-.14L525,1250.27a1.78,1.78,0,0,0,1,2.38c1.69.7,12.91-2.59,12.91-2.59l-11.22,3.29a1.79,1.79,0,0,0,1,2.38c1.69.7,11.22-3.29,11.22-3.29l1.69.7-5.23,3.2s.29,2.81,2.07,1.49l18.76-4.21,2.77-6.76s-7.59-4.71-13.33-7.72h-.25l-.48,1.47Z"/><path class="cls-7" d="M916.56,1124.19v16.3l-19.66,10.87c36.51,32.61,59,0,59,0l-19.65-10.87v-16.3"/><circle class="cls-7" cx="928.11" cy="1086.88" r="44.55"/><path class="cls-10" d="M932.92,1085.56s-1.23-14.46,12.07-8.15C945,1077.41,945.61,1088.31,932.92,1085.56Z"/><circle class="cls-11" cx="938.75" cy="1080.3" r="4.22"/><rect x="933.08" y="1075.43" width="20.71" height="3.15" rx="1.58" ry="1.58"/><path class="cls-6" d="M921.14,1089.88s-.16.29-.43.75c-1,1.67-3.54,5.64-5.64,6.68h6.07"/><path class="cls-12" d="M891.06,1062.56s-5.77-38.81,17.58-43H946.4s16.26.52,21,18.88v24.13Z"/><path class="cls-13" d="M928.91,1016s-2.64-.26-2.51,2.82h5.71S932.33,1015.81,928.91,1016Z"/><path class="cls-13" d="M967.38,1052.79H1001s-.13,8.79-7.94,9.44l-25.7.33Z"/><path class="cls-13" d="M890.56,1047.66s6.41-2,8.77,3.95v11l-8.27-.33Z"/><polygon class="cls-14" points="890.98 1060.07 899.33 1060.07 899.33 1062.56 891.06 1062.56 890.98 1060.07"/><path class="cls-10" d="M898.94,1084.72s.08-14.52,12.75-7C911.69,1077.68,911.33,1088.59,898.94,1084.72Z"/><circle class="cls-11" cx="905.22" cy="1080" r="4.22"/><rect x="899.58" y="1074.49" width="20.71" height="3.15" rx="1.58" ry="1.58"/><path class="cls-15" d="M940,1117.94a12.24,12.24,0,0,0,10.2-5.64s1.7,6.54-2.76,7A12.91,12.91,0,0,1,940,1117.94Z"/><path class="cls-7" d="M840.93,1156.86s-.42-22.21-2.21-21.88c0,0-2.1-3.78-2.18,2l.25,7.61-14.11-16s-3.92-1.13-1.46,2.13l6.43,7.27.63.71-9.19-9.44a1.79,1.79,0,0,0-1.46,2.13c.33,1.79,9.18,9.44,9.18,9.44l-8.85-7.65a1.8,1.8,0,0,0-1.46,2.13c.33,1.8,8.85,7.65,8.85,7.65l.34,1.79-5.53-2.66s-2.21,1.78-.14,2.55l13.72,13.48Z"/><path class="cls-30" d="M844.11,1149.9l-3.32-15.79-3.22-12.9c-1.45-4.09-5.57-2.28-5.57-2.28l-11.44,3c-5.1.64-3.32,5.12-3.32,5.12l7,27.65a3.9,3.9,0,0,0,4.85,2.22l12.59-3.6,1.4-.4-.51-1.69"/><path class="cls-31" d="M820.56,1121.91l1.13,3.7,6.84,25.11,4,5.18-3.49,1a3.9,3.9,0,0,1-4.85-2.22l-7-27.65S815.46,1122.55,820.56,1121.91Z"/><rect class="cls-32" x="825.86" y="1122.88" width="3.59" height="0.72" rx="0.36" ry="0.36" transform="translate(-215.6 196.8) rotate(-12.01)"/><circle class="cls-32" cx="835.08" cy="1152.19" r="1.26"/><path class="cls-30" d="M840.79,1134.11l4,14.39.16.58s1.31,3-2.26,3.94Z"/><rect class="cls-29" x="821.12" y="1125.15" width="19.43" height="24.42" rx="0.76" ry="0.76" transform="translate(-256.33 241.84) rotate(-14.37)"/><rect class="cls-33" x="821.71" y="1125.54" width="18.12" height="23.38" transform="translate(-256.3 241.82) rotate(-14.37)"/><rect class="cls-40" x="826.27" y="1133.65" width="8.96" height="6.95" rx="1.67" ry="1.67" transform="translate(-260.72 247.24) rotate(-14.66)"/><circle class="cls-41" cx="830.72" cy="1137.01" r="2.02"/><circle class="cls-42" cx="830.72" cy="1137.01" r="1.34"/><rect class="cls-40" x="827.07" y="1132.89" width="1.79" height="1.34" transform="matrix(0.97, -0.25, 0.25, 0.97, -259.91, 246.42)"/><path class="cls-7" d="M842.72,1140.68l-3.7,2s-1.93-.16-.77-2.35l3.88-2.24Z"/><polygon class="cls-8" points="894.09 1308.28 969.08 1301.56 983.77 1483.62 942.64 1483.62 938.14 1386.52 935.76 1388.04 938.14 1483.62 903.14 1483.62 894.09 1308.28"/><ellipse class="cls-9" cx="933.27" cy="1334.56" rx="2.44" ry="3.03"/><ellipse class="cls-9" cx="933.27" cy="1345.37" rx="2.44" ry="3.03"/><path class="cls-9" d="M929.73,1331.52s-2.81,33.57,6.36,27.36v3.81s-9.1,7-9.29-30.24Z"/><polygon class="cls-10" points="978.23 1482.24 975.7 1482.48 965.62 1315.81 968.15 1315.57 978.23 1482.24"/><polygon class="cls-10" points="971.92 1482.24 969.39 1482.48 959.31 1315.81 961.84 1315.57 971.92 1482.24"/><path d="M978.49,1480.91s24.21-4,25.63,7.55l1.43,11.54H944.64l.64-19.09Z"/><path d="M901.3,1480.91s-24.21-4-25.63,7.55L874.25,1500h60.9l-.64-19.09Z"/><path class="cls-16" d="M860.16,1198l8.71-41.62c5.81-9.68,27.78-5.94,27.78-5.94,41.62,33.35,59.05,0,59.05,0,32.91-1,35.81,29.43,35.81,29.43l9.68,51c5.81,31.39-17.42,27.46-17.42,27.46L946,1254.39l1-16.67,31,3.92c7.74,1,5.81-6.87,5.81-6.87L978,1192.6c0-13.73-12.58-7.85-12.58-7.85l1.93,117.7-73.57,5.89-.59-26.12,0-2.1-2.27-100.27-6,20.53c-11.44,30.19-31.05,19.18-38.16,13.84A30.66,30.66,0,0,1,844,1212c-3,0-15-55-15-55l14-4,13,45S858.32,1201,860.16,1198Z"/><path class="cls-17" d="M950.73,1232.56a.9.9,0,0,1-.46,1.08.92.92,0,0,1-.38.73s.25,1.07-.2,1.52a15.81,15.81,0,0,1-.64,3.5l-.78,6.83s-.26,2.59-.71,2.88a9.85,9.85,0,0,1-.45,3.16s.06,2.93-.77,3.61V1257s-.52,1.91-10,1.41c0,0-6.65-.12-5.42-2.77,0,0-.65-.45-.84-6.2,0,0-.33-.12-.84-6.83,0,0-.39-.74-.46-3.84,0,0-.25-.17-.12-.73,0,0-.52,0-.39-2.43,0,0-.39.34-.26-1.47a1,1,0,0,1-.32-.79s-.45.06-.39-.79Z"/><ellipse class="cls-18" cx="939.01" cy="1232.61" rx="11.77" ry="1.72"/><path class="cls-7" d="M950.46,1242.69l-2,.3-19.1,2.9s-3.07,2.69,1,2.39l9.6-1.46.93-.14L928,1249.27a1.78,1.78,0,0,0,1,2.38c1.69.7,12.91-2.59,12.91-2.59l-11.22,3.29a1.79,1.79,0,0,0,1,2.38c1.69.7,11.22-3.29,11.22-3.29l1.69.7-5.23,3.2s.29,2.81,2.07,1.49l18.76-4.21,2.77-6.76s-7.59-4.71-13.33-7.72h-.25l-.48,1.47Z"/><polygon class="cls-43" points="817 1127.94 764.5 1196 791.72 1145.44 747 1170.72 782 1133.78 737.28 1141.56 778.11 1120.17 764.5 1091 817 1127.94"/><path class="cls-7" d="M1917.56,626.19v16.3l-19.66,10.87c36.51,32.61,59,0,59,0l-19.65-10.87v-16.3"/><polygon class="cls-8" points="1895.09 810.28 1970.08 803.56 1984.77 985.62 1943.64 985.62 1939.14 888.52 1936.76 890.04 1939.14 985.62 1904.14 985.62 1895.09 810.28"/><ellipse class="cls-9" cx="1934.27" cy="836.56" rx="2.44" ry="3.03"/><ellipse class="cls-9" cx="1934.27" cy="847.37" rx="2.44" ry="3.03"/><path class="cls-9" d="M1930.73,833.52s-2.81,33.57,6.36,27.36v3.81s-9.1,7-9.29-30.24Z"/><polygon class="cls-10" points="1979.23 984.24 1976.7 984.48 1966.62 817.81 1969.15 817.57 1979.23 984.24"/><polygon class="cls-10" points="1972.92 984.24 1970.39 984.48 1960.31 817.81 1962.84 817.57 1972.92 984.24"/><path d="M1979.49,982.91s24.21-4,25.63,7.55l1.43,11.54h-60.91l.64-19.09Z"/><path d="M1902.3,982.91s-24.21-4-25.63,7.55l-1.42,11.54h60.9l-.64-19.09Z"/><circle class="cls-7" cx="1929.11" cy="588.88" r="44.55"/><path class="cls-10" d="M1933.92,589.56s-1.23-14.46,12.07-8.15C1946,581.41,1946.61,592.31,1933.92,589.56Z"/><circle class="cls-11" cx="1939.75" cy="584.3" r="4.22"/><rect x="1935.08" y="576.43" width="20.71" height="3.15" rx="1.58" ry="1.58"/><path class="cls-6" d="M1922.14,591.88s-.16.29-.43.75c-1,1.67-3.54,5.64-5.64,6.68h6.07"/><path class="cls-12" d="M1892.06,564.56s-5.77-38.81,17.58-43h37.76s16.26.52,21,18.88v24.13Z"/><path class="cls-13" d="M1929.91,518s-2.64-.26-2.51,2.82h5.71S1933.33,517.81,1929.91,518Z"/><path class="cls-13" d="M1968.38,554.79H2002s-.13,8.79-7.94,9.44l-25.7.33Z"/><path class="cls-13" d="M1891.56,549.66s6.41-1.95,8.77,4v10.95l-8.27-.33Z"/><polygon class="cls-14" points="1891.98 562.07 1900.33 562.07 1900.33 564.56 1892.06 564.56 1891.98 562.07"/><path class="cls-10" d="M1899.05,580.68s11.18-9.25,13.58,5.26C1912.63,585.94,1904,592.67,1899.05,580.68Z"/><circle class="cls-11" cx="1906.7" cy="582.47" r="4.22"/><rect x="1897.58" y="574.49" width="20.71" height="3.15" rx="1.58" ry="1.58"/><path class="cls-15" d="M1941,619.94a12.24,12.24,0,0,0,10.2-5.64s1.7,6.54-2.76,7A12.91,12.91,0,0,1,1941,619.94Z"/><path class="cls-7" d="M1840.08,743.85s-13.83-17.39-15-16c0,0-4-1.73-.49,2.94l4.82,5.89-20.9-4.1s-3.8,1.49.13,2.58l9.53,1.87.92.18-13-1.92a1.79,1.79,0,0,0,.14,2.58c1.35,1.23,13,1.92,13,1.92l-11.68-.69a1.79,1.79,0,0,0,.14,2.58c1.35,1.22,11.67.69,11.67.69l1.36,1.22-6,1.25s-.67,2.75,1.44,2.11l19.09,2.36Z"/><path class="cls-16" d="M1891.84,681.85l2.27,100.27,0,2.1.59,26.12,73.57-5.89-1.93-117.7s12.58-5.88,12.58,7.85l5.81,42.17s1.93,7.85-5.81,6.87l-31-3.92-1,16.67,37.75,3.92s23.23,3.93,17.42-27.46l-9.68-51s-2.9-30.41-35.81-29.43c0,0-17.43,33.35-59,0,0,0-22-3.74-27.78,5.94L1861.16,700l-2.9,18.4-6.78,18.39h-23.23v16.45h23.23s16.46,1,20.33-2.9Z"/><path class="cls-17" d="M1951.73,734.56a.9.9,0,0,1-.46,1.08.92.92,0,0,1-.38.73s.25,1.07-.2,1.52a15.81,15.81,0,0,1-.64,3.5l-.78,6.83s-.26,2.59-.71,2.88a9.85,9.85,0,0,1-.45,3.16s.06,2.93-.77,3.61V759s-.52,1.91-10,1.41c0,0-6.65-.12-5.42-2.77,0,0-.65-.45-.84-6.2,0,0-.33-.12-.84-6.83,0,0-.39-.74-.46-3.84,0,0-.25-.17-.12-.73,0,0-.52,0-.39-2.43,0,0-.39.34-.26-1.47a1,1,0,0,1-.32-.79s-.45.06-.39-.79Z"/><ellipse class="cls-18" cx="1940.01" cy="734.61" rx="11.77" ry="1.72"/><path class="cls-7" d="M1951.46,744.69l-2,.3-19.1,2.9s-3.07,2.69,1,2.39l9.6-1.46.93-.14L1929,751.27a1.78,1.78,0,0,0,1,2.38c1.69.7,12.91-2.59,12.91-2.59l-11.22,3.29a1.79,1.79,0,0,0,1,2.38c1.69.7,11.22-3.29,11.22-3.29l1.69.7-5.23,3.2s.29,2.81,2.07,1.49l18.76-4.21,2.77-6.76s-7.59-4.71-13.33-7.72h-.25l-.48,1.47Z"/><path class="cls-30" d="M1834.91,745.5l-4.67-15.45-4.31-12.57c-1.79-4-5.74-1.8-5.74-1.8l-11.14,4c-5,1.08-2.88,5.39-2.88,5.39l9.34,27a3.9,3.9,0,0,0,5,1.79l12.23-4.67,1.36-.51-.65-1.64"/><path class="cls-31" d="M1809.05,719.63l1.44,3.6,9,24.43,4.47,4.81-3.4,1.29a3.9,3.9,0,0,1-5-1.79l-9.34-27S1804,720.71,1809.05,719.63Z"/><rect class="cls-32" x="1814.44" y="719.99" width="3.59" height="0.72" rx="0.36" ry="0.36" transform="translate(-131.08 560.46) rotate(-16.94)"/><circle class="cls-32" cx="1826.11" cy="748.55" r="1.26"/><path class="cls-30" d="M1830.24,730.05l5.19,14,.21.56s1.57,2.92-1.92,4.12Z"/><rect class="cls-29" x="1810.9" y="721.93" width="19.43" height="24.42" rx="0.76" ry="0.76" transform="translate(-140.34 643.13) rotate(-19.3)"/><rect class="cls-33" x="1811.47" y="722.33" width="18.12" height="23.38" transform="translate(-140.3 643.1) rotate(-19.3)"/><rect class="cls-40" x="1816.02" y="730.44" width="8.96" height="6.95" rx="1.67" ry="1.67" transform="translate(-140.69 652.87) rotate(-19.59)"/><circle class="cls-41" cx="1820.47" cy="733.81" r="2.02"/><circle class="cls-42" cx="1820.47" cy="733.81" r="1.34"/><rect class="cls-40" x="1816.53" y="729.94" width="1.79" height="1.34" transform="translate(-139.76 651.64) rotate(-19.59)"/><path class="cls-7" d="M1832.73,736.43l-3.51,2.27s-1.94,0-1-2.27l3.68-2.57Z"/><circle class="cls-7" cx="522.11" cy="1087.88" r="44.55"/><path class="cls-10" d="M526.92,1086.56s-1.23-14.46,12.07-8.15C539,1078.41,539.61,1089.31,526.92,1086.56Z"/><circle class="cls-11" cx="532.75" cy="1081.3" r="4.22"/><rect x="527.08" y="1076.43" width="20.71" height="3.15" rx="1.58" ry="1.58"/><path class="cls-6" d="M515.14,1090.88s-.16.29-.43.75c-1,1.67-3.54,5.64-5.64,6.68h6.07"/><path class="cls-12" d="M485.06,1063.56s-5.77-38.81,17.58-43H540.4s16.26.52,21,18.88v24.13Z"/><path class="cls-13" d="M522.91,1017s-2.64-.26-2.51,2.82h5.71S526.33,1016.81,522.91,1017Z"/><path class="cls-13" d="M561.38,1053.79H595s-.13,8.79-7.94,9.44l-25.7.33Z"/><path class="cls-13" d="M484.56,1048.66s6.41-2,8.77,3.95v11l-8.27-.33Z"/><polygon class="cls-14" points="484.98 1061.07 493.33 1061.07 493.33 1063.56 485.06 1063.56 484.98 1061.07"/><path class="cls-10" d="M492.94,1085.72s.08-14.52,12.75-7C505.69,1078.68,505.33,1089.59,492.94,1085.72Z"/><circle class="cls-11" cx="499.22" cy="1081" r="4.22"/><rect x="493.58" y="1075.49" width="20.71" height="3.15" rx="1.58" ry="1.58"/><path class="cls-15" d="M534,1118.94a12.24,12.24,0,0,0,10.2-5.64s1.7,6.54-2.76,7A12.91,12.91,0,0,1,534,1118.94Z"/><rect class="cls-44" x="5" y="1502" width="350" height="500"/><rect class="cls-45" x="353" y="1502" width="350" height="500"/><rect class="cls-46" x="703" y="1502" width="350" height="500"/><rect class="cls-47" x="1053" y="1502" width="350" height="500"/><rect class="cls-48" x="1403" y="1502" width="350" height="500"/><rect class="cls-49" x="1753" y="1502" width="350" height="500"/><path class="cls-7" d="M127.56,1827.19v16.3l-19.66,10.87c36.51,32.61,59,0,59,0l-19.65-10.87v-16.3"/><circle class="cls-7" cx="139.11" cy="1789.88" r="44.55"/><path class="cls-7" d="M229,1897.84s-1.9-22.14-.08-22c0,0,1.69-4,2.37,1.8l.55,7.59,12.37-17.34s3.78-1.53,1.67,2l-5.64,7.9-.54.77,8.15-10.35a1.78,1.78,0,0,1,1.67,2c-.14,1.83-8.15,10.35-8.15,10.35l8-8.52a1.78,1.78,0,0,1,1.67,2c-.14,1.82-8,8.53-8,8.53l-.15,1.82,5.22-3.23s2.38,1.54.41,2.53l-12.24,14.83Z"/><path class="cls-16" d="M97.14,1965.62l1.3-78.87s-12.59-5.88-12.59,7.85L80,1936.77s-1.93,7.85,5.81,6.87l31-3.92,1,16.67L80,1960.31s-23.23,3.93-17.42-27.46l9.68-51s2.9-30.41,35.82-29.43c0,0,17.42,33.35,59,0,0,0,22-3.74,27.78,5.94l8.71,41.62,2.91,18.4L225.81,1889l13,8-15,29s-17.92,31.14-37.46,1.57L173,1881.85l-1.89,83.79Z"/><path class="cls-12" d="M178.39,1768.56s5.77-38.81-17.58-43H123.05s-16.26.52-21,18.88v24.13Z"/><path class="cls-13" d="M140.54,1722s2.64-.26,2.51,2.82h-5.71S137.12,1721.81,140.54,1722Z"/><path class="cls-13" d="M102.07,1758.79H68.43s.13,8.79,7.94,9.44l25.7.33Z"/><path class="cls-13" d="M178.89,1753.66s-6.4-2-8.77,3.95v11l8.27-.33Z"/><polygon class="cls-14" points="178.47 1766.07 170.13 1766.07 170.13 1768.56 178.39 1768.56 178.47 1766.07"/><polygon class="cls-8" points="171 2001 220.18 1987.62 198.01 1979.22 171 1987.04 171 2001"/><polygon class="cls-8" points="171 1981.38 188.31 1975.54 171 1968.98 171 1981.38"/><polygon class="cls-8" points="171 2001 104.94 2001 97 1966 171 1966 171 2001"/><path class="cls-7" d="M488.56,1827.19v16.3l-19.66,10.87c36.51,32.61,59,0,59,0l-19.65-10.87v-16.3"/><circle class="cls-7" cx="500.11" cy="1789.88" r="44.55"/><path class="cls-7" d="M609.66,1940.29s20.87-7.62,21.21-5.82c0,0,4.28.59-1.12,2.76l-7.18,2.51,20,7.41s2.47,3.26-1.46,2.13l-9.1-3.38-.88-.32,12.11,5.16a1.78,1.78,0,0,1-1.45,2.13c-1.8.34-12.12-5.16-12.12-5.16l10.32,5.5a1.79,1.79,0,0,1-1.46,2.13c-1.79.34-10.32-5.5-10.32-5.5l-1.79.33,4.47,4.2s-.86,2.7-2.33,1.05l-17.51-8Z"/><path class="cls-16" d="M564.65,1900l-8.71-41.62c-5.81-9.68-27.78-5.94-27.78-5.94-41.62,33.35-59,0-59,0-32.92-1-35.82,29.43-35.82,29.43l-9.68,51c-5.81,31.39,17.42,27.46,17.42,27.46l37.76-3.92-1-16.67-31,3.92c-7.74,1-5.81-6.87-5.81-6.87l5.81-42.17c0-13.73,12.59-7.85,12.59-7.85l-1.3,78.87,73.94,0,1.89-83.79,13.38,45.72L613,1951l3-17-48-18Z"/><path class="cls-12" d="M539.39,1768.56s5.77-38.81-17.58-43H484.05s-16.26.52-21,18.88v24.13Z"/><path class="cls-13" d="M501.54,1722s2.64-.26,2.51,2.82h-5.71S498.12,1721.81,501.54,1722Z"/><path class="cls-13" d="M463.07,1758.79H429.43s.13,8.79,7.94,9.44l25.7.33Z"/><path class="cls-13" d="M539.89,1753.66s-6.4-2-8.77,3.95v11l8.27-.33Z"/><polygon class="cls-14" points="539.47 1766.07 531.13 1766.07 531.13 1768.56 539.39 1768.56 539.47 1766.07"/><polygon class="cls-8" points="532 2001 581.18 1987.62 559.01 1979.22 532 1987.04 532 2001"/><polygon class="cls-8" points="532 1981.38 549.31 1975.54 532 1968.98 532 1981.38"/><polygon class="cls-8" points="532 2001 465.94 2001 458 1966 532 1966 532 2001"/><path class="cls-7" d="M858.56,1828.19v16.3l-19.66,10.87c36.51,32.61,59,0,59,0l-19.65-10.87v-16.3"/><circle class="cls-7" cx="870.11" cy="1790.88" r="44.55"/><path class="cls-7" d="M960,1898.84s-1.9-22.14-.08-22c0,0,1.69-4,2.37,1.8l.55,7.59,12.37-17.34s3.78-1.53,1.67,2l-5.64,7.9-.54.77,8.15-10.35a1.78,1.78,0,0,1,1.67,2c-.14,1.83-8.15,10.35-8.15,10.35l8-8.52a1.78,1.78,0,0,1,1.67,2c-.14,1.82-8,8.53-8,8.53l-.15,1.82,5.22-3.23s2.38,1.54.41,2.53l-12.24,14.83Z"/><path class="cls-16" d="M828.14,1966.62l1.3-78.87s-12.59-5.88-12.59,7.85L811,1937.77s-1.93,7.85,5.81,6.87l31-3.92,1,16.67L811,1961.31s-23.23,3.93-17.42-27.46l9.68-51s2.9-30.41,35.82-29.43c0,0,17.42,33.35,59,0,0,0,22-3.74,27.78,5.94l8.71,41.62,2.91,18.4L956.81,1890l13,8-15,29s-17.92,31.14-37.46,1.57L904,1882.85l-1.89,83.79Z"/><path class="cls-12" d="M909.39,1769.56s5.77-38.81-17.58-43H854.05s-16.26.52-21,18.88v24.13Z"/><path class="cls-13" d="M871.54,1723s2.64-.26,2.51,2.82h-5.71S868.12,1722.81,871.54,1723Z"/><path class="cls-13" d="M833.07,1759.79H799.43s.13,8.79,7.94,9.44l25.7.33Z"/><path class="cls-13" d="M909.89,1754.66s-6.4-2-8.77,3.95v11l8.27-.33Z"/><polygon class="cls-14" points="909.47 1767.07 901.13 1767.07 901.13 1769.56 909.39 1769.56 909.47 1767.07"/><polygon class="cls-8" points="902 2002 951.18 1988.62 929.01 1980.22 902 1988.04 902 2002"/><polygon class="cls-8" points="902 1982.38 919.31 1976.54 902 1969.98 902 1982.38"/><polygon class="cls-8" points="902 2002 835.94 2002 828 1967 902 1967 902 2002"/><path class="cls-30" d="M959.27,1887.64l4.59-15.2,4.25-12.37c1.76-3.89,5.65-1.77,5.65-1.77l11,3.89c4.95,1.06,2.83,5.3,2.83,5.3L978.36,1894a3.84,3.84,0,0,1-5,1.77l-12-4.6-1.33-.51.64-1.61"/><path class="cls-31" d="M984.72,1862.19l-1.41,3.53-8.84,24-4.4,4.73,3.34,1.28a3.84,3.84,0,0,0,5-1.77l9.19-26.51S989.67,1863.25,984.72,1862.19Z"/><rect class="cls-32" x="975.88" y="1862.54" width="3.53" height="0.71" rx="0.35" ry="0.35" transform="translate(1370.08 3929.82) rotate(-163.06)"/><circle class="cls-32" cx="967.93" cy="1890.64" r="1.24"/><path class="cls-30" d="M963.86,1872.44l-5.1,13.77-.21.55s-1.54,2.88,1.89,4.06Z"/><rect class="cls-29" x="963.79" y="1864.45" width="19.12" height="24.03" rx="0.76" ry="0.76" transform="translate(1271.64 3969.2) rotate(-160.7)"/><rect class="cls-33" x="964.51" y="1864.84" width="17.83" height="23" transform="translate(1271.84 3968.99) rotate(-160.7)"/><rect class="cls-50" x="968" y="1872" width="12" height="8" transform="translate(695.03 -219.29) rotate(19.85)"/><line class="cls-51" x1="967" y1="1877.72" x2="981" y2="1874.28"/><line class="cls-51" x1="969.72" y1="1870.2" x2="978.28" y2="1881.8"/><rect class="cls-52" x="6" y="2000" width="350" height="500"/><rect class="cls-53" x="356" y="2000" width="350" height="500"/><rect class="cls-54" x="706" y="2000" width="350" height="500"/><rect class="cls-55" x="1056" y="2000" width="350" height="500"/><rect class="cls-56" x="1406" y="2000" width="350" height="500"/><rect class="cls-57" x="1756" y="2000" width="350" height="500"/><path class="cls-7" d="M187.26,2116.72v16.63l20,11.09c-37.23,33.25-60.14,0-60.14,0l20.05-11.09v-16.63"/><path class="cls-7" d="M252.58,2299.61s14.89,17.09,13.3,18.06c0,0,1,4.29-3-.05l-5-5.93.24,21.72s-2.2,3.54-2.56-.61l-.11-9.9v-1l-.49,13.43a1.84,1.84,0,0,1-2.57-.61c-1-1.59.49-13.43.49-13.43l-1.46,11.84a1.82,1.82,0,0,1-2.56-.61c-1-1.59,1.46-11.84,1.46-11.84l-1-1.58-2.37,5.79s-2.88.17-1.84-1.84l1.16-19.57Z"/><polygon class="cls-8" points="210.17 2304.47 133.69 2297.62 118.71 2483.3 160.66 2483.3 165.24 2384.27 167.67 2385.81 165.24 2483.3 200.94 2483.3 210.17 2304.47"/><ellipse class="cls-9" cx="170.21" cy="2331.27" rx="2.49" ry="3.09"/><ellipse class="cls-9" cx="170.21" cy="2342.3" rx="2.49" ry="3.09"/><path class="cls-9" d="M173.82,2328.18s2.87,34.23-6.48,27.89V2360s9.28,7.18,9.48-30.84Z"/><polygon class="cls-10" points="124.36 2481.89 126.94 2482.13 137.22 2312.15 134.64 2311.91 124.36 2481.89"/><polygon class="cls-10" points="130.79 2481.89 133.37 2482.13 143.66 2312.15 141.07 2311.91 130.79 2481.89"/><path d="M124.09,2480.53s-24.68-4.07-26.14,7.7L96.5,2500h62.12l-.65-19.47Z"/><path d="M202.82,2480.53s24.69-4.07,26.14,7.7l1.45,11.77H168.29l.66-19.47Z"/><circle class="cls-7" cx="175.47" cy="2078.67" r="45.44"/><rect x="143.32" y="2062.02" width="21.12" height="3.22" rx="1.58" ry="1.58" transform="translate(307.77 4127.26) rotate(180)"/><path class="cls-6" d="M175.47,2081.41l.45.77c1,1.71,3.61,5.76,5.75,6.82h-6.2"/><path class="cls-12" d="M213.26,2053.87s5.88-39.59-17.92-43.87H156.82s-16.58.54-21.4,19.26v24.61Z"/><path class="cls-13" d="M174.66,2006.39s2.69-.27,2.56,2.88H171.4S171.17,2006.19,174.66,2006.39Z"/><path class="cls-13" d="M135.42,2043.9h-34.3s.13,9,8.09,9.63l26.21.34Z"/><path class="cls-13" d="M213.77,2038.67s-6.53-2-8.94,4v11.17l8.43-.34Z"/><polygon class="cls-14" points="213.35 2051.32 204.83 2051.32 204.83 2053.87 213.26 2053.87 213.35 2051.32"/><rect x="182.56" y="2062.02" width="21.12" height="3.22" rx="1.58" ry="1.58" transform="translate(386.25 4127.26) rotate(180)"/><path class="cls-16" d="M147.34,2143.47s17.77,33.8,60.22,0c0,0,44.43-7.95,40.48,24.85l10.86,135.19-15.8,4-17.77-121.28s0-16.9-11.84-12.92l-3,130.22-75-6,2-119.29s-12.83-6-12.83,7.95L118.71,2229s-2,7.95,5.93,7l31.59-4,1,16.9-38.51,4s-23.69,4-17.77-27.84l9.87-51.69S113.78,2142.47,147.34,2143.47Z"/><path class="cls-17" d="M164.26,2224.29a.9.9,0,0,0,.46,1.09.93.93,0,0,0,.39.75s-.26,1.09.2,1.55a16.05,16.05,0,0,0,.66,3.57l.79,7s.26,2.65.72,2.94a10.2,10.2,0,0,0,.47,3.22s-.07,3,.79,3.68v1.16s.52,1.95,10.2,1.43c0,0,6.78-.11,5.53-2.82,0,0,.66-.46.86-6.33,0,0,.33-.11.85-7,0,0,.4-.75.46-3.91,0,0,.27-.17.14-.75,0,0,.52,0,.39-2.47,0,0,.4.34.27-1.5a1,1,0,0,0,.32-.81s.47.06.4-.8Z"/><ellipse class="cls-18" cx="176.21" cy="2224.34" rx="12.01" ry="1.75"/><path class="cls-7" d="M164.53,2234.62l2,.3,19.47,3s3.14,2.74-1,2.43l-9.79-1.49-.95-.14,13.17,2.65a1.82,1.82,0,0,1-1,2.43c-1.72.71-13.17-2.65-13.17-2.65l11.45,3.36a1.82,1.82,0,0,1-1,2.43c-1.72.7-11.44-3.36-11.44-3.36l-1.72.71,5.33,3.26s-.3,2.88-2.11,1.53l-19.13-4.3-2.83-6.89s7.74-4.8,13.59-7.87h.26l.49,1.49Z"/><path class="cls-26" d="M149.81,2074.28s8.35-5.57,15.3,0A13.1,13.1,0,0,1,149.81,2074.28Z"/><line class="cls-27" x1="150.24" y1="2074.28" x2="164.7" y2="2074.28"/><path class="cls-26" d="M185.35,2073.29s8.35-5.56,15.3,0A13.1,13.1,0,0,1,185.35,2073.29Z"/><line class="cls-27" x1="185.78" y1="2073.29" x2="200.24" y2="2073.29"/><rect class="cls-15" x="160.18" y="2100.17" width="36.53" height="2.96" rx="1.45" ry="1.45"/><path class="cls-7" d="M525.32,2120.24v16.44l-19.81,11c36.79,32.87,59.43,0,59.43,0l-19.81-11v-16.44"/><path class="cls-7" d="M460.76,2301s-14.71,16.88-13.14,17.84c0,0-1,4.24,3-.05l5-5.86-.24,21.47s2.17,3.5,2.53-.6L458,2324V2323l.48,13.27a1.82,1.82,0,0,0,2.54-.6c1-1.57-.49-13.27-.49-13.27l1.45,11.7a1.8,1.8,0,0,0,2.53-.61c1-1.56-1.45-11.69-1.45-11.69l1-1.57,2.33,5.72s2.85.17,1.83-1.81L467,2304.83Z"/><polygon class="cls-8" points="502.68 2305.78 578.25 2299.01 593.05 2482.49 551.6 2482.49 547.07 2384.63 544.67 2386.16 547.07 2482.49 511.79 2482.49 502.68 2305.78"/><ellipse class="cls-9" cx="542.16" cy="2332.26" rx="2.46" ry="3.06"/><ellipse class="cls-9" cx="542.16" cy="2343.16" rx="2.46" ry="3.06"/><path class="cls-9" d="M538.59,2329.2s-2.84,33.83,6.41,27.57v3.84s-9.17,7.1-9.37-30.47Z"/><polygon class="cls-10" points="587.47 2481.1 584.92 2481.34 574.76 2313.36 577.31 2313.13 587.47 2481.1"/><polygon class="cls-10" points="581.12 2481.1 578.56 2481.34 568.4 2313.36 570.96 2313.13 581.12 2481.1"/><path d="M587.74,2479.76s24.39-4,25.82,7.61L615,2499H553.62l.64-19.24Z"/><path d="M509.93,2479.76s-24.39-4-25.82,7.61L482.67,2499h61.38l-.64-19.24Z"/><circle class="cls-7" cx="536.96" cy="2082.64" r="44.9"/><path class="cls-10" d="M537.9,2083.33s-1.23-14.57,12.16-8.22C550.06,2075.11,550.69,2086.1,537.9,2083.33Z"/><circle class="cls-11" cx="543.78" cy="2078.02" r="4.25"/><rect x="538.1" y="2066.19" width="20.87" height="3.18" rx="1.59" ry="1.59"/><path class="cls-6" d="M527,2085.66s-.16.29-.44.76c-1,1.69-3.57,5.69-5.68,6.74H527"/><path class="cls-12" d="M499.62,2058.13s-5.81-39.12,17.71-43.35h38.06s16.39.53,21.15,19v24.32Z"/><path class="cls-13" d="M537.76,2011.22s-2.65-.27-2.52,2.84H541S541.21,2011,537.76,2011.22Z"/><path class="cls-13" d="M576.54,2048.29h33.9s-.14,8.85-8,9.51l-25.9.33Z"/><path class="cls-13" d="M499.12,2043.12s6.45-2,8.83,4v11l-8.33-.33Z"/><polygon class="cls-14" points="499.54 2055.62 507.95 2055.62 507.95 2058.13 499.62 2058.13 499.54 2055.62"/><path class="cls-10" d="M506.66,2074.38s11.27-9.33,13.69,5.3C520.35,2079.68,511.68,2086.46,506.66,2074.38Z"/><circle class="cls-11" cx="514.37" cy="2076.18" r="4.25"/><rect x="504.2" y="2066.19" width="20.87" height="3.18" rx="1.59" ry="1.59"/><path class="cls-16" d="M564.76,2146.68s-17.56,33.39-59.51,0c0,0-43.9-7.86-40,24.55l-10.73,133.6,15.61,3.93,17.56-119.84s0-16.7,11.7-12.77l2.93,128.68,74.15-5.89-2-117.88s12.69-5.9,12.69,7.86l5.85,42.24s2,7.85-5.85,6.87L556,2234.1l-1,16.7,38,3.93s23.42,3.93,17.56-27.5l-9.75-51.08S597.93,2145.69,564.76,2146.68Z"/><path class="cls-17" d="M548,2226.54a.89.89,0,0,1-.45,1.08.92.92,0,0,1-.39.74s.26,1.08-.2,1.54a15.5,15.5,0,0,1-.65,3.52l-.78,6.88s-.26,2.62-.72,2.9a10,10,0,0,1-.45,3.19s.06,3-.78,3.64v1.13s-.52,1.94-10.09,1.43c0,0-6.7-.12-5.46-2.79,0,0-.65-.46-.85-6.26,0,0-.32-.11-.84-6.88,0,0-.39-.74-.46-3.86,0,0-.26-.17-.13-.74,0,0-.52,0-.39-2.45,0,0-.39.34-.26-1.48a1,1,0,0,1-.33-.79s-.45,0-.39-.8Z"/><ellipse class="cls-18" cx="536.23" cy="2226.59" rx="11.86" ry="1.73"/><path class="cls-7" d="M547.78,2236.75l-2,.3L526.55,2240s-3.1,2.71,1,2.41l9.67-1.47.94-.15-13,2.62a1.8,1.8,0,0,0,1,2.4c1.7.7,13-2.61,13-2.61l-11.31,3.31a1.8,1.8,0,0,0,1,2.4c1.7.7,11.31-3.31,11.31-3.31l1.7.7-5.27,3.22s.29,2.84,2.08,1.51l18.91-4.25,2.8-6.81s-7.66-4.74-13.44-7.78h-.25l-.49,1.48Z"/><ellipse class="cls-15" cx="526.52" cy="2110.72" rx="5.37" ry="8.78"/><line class="cls-16" x1="892.98" y1="2235.1" x2="892" y2="2251.8"/><path class="cls-7" d="M862.32,2121.24v16.44l-19.81,11c36.79,32.87,59.43,0,59.43,0l-19.81-11v-16.44"/><path class="cls-7" d="M797.76,2302s-14.71,16.88-13.14,17.84c0,0-1,4.24,3-.05l5-5.86-.24,21.47s2.17,3.5,2.53-.6L795,2325V2324l.48,13.27a1.82,1.82,0,0,0,2.54-.6c1-1.57-.49-13.27-.49-13.27l1.45,11.7a1.8,1.8,0,0,0,2.53-.61c1-1.56-1.45-11.69-1.45-11.69l1-1.57,2.33,5.72s2.85.17,1.83-1.81L804,2305.83Z"/><polyline class="cls-8" points="885.6 2483.49 881.07 2385.63 878.67 2387.16"/><polyline class="cls-8" points="872 2303.61 912.25 2300.01 927.05 2483.49 885.6 2483.49"/><ellipse class="cls-9" cx="885.16" cy="2327.26" rx="2.46" ry="3.06"/><ellipse class="cls-9" cx="885.16" cy="2338.16" rx="2.46" ry="3.06"/><path class="cls-9" d="M881.09,2325.2s-2.84,33.83,6.41,27.57v3.84s-9.18,7.1-9.37-30.47Z"/><polygon class="cls-10" points="921.47 2482.1 918.92 2482.34 908.76 2314.36 911.31 2314.13 921.47 2482.1"/><polygon class="cls-10" points="915.12 2482.1 912.56 2482.34 902.4 2314.36 904.96 2314.13 915.12 2482.1"/><path d="M846.93,2480.76s-24.39-4-25.82,7.61L819.67,2500h61.38l-.64-19.24Z"/><circle class="cls-7" cx="873.96" cy="2083.64" r="44.9"/><path class="cls-10" d="M874.9,2084.33s-1.23-14.57,12.16-8.22C887.06,2076.11,887.69,2087.1,874.9,2084.33Z"/><circle class="cls-11" cx="880.78" cy="2079.02" r="4.25"/><rect x="875.1" y="2067.19" width="20.87" height="3.18" rx="1.59" ry="1.59"/><path class="cls-6" d="M864,2086.66s-.16.29-.44.76c-1,1.69-3.57,5.69-5.68,6.74H864"/><path class="cls-12" d="M836.62,2059.13s-5.81-39.12,17.71-43.35h38.06s16.39.53,21.15,19v24.32Z"/><path class="cls-13" d="M874.76,2012.22s-2.65-.27-2.52,2.84H878S878.21,2012,874.76,2012.22Z"/><path class="cls-13" d="M913.54,2049.29h33.9s-.14,8.85-8,9.51l-25.9.33Z"/><path class="cls-13" d="M836.12,2044.12s6.45-2,8.83,4v11l-8.33-.33Z"/><polygon class="cls-14" points="836.53 2056.62 844.95 2056.62 844.95 2059.13 836.62 2059.13 836.53 2056.62"/><path class="cls-10" d="M843.66,2075.38s11.27-9.33,13.69,5.3C857.35,2080.68,848.68,2087.46,843.66,2075.38Z"/><circle class="cls-11" cx="851.37" cy="2077.18" r="4.25"/><rect x="841.2" y="2067.19" width="20.87" height="3.18" rx="1.59" ry="1.59"/><ellipse class="cls-15" cx="867.58" cy="2114.75" rx="9.42" ry="2.75"/><path class="cls-7" d="M938.14,2289s14.71,16.88,13.14,17.84c0,0,1,4.24-3-.05l-4.95-5.86.23,21.47s-2.17,3.5-2.53-.6l-.11-9.79V2311l-.48,13.27a1.81,1.81,0,0,1-2.53-.6c-1-1.57.48-13.27.48-13.27l-1.45,11.7a1.8,1.8,0,0,1-2.53-.61c-1-1.56,1.45-11.69,1.45-11.69l-1-1.57-2.33,5.72s-2.85.17-1.83-1.81l1.15-19.35Z"/><path class="cls-16" d="M947.61,2228.23l-9.75-51.08s-2.93-30.46-36.1-29.47c0,0-17.56,33.39-59.51,0,0,0-43.9-7.86-40,24.55l-10.73,133.6,15.61,3.93,17.56-119.84s0-16.7,11.7-12.77l2.93,128.68,74.15-5.89-2-117.88s12.69-5.9,12.69,7.86l5.85,42.24,0,40.84h15Z"/><polygon class="cls-16" points="930.01 2267.07 945.35 2267.07 945.35 2292.88 930.01 2295.63 930.01 2267.07"/><path class="cls-58" d="M889.88,2480.76s-24.39-4-25.83,7.61L862.62,2500H924l-.64-19.24Z"/><rect class="cls-8" x="840" y="2303" width="39" height="178"/><path class="cls-7" d="M1206.32,2121.24v16.44l-19.81,11c36.79,32.87,59.43,0,59.43,0l-19.81-11v-16.44"/><path class="cls-7" d="M1141.76,2302s-14.71,16.88-13.14,17.84c0,0-1,4.24,3-.05l5-5.86-.24,21.47s2.17,3.5,2.53-.6l.11-9.79V2324l.48,13.27a1.82,1.82,0,0,0,2.54-.6c1-1.57-.49-13.27-.49-13.27l1.45,11.7a1.8,1.8,0,0,0,2.53-.61c1-1.56-1.45-11.69-1.45-11.69l1-1.57,2.33,5.72s2.85.17,1.83-1.81l-1.15-19.35Z"/><circle class="cls-7" cx="1217.96" cy="2083.64" r="44.9"/><path class="cls-10" d="M1218.9,2084.33s-1.23-14.57,12.16-8.22C1231.06,2076.11,1231.69,2087.1,1218.9,2084.33Z"/><circle class="cls-11" cx="1224.78" cy="2079.02" r="4.25"/><rect x="1219.1" y="2067.19" width="20.87" height="3.18" rx="1.59" ry="1.59"/><path class="cls-6" d="M1208,2086.66s-.16.29-.44.76c-1,1.69-3.57,5.69-5.68,6.74H1208"/><path class="cls-12" d="M1180.62,2059.13s-5.81-39.12,17.71-43.35h38.06s16.39.53,21.15,19v24.32Z"/><path class="cls-13" d="M1218.76,2012.22s-2.65-.27-2.52,2.84H1222S1222.21,2012,1218.76,2012.22Z"/><path class="cls-13" d="M1257.54,2049.29h33.9s-.14,8.85-8,9.51l-25.9.33Z"/><path class="cls-13" d="M1180.12,2044.12s6.45-2,8.83,4v11l-8.33-.33Z"/><polygon class="cls-14" points="1180.54 2056.62 1188.95 2056.62 1188.95 2059.13 1180.62 2059.13 1180.54 2056.62"/><path class="cls-10" d="M1187.66,2075.38s11.27-9.33,13.69,5.3C1201.35,2080.68,1192.68,2087.46,1187.66,2075.38Z"/><circle class="cls-11" cx="1195.37" cy="2077.18" r="4.25"/><rect x="1185.2" y="2067.19" width="20.87" height="3.18" rx="1.59" ry="1.59"/><ellipse class="cls-15" cx="1211.58" cy="2114.75" rx="9.42" ry="2.75"/><path class="cls-7" d="M1282.14,2289s14.71,16.88,13.14,17.84c0,0,1,4.24-3-.05l-5-5.86.23,21.47s-2.17,3.5-2.53-.6l-.11-9.79V2311l-.48,13.27a1.81,1.81,0,0,1-2.53-.6c-1-1.57.48-13.27.48-13.27l-1.45,11.7a1.8,1.8,0,0,1-2.53-.61c-1-1.56,1.45-11.69,1.45-11.69l-1-1.57-2.33,5.72s-2.85.17-1.83-1.81l1.15-19.35Z"/><path class="cls-16" d="M1291.61,2228.23l-9.75-51.08s-2.93-30.46-36.1-29.47c0,0-17.56,33.39-59.51,0,0,0-43.9-7.86-40,24.55l-10.73,133.6,15.61,3.93,17.56-119.84s0-16.7,11.7-12.77l2.93,128.68,74.15-5.89-2-117.88s12.69-5.9,12.69,7.86l5.85,42.24,0,40.84h15Z"/><polygon class="cls-16" points="1274.01 2267.07 1289.35 2267.07 1289.35 2292.88 1274.01 2295.63 1274.01 2267.07"/><rect class="cls-8" x="1170" y="2301" width="39" height="178" transform="translate(360.51 -147.67) rotate(8.37)"/><path d="M1165.93,2473.76s-24.39-4-25.82,7.61l-1.44,11.63h61.38l-.64-19.24Z"/><polyline class="cls-8" points="1227.6 2483.49 1223.07 2385.63 1220.67 2387.16"/><polyline class="cls-8" points="1214 2303.61 1254.25 2300.01 1269.05 2483.49 1227.6 2483.49"/><ellipse class="cls-9" cx="1227.16" cy="2327.26" rx="2.46" ry="3.06"/><ellipse class="cls-9" cx="1227.16" cy="2338.16" rx="2.46" ry="3.06"/><path class="cls-9" d="M1223.09,2325.2s-2.84,33.83,6.41,27.57v3.84s-9.18,7.1-9.37-30.47Z"/><polygon class="cls-10" points="1263.47 2482.1 1260.92 2482.34 1250.76 2314.36 1253.31 2314.13 1263.47 2482.1"/><polygon class="cls-10" points="1257.12 2482.1 1254.56 2482.34 1244.4 2314.36 1246.95 2314.13 1257.12 2482.1"/><path class="cls-58" d="M1237.88,2480.76s-24.39-4-25.83,7.61l-1.43,11.63H1272l-.64-19.24Z"/><path class="cls-7" d="M1576.32,2121.24v16.44l-19.81,11c36.79,32.87,59.43,0,59.43,0l-19.81-11v-16.44"/><circle class="cls-7" cx="1587.96" cy="2083.64" r="44.9"/><path class="cls-10" d="M1588.9,2084.33s-1.23-14.57,12.16-8.22C1601.06,2076.11,1601.69,2087.1,1588.9,2084.33Z"/><circle class="cls-11" cx="1594.78" cy="2079.02" r="4.25"/><rect x="1589.1" y="2067.19" width="20.87" height="3.18" rx="1.59" ry="1.59"/><path class="cls-6" d="M1578,2086.66s-.16.29-.44.76c-1,1.69-3.57,5.69-5.68,6.74H1578"/><path class="cls-12" d="M1550.62,2059.13s-5.81-39.12,17.71-43.35h38.06s16.39.53,21.15,19v24.32Z"/><path class="cls-13" d="M1588.76,2012.22s-2.65-.27-2.52,2.84H1592S1592.21,2012,1588.76,2012.22Z"/><path class="cls-13" d="M1627.54,2049.29h33.9s-.14,8.85-8,9.51l-25.9.33Z"/><path class="cls-13" d="M1550.12,2044.12s6.45-2,8.83,4v11l-8.33-.33Z"/><polygon class="cls-14" points="1550.54 2056.62 1558.95 2056.62 1558.95 2059.13 1550.62 2059.13 1550.54 2056.62"/><path class="cls-10" d="M1557.66,2075.38s11.27-9.33,13.69,5.3C1571.35,2080.68,1562.68,2087.46,1557.66,2075.38Z"/><circle class="cls-11" cx="1565.37" cy="2077.18" r="4.25"/><rect x="1555.2" y="2067.19" width="20.87" height="3.18" rx="1.59" ry="1.59"/><ellipse class="cls-15" cx="1581.58" cy="2114.75" rx="9.42" ry="2.75"/><rect class="cls-8" x="1547.03" y="2299.79" width="39" height="183.7" transform="translate(216.45 -128.53) rotate(5.05)"/><path d="M1546.93,2480.76s-24.39-4-25.82,7.61l-1.44,11.63h61.38l-.64-19.24Z"/><polygon class="cls-8" points="1598.98 2327.2 1589.3 2305.13 1594 2305 1598.98 2327.2"/><polygon class="cls-8" points="1592.04 2301.86 1616 2415 1678 2454 1695 2426 1652 2399 1625 2300 1592.04 2301.86"/><ellipse class="cls-9" cx="1606.54" cy="2319.79" rx="2.46" ry="3.06" transform="translate(-439.56 376.63) rotate(-11.77)"/><ellipse class="cls-9" cx="1608.77" cy="2330.46" rx="2.46" ry="3.06" transform="translate(-441.69 377.31) rotate(-11.77)"/><path class="cls-9" d="M1599.14,2308.61s4.12,33.69,11.9,25.68l.78,3.75s-7.53,8.83-15.39-27.92Z"/><path class="cls-58" d="M1677.14,2446.4s-17.92,17-9.5,25.2l8.42,8.15,37-49-15.74-11.08Z"/><polygon class="cls-10" points="1649.04 2399.96 1648.06 2400.27 1621.81 2305.62 1622.79 2305.31 1649.04 2399.96"/><polyline class="cls-10" points="1627.87 2341.48 1644.33 2400.88 1643.32 2401.2 1617.03 2306.32 1618.04 2306.01 1627.87 2341.48"/><polyline class="cls-10" points="1659.84 2412.39 1685.86 2432.17 1685.25 2433.03 1643.7 2401.44 1644.31 2400.58 1659.84 2412.39"/><polyline class="cls-10" points="1663.55 2409.91 1688.86 2429.17 1688.25 2430.03 1647.83 2399.26 1648.43 2398.41 1663.55 2409.91"/><path class="cls-16" d="M1631.86,2180.83a14.57,14.57,0,0,0-6.35,1.23l2,117.88-74.15,5.89-.88-38.81-2-89.87c-1.76-.6-3.47.65-5.08,3.2L1543,2191l16,55-1,27-12-14-14-39c-12-17-8-62-8-62,1-9,17.55-11.05,17.55-11.05a69.35,69.35,0,0,1,14.7.73c42,33.39,59.51,0,59.51,0,12.44-.37,20.62,3.68,26,8.89,0,0,11.24,5.43,9.24,21.43l-35,78-15-10Z"/><path class="cls-7" d="M1594,2262.58s-21.84,5-21.15,6.65c0,0-3.3,2.84,2.46,1.73l7.45-1.8-12.86,17.18s-.31,4.11,2.4,1l5.87-7.83.56-.76-7.44,11a1.8,1.8,0,0,0,2.4,1c1.71-.7,7.44-11,7.44-11l-5.73,10.29a1.8,1.8,0,0,0,2.4,1c1.7-.7,5.73-10.3,5.73-10.3l1.71-.69-1.5,6s2.2,1.81,2.55-.39l10.49-16.29Z"/><polygon class="cls-16" points="1616 2256 1596.8 2273.83 1594 2263 1608 2239 1616 2256"/><path class="cls-7" d="M1934.32,2121.24v16.44l-19.81,11c36.79,32.87,59.43,0,59.43,0l-19.81-11v-16.44"/><circle class="cls-7" cx="1945.96" cy="2083.64" r="44.9"/><path class="cls-10" d="M1946.9,2084.33s-1.23-14.57,12.16-8.22C1959.06,2076.11,1959.69,2087.1,1946.9,2084.33Z"/><circle class="cls-11" cx="1952.78" cy="2079.02" r="4.25"/><rect x="1947.1" y="2067.19" width="20.87" height="3.18" rx="1.59" ry="1.59"/><path class="cls-6" d="M1936,2086.66s-.16.29-.44.76c-1,1.69-3.57,5.69-5.68,6.74H1936"/><path class="cls-12" d="M1908.62,2059.13s-5.81-39.12,17.71-43.35h38.06s16.39.53,21.15,19v24.32Z"/><path class="cls-13" d="M1946.76,2012.22s-2.65-.27-2.52,2.84H1950S1950.21,2012,1946.76,2012.22Z"/><path class="cls-13" d="M1985.54,2049.29h33.9s-.14,8.85-8,9.51l-25.9.33Z"/><path class="cls-13" d="M1908.12,2044.12s6.45-2,8.83,4v11l-8.33-.33Z"/><polygon class="cls-14" points="1908.54 2056.62 1916.95 2056.62 1916.95 2059.13 1908.62 2059.13 1908.54 2056.62"/><path class="cls-10" d="M1915.66,2075.38s11.27-9.33,13.69,5.3C1929.35,2080.68,1920.68,2087.46,1915.66,2075.38Z"/><circle class="cls-11" cx="1923.37" cy="2077.18" r="4.25"/><rect x="1913.2" y="2067.19" width="20.87" height="3.18" rx="1.59" ry="1.59"/><ellipse class="cls-15" cx="1939.58" cy="2114.75" rx="9.42" ry="2.75"/><rect class="cls-8" x="1908" y="2302.81" width="39" height="178.19" transform="translate(99.69 -77.02) rotate(2.35)"/><path d="M1913.93,2480.76s-24.39-4-25.82,7.61l-1.44,11.63h61.38l-.64-19.24Z"/><path class="cls-7" d="M1793.9,2186.12s-18.94,11.94-19.65,10.24c0,0-4.34.32.51-3l6.55-4-21.25-3.07s-3.12-2.68,1-2.41l9.69,1.4.93.13-13-2.52a1.79,1.79,0,0,1,1-2.4c1.69-.72,13,2.52,13,2.52l-11.34-3.24a1.81,1.81,0,0,1,1-2.41c1.7-.71,11.33,3.24,11.33,3.24l1.7-.72-5.3-3.18s.28-2.84,2.08-1.53l18.94,4.11Z"/><polyline class="cls-8" points="1955.6 2483.49 1951.07 2385.63 1948.67 2387.16"/><polyline class="cls-8" points="1942 2303.61 1982.25 2300.01 1997.05 2483.49 1955.6 2483.49"/><ellipse class="cls-9" cx="1955.16" cy="2327.26" rx="2.46" ry="3.06"/><ellipse class="cls-9" cx="1955.16" cy="2338.16" rx="2.46" ry="3.06"/><path class="cls-9" d="M1951.09,2325.2s-2.84,33.83,6.41,27.57v3.84s-9.18,7.1-9.37-30.47Z"/><polygon class="cls-10" points="1991.47 2482.1 1988.92 2482.34 1978.76 2314.36 1981.31 2314.13 1991.47 2482.1"/><polygon class="cls-10" points="1985.12 2482.1 1982.56 2482.34 1972.4 2314.36 1974.95 2314.13 1985.12 2482.1"/><path class="cls-58" d="M1965.88,2480.76s-24.39-4-25.83,7.61l-1.43,11.63H2000l-.64-19.24Z"/><path class="cls-16" d="M1888.35,2150.36a37.49,37.49,0,0,1,11.2-3.41,69.35,69.35,0,0,1,14.7.73c42,33.39,59.51,0,59.51,0a40.32,40.32,0,0,1,15.65,2.35s10.59,1,10.59,7c0,0,6,11.11-16.49,25.06l2,117.88-74.15,5.89-.88-38.81-2-89.87L1860,2183l-54,6-15,4-4-18,90-17Z"/><path class="cls-7" d="M1842,2197.91s-13.56,17.82-14.82,16.48c0,0-4,1.82-.56-3l4.74-6-21,4.57s-3.86-1.42.08-2.6l9.56-2.09.93-.2-13.09,2.21a1.8,1.8,0,0,1,.08-2.6c1.34-1.26,13.09-2.21,13.09-2.21l-11.75.95a1.81,1.81,0,0,1,.08-2.61c1.34-1.26,11.75-.94,11.75-.94l1.34-1.26-6.08-1.13s-.74-2.76,1.41-2.16l19.18-2.78Z"/><rect class="cls-59" x="2105" y="2000" width="350" height="500"/><path class="cls-7" d="M2265.58,2118.27l2.88,16.17-17.59,14.26c42,25.92,58.52-10.4,58.52-10.4L2288,2131l-2.87-16.18"/><circle class="cls-7" cx="2270.47" cy="2079.2" r="44.9"/><path class="cls-10" d="M2271.51,2079.72s-3.76-14.13,10.54-10.22C2282.05,2069.5,2284.59,2080.2,2271.51,2079.72Z"/><circle class="cls-11" cx="2276.37" cy="2073.47" r="4.25"/><rect x="2268.83" y="2060.96" width="20.87" height="3.18" rx="1.59" ry="1.59" transform="translate(-325.79 430.73) rotate(-10.08)"/><path class="cls-6" d="M2261.2,2083.92s-.11.32-.3.82c-.7,1.84-2.52,6.23-4.42,7.63l6-1.07"/><path class="cls-12" d="M2229.41,2061.61s-12.57-37.5,9.85-45.78l16.92-3,.65-.11,19.91-3.54s16.23-2.35,24.15,15l4.25,23.94Z"/><path class="cls-13" d="M2258.76,2008.74s-2.67.21-2,3.24l5.66-1S2262.12,2007.94,2258.76,2008.74Z"/><path class="cls-13" d="M2303.42,2038.45l33.38-5.93s1.42,8.74-6.21,10.77l-25.45,4.86Z"/><path class="cls-13" d="M2226.29,2046.91s6-3.06,9.39,2.38l1.93,10.86-8.25,1.13Z"/><polygon class="cls-14" points="2228.89 2059.15 2237.17 2057.68 2237.61 2060.15 2229.41 2061.61 2228.89 2059.15"/><path class="cls-10" d="M2239.19,2076.38s9.46-11.16,14.4,2.82C2253.59,2079.2,2246.25,2087.39,2239.19,2076.38Z"/><circle class="cls-11" cx="2247.1" cy="2076.8" r="4.25"/><rect x="2235.45" y="2066.89" width="20.87" height="3.18" rx="1.59" ry="1.59" transform="translate(-327.34 424.98) rotate(-10.08)"/><ellipse class="cls-15" cx="2269.63" cy="2110.95" rx="9.42" ry="2.75" transform="translate(-334.41 429.79) rotate(-10.08)"/><rect class="cls-8" x="2266" y="2302.81" width="39" height="178.19" transform="translate(100 -91.7) rotate(2.35)"/><path d="M2271.93,2480.76s-24.39-4-25.82,7.61l-1.44,11.63h61.38l-.64-19.24Z"/><path class="cls-7" d="M2159.32,2227.21s-20.93,7.94-20,9.53c0,0-2.87,3.27,2.68,1.37l7.13-2.82-10.35,18.81s.27,4.11,2.52.66l4.72-8.57.45-.83-5.83,11.92a1.79,1.79,0,0,0,2.51.66c1.59-.92,5.84-11.92,5.84-11.92l-4.25,11a1.8,1.8,0,0,0,2.52.66c1.59-.93,4.25-11,4.25-11l1.59-.93-.65,6.15s2.44,1.49,2.47-.74l8.12-17.6Z"/><polyline class="cls-8" points="2313.6 2483.49 2309.07 2385.63 2306.67 2387.16"/><polyline class="cls-8" points="2300 2303.61 2340.25 2300.01 2355.05 2483.49 2313.6 2483.49"/><ellipse class="cls-9" cx="2313.16" cy="2327.26" rx="2.46" ry="3.06"/><ellipse class="cls-9" cx="2313.16" cy="2338.16" rx="2.46" ry="3.06"/><path class="cls-9" d="M2309.09,2325.2s-2.84,33.83,6.41,27.57v3.84s-9.18,7.1-9.37-30.47Z"/><polygon class="cls-10" points="2349.47 2482.1 2346.92 2482.34 2336.76 2314.36 2339.31 2314.13 2349.47 2482.1"/><polygon class="cls-10" points="2343.12 2482.1 2340.56 2482.34 2330.4 2314.36 2332.95 2314.13 2343.12 2482.1"/><path class="cls-58" d="M2323.88,2480.76s-24.39-4-25.83,7.61l-1.43,11.63H2358l-.64-19.24Z"/><path class="cls-16" d="M2325.48,2170l18.34,116.46-72.6,16.16-6.28-38.31-14.53-88.71c-1.84-.35-3.35,1.13-4.6,3.88L2192.34,2218l-26.07,22.85-13.68-18.28,74.24-70.66a37.5,37.5,0,0,1,10.61-4.93,69.14,69.14,0,0,1,14.66-1.33c46.19,27.23,58.93-8.29,58.93-8.29a40.32,40.32,0,0,1,15.82.16s10.63-.52,11.46,5.42C2338.31,2142.89,2345.83,2153.06,2325.48,2170Z"/><path class="cls-7" d="M2239.81,2242.08s-1.92,22.31-3.7,21.85c0,0-2.37,3.66-2.05-2.19l.77-7.64-15.27,15.09s-4,.87-1.33-2.24l7-6.88.68-.66-9.88,8.86a1.8,1.8,0,0,1-1.33-2.24c.46-1.78,9.88-8.87,9.88-8.87l-9.42,7.09a1.8,1.8,0,0,1-1.32-2.24c.45-1.78,9.42-7.09,9.42-7.09l.45-1.78-5.74,2.3s-2.09-1.93,0-2.57l14.71-12.62Z"/><polygon class="cls-60" points="2337.26 2156.6 2245.3 2249.88 2224.82 2240.65 2313.4 2152.45 2337.26 2156.6"/><path class="cls-16" d="M2344,2286s2,14-1,14l-72,3Z"/><polygon class="cls-16" points="1966.31 2164 1985 2179.88 1833.3 2209 1830 2191.79 1966.31 2164"/><rect class="cls-44" x="7" y="2499" width="350" height="500"/><rect class="cls-45" x="355" y="2499" width="350" height="500"/><rect class="cls-46" x="705" y="2499" width="350" height="500"/><rect class="cls-47" x="1055" y="2499" width="350" height="500"/><rect class="cls-48" x="1405" y="2499" width="350" height="500"/><rect class="cls-49" x="1755" y="2499" width="350" height="500"/><path class="cls-7" d="M135.56,2825.19v16.3l-19.66,10.87c36.51,32.61,59,0,59,0l-19.65-10.87v-16.3"/><circle class="cls-7" cx="147.11" cy="2787.88" r="44.55"/><path class="cls-7" d="M237,2895.84s-1.9-22.14-.08-22c0,0,1.69-4,2.37,1.8l.55,7.59,12.37-17.34s3.78-1.53,1.67,2l-5.64,7.9-.54.77,8.15-10.35a1.78,1.78,0,0,1,1.67,2c-.14,1.83-8.15,10.35-8.15,10.35l8-8.52a1.78,1.78,0,0,1,1.67,2c-.14,1.82-8,8.53-8,8.53l-.15,1.82,5.22-3.23s2.38,1.54.41,2.53l-12.24,14.83Z"/><path class="cls-16" d="M105.14,2963.62l1.3-78.87s-12.59-5.88-12.59,7.85L88,2934.77s-1.93,7.85,5.81,6.87l31-3.92,1,16.67L88,2958.31s-23.23,3.93-17.42-27.46l9.68-51s2.9-30.41,35.82-29.43c0,0,17.42,33.35,59,0,0,0,22-3.74,27.78,5.94l8.71,41.62,2.91,18.4L233.81,2887l13,8-15,29s-17.92,31.14-37.46,1.57L181,2879.85l-1.89,83.79Z"/><path class="cls-12" d="M186.39,2766.56s5.77-38.81-17.58-43H131.05s-16.26.52-21,18.88v24.13Z"/><path class="cls-13" d="M148.54,2720s2.64-.26,2.51,2.82h-5.71S145.12,2719.81,148.54,2720Z"/><path class="cls-13" d="M110.07,2756.79H76.43s.13,8.79,7.94,9.44l25.7.33Z"/><path class="cls-13" d="M186.89,2751.66s-6.4-1.95-8.77,4v10.95l8.27-.33Z"/><polygon class="cls-14" points="186.47 2764.07 178.13 2764.07 178.13 2766.56 186.39 2766.56 186.47 2764.07"/><polygon class="cls-8" points="179 2999 228.18 2985.62 206.01 2977.22 179 2985.04 179 2999"/><polygon class="cls-8" points="179 2979.39 196.31 2973.54 179 2966.98 179 2979.39"/><polygon class="cls-8" points="179 2999 112.94 2999 105 2964 179 2964 179 2999"/><path class="cls-61" d="M189.72,2682.68c2.63-2.82,5.51-4.95,9.44-5,4.76,0,8.38,2,10.48,6.24s1.83,8.8-1.43,12.32c-5.9,6.38-12.21,12.39-18.85,19.05-2-2.17-3.68-4.25-5.57-6.17-3.85-3.93-7.8-7.75-11.67-11.66-4.78-4.81-5.08-11.59-.77-16.15,4.53-4.8,11.46-4.91,16.56-.26Z"/><path class="cls-7" d="M517.56,2825.19v16.3l-19.66,10.87c36.51,32.61,59,0,59,0l-19.65-10.87v-16.3"/><circle class="cls-7" cx="529.11" cy="2787.88" r="44.55"/><path class="cls-7" d="M619,2895.84s-1.9-22.14-.08-22c0,0,1.69-4,2.37,1.8l.55,7.59,12.37-17.34s3.78-1.53,1.67,2l-5.64,7.9-.54.77,8.15-10.35a1.78,1.78,0,0,1,1.67,2c-.14,1.83-8.15,10.35-8.15,10.35l8-8.52a1.78,1.78,0,0,1,1.67,2c-.14,1.82-8,8.53-8,8.53l-.15,1.82,5.22-3.23s2.38,1.54.41,2.53l-12.24,14.83Z"/><path class="cls-16" d="M487.14,2963.62l1.3-78.87s-12.59-5.88-12.59,7.85L470,2934.77s-1.93,7.85,5.81,6.87l31-3.92,1,16.67L470,2958.31s-23.23,3.93-17.42-27.46l9.68-51s2.9-30.41,35.82-29.43c0,0,17.42,33.35,59,0,0,0,22-3.74,27.78,5.94l8.71,41.62,2.91,18.4L615.81,2887l13,8-15,29s-17.92,31.14-37.46,1.57L563,2879.85l-1.89,83.79Z"/><path class="cls-12" d="M568.39,2766.56s5.77-38.81-17.58-43H513.05s-16.26.52-21,18.88v24.13Z"/><path class="cls-13" d="M530.54,2720s2.64-.26,2.51,2.82h-5.71S527.12,2719.81,530.54,2720Z"/><path class="cls-13" d="M492.07,2756.79H458.43s.13,8.79,7.94,9.44l25.7.33Z"/><path class="cls-13" d="M568.89,2751.66s-6.4-1.95-8.77,4v10.95l8.27-.33Z"/><polygon class="cls-14" points="568.47 2764.07 560.13 2764.07 560.13 2766.56 568.39 2766.56 568.47 2764.07"/><polygon class="cls-8" points="561 2999 610.18 2985.62 588.01 2977.22 561 2985.04 561 2999"/><polygon class="cls-8" points="561 2979.39 578.31 2973.54 561 2966.98 561 2979.39"/><polygon class="cls-8" points="561 2999 494.94 2999 487 2964 561 2964 561 2999"/><path class="cls-61" d="M571.72,2682.68c2.63-2.82,5.51-4.95,9.44-5,4.76,0,8.38,2,10.48,6.24s1.83,8.8-1.43,12.32c-5.9,6.38-12.21,12.39-18.85,19.05-2-2.17-3.68-4.25-5.57-6.17-3.85-3.93-7.8-7.75-11.67-11.66-4.78-4.81-5.08-11.59-.77-16.15,4.53-4.8,11.46-4.91,16.56-.26Z"/><path class="cls-61" d="M517.72,2649.68c2.63-2.82,5.51-4.95,9.44-5,4.76,0,8.38,2,10.48,6.24s1.83,8.8-1.43,12.32c-5.9,6.38-12.21,12.39-18.85,19.05-2-2.17-3.68-4.25-5.57-6.17-3.85-3.93-7.8-7.75-11.67-11.66-4.78-4.81-5.08-11.59-.77-16.15,4.53-4.8,11.46-4.91,16.56-.26Z"/><path class="cls-7" d="M851.56,2825.19v16.3l-19.66,10.87c36.51,32.61,59,0,59,0l-19.65-10.87v-16.3"/><circle class="cls-7" cx="863.11" cy="2787.88" r="44.55"/><path class="cls-7" d="M953,2895.84s-1.9-22.14-.08-22c0,0,1.69-4,2.37,1.8l.55,7.59,12.37-17.34s3.78-1.53,1.67,2l-5.64,7.9-.54.77,8.15-10.35a1.78,1.78,0,0,1,1.67,2c-.14,1.83-8.15,10.35-8.15,10.35l8-8.52a1.78,1.78,0,0,1,1.67,2c-.14,1.82-8,8.53-8,8.53l-.15,1.82,5.22-3.23s2.38,1.54.41,2.53l-12.24,14.83Z"/><path class="cls-16" d="M821.14,2963.62l1.3-78.87s-12.59-5.88-12.59,7.85L804,2934.77s-1.93,7.85,5.81,6.87l31-3.92,1,16.67L804,2958.31s-23.23,3.93-17.42-27.46l9.68-51s2.9-30.41,35.82-29.43c0,0,17.42,33.35,59,0,0,0,22-3.74,27.78,5.94l8.71,41.62,2.91,18.4L949.81,2887l13,8-15,29s-17.92,31.14-37.46,1.57L897,2879.85l-1.89,83.79Z"/><path class="cls-12" d="M902.39,2766.56s5.77-38.81-17.58-43H847.05s-16.26.52-21,18.88v24.13Z"/><path class="cls-13" d="M864.54,2720s2.64-.26,2.51,2.82h-5.71S861.12,2719.81,864.54,2720Z"/><path class="cls-13" d="M826.07,2756.79H792.43s.13,8.79,7.94,9.44l25.7.33Z"/><path class="cls-13" d="M902.89,2751.66s-6.4-1.95-8.77,4v10.95l8.27-.33Z"/><polygon class="cls-14" points="902.47 2764.07 894.13 2764.07 894.13 2766.56 902.39 2766.56 902.47 2764.07"/><polygon class="cls-8" points="895 2999 944.18 2985.62 922.01 2977.22 895 2985.04 895 2999"/><polygon class="cls-8" points="895 2979.39 912.31 2973.54 895 2966.98 895 2979.39"/><polygon class="cls-8" points="895 2999 828.94 2999 821 2964 895 2964 895 2999"/><path class="cls-61" d="M905.72,2682.68c2.63-2.82,5.51-4.95,9.44-5,4.76,0,8.38,2,10.48,6.24s1.83,8.8-1.43,12.32c-5.9,6.38-12.21,12.39-18.85,19.05-2-2.17-3.68-4.25-5.57-6.17-3.85-3.93-7.8-7.75-11.67-11.66-4.78-4.81-5.08-11.59-.77-16.15,4.53-4.8,11.46-4.91,16.56-.26Z"/><path class="cls-61" d="M851.72,2649.68c2.63-2.82,5.51-4.95,9.44-5,4.76,0,8.38,2,10.48,6.24s1.83,8.8-1.43,12.32c-5.9,6.38-12.21,12.39-18.85,19.05-2-2.17-3.68-4.25-5.57-6.17-3.85-3.93-7.8-7.75-11.67-11.66-4.78-4.81-5.08-11.59-.77-16.15,4.53-4.8,11.46-4.91,16.56-.26Z"/><path class="cls-61" d="M902.72,2601.68c2.63-2.82,5.51-4.95,9.44-5,4.76,0,8.38,2,10.48,6.24s1.83,8.8-1.43,12.32c-5.9,6.38-12.21,12.39-18.85,19.05-2-2.17-3.68-4.25-5.57-6.17-3.85-3.93-7.8-7.75-11.67-11.66-4.78-4.81-5.08-11.59-.77-16.15,4.53-4.8,11.46-4.91,16.56-.26Z"/><path class="cls-30" d="M952.27,2885.64l4.59-15.2,4.25-12.37c1.76-3.89,5.65-1.77,5.65-1.77l11,3.89c4.95,1.06,2.83,5.3,2.83,5.3L971.36,2892a3.84,3.84,0,0,1-5,1.77l-12-4.6-1.33-.51.64-1.61"/><path class="cls-31" d="M977.72,2860.19l-1.41,3.53-8.84,24-4.4,4.73,3.34,1.28a3.84,3.84,0,0,0,5-1.77l9.19-26.51S982.67,2861.25,977.72,2860.19Z"/><rect class="cls-32" x="968.88" y="2860.54" width="3.53" height="0.71" rx="0.35" ry="0.35" transform="matrix(-0.96, -0.29, 0.29, -0.96, 1065.59, 5880.47)"/><circle class="cls-32" cx="960.93" cy="2888.64" r="1.24"/><path class="cls-30" d="M956.86,2870.44l-5.1,13.77-.21.55s-1.54,2.88,1.89,4.06Z"/><rect class="cls-29" x="956.79" y="2862.45" width="19.12" height="24.03" rx="0.76" ry="0.76" transform="translate(928.12 5906.78) rotate(-160.7)"/><rect class="cls-33" x="957.51" y="2862.84" width="17.83" height="23" transform="translate(928.31 5906.56) rotate(-160.7)"/><rect class="cls-50" x="961" y="2870" width="12" height="8" transform="translate(1033.55 -157.59) rotate(19.85)"/><line class="cls-51" x1="960" y1="2875.72" x2="974" y2="2872.28"/><line class="cls-51" x1="962.72" y1="2868.2" x2="971.28" y2="2879.8"/><path class="cls-30" d="M618.27,2885.64l4.59-15.2,4.25-12.37c1.76-3.89,5.65-1.77,5.65-1.77l11,3.89c4.95,1.06,2.83,5.3,2.83,5.3L637.36,2892a3.84,3.84,0,0,1-5,1.77l-12-4.6-1.33-.51.64-1.61"/><path class="cls-31" d="M643.72,2860.19l-1.41,3.53-8.84,24-4.4,4.73,3.34,1.28a3.84,3.84,0,0,0,5-1.77l9.19-26.51S648.67,2861.25,643.72,2860.19Z"/><rect class="cls-32" x="634.88" y="2860.54" width="3.53" height="0.71" rx="0.35" ry="0.35" transform="translate(412.08 5783.15) rotate(-163.06)"/><circle class="cls-32" cx="626.93" cy="2888.64" r="1.24"/><path class="cls-30" d="M622.86,2870.44l-5.1,13.77-.21.55s-1.54,2.88,1.89,4.06Z"/><rect class="cls-29" x="622.79" y="2862.45" width="19.12" height="24.03" rx="0.76" ry="0.76" transform="translate(278.9 5796.37) rotate(-160.7)"/><rect class="cls-33" x="623.51" y="2862.84" width="17.83" height="23" transform="translate(279.09 5796.15) rotate(-160.7)"/><rect class="cls-50" x="627" y="2870" width="12" height="8" transform="translate(1013.7 -44.16) rotate(19.85)"/><line class="cls-51" x1="626" y1="2875.72" x2="640" y2="2872.28"/><line class="cls-51" x1="628.72" y1="2868.2" x2="637.28" y2="2879.8"/><path class="cls-30" d="M237.27,2884.64l4.59-15.2,4.25-12.37c1.76-3.89,5.65-1.77,5.65-1.77l11,3.89c4.95,1.06,2.83,5.3,2.83,5.3L256.36,2891a3.84,3.84,0,0,1-5,1.77l-12-4.6-1.33-.51.64-1.61"/><path class="cls-31" d="M262.72,2859.19l-1.41,3.53-8.84,24-4.4,4.73,3.34,1.28a3.84,3.84,0,0,0,5-1.77l9.19-26.51S267.67,2860.25,262.72,2859.19Z"/><rect class="cls-32" x="253.88" y="2859.54" width="3.53" height="0.71" rx="0.35" ry="0.35" transform="translate(-333.09 5670.18) rotate(-163.06)"/><circle class="cls-32" cx="245.93" cy="2887.64" r="1.24"/><path class="cls-30" d="M241.86,2869.44l-5.1,13.77-.21.55s-1.54,2.88,1.89,4.06Z"/><rect class="cls-29" x="241.79" y="2861.45" width="19.12" height="24.03" rx="0.76" ry="0.76" transform="matrix(-0.94, -0.33, 0.33, -0.94, -461.35, 5668.47)"/><rect class="cls-33" x="242.51" y="2861.84" width="17.83" height="23" transform="translate(-461.16 5668.25) rotate(-160.7)"/><rect class="cls-50" x="246" y="2869" width="12" height="8" transform="translate(990.71 85.18) rotate(19.85)"/><line class="cls-51" x1="245" y1="2874.72" x2="259" y2="2871.28"/><line class="cls-51" x1="247.72" y1="2867.2" x2="256.28" y2="2878.8"/></svg>