<svg id="Layer_1" data-name="Layer 1" xmlns="http://www.w3.org/2000/svg" viewBox="0 0 1750 1000"><defs><style>.cls-1{fill:#f9d6b4;}.cls-2{fill:#f4c49d;}.cls-3{fill:#efac7b;}.cls-4{fill:#e28749;}.cls-5{fill:#ffc364;}.cls-6{fill:#fcad95;}.cls-7{fill:none;stroke:#050300;}.cls-10,.cls-11,.cls-18,.cls-7{stroke-miterlimit:10;}.cls-10,.cls-7{stroke-width:0.25px;}.cls-8{fill:#f4e6d7;}.cls-9{fill:#23a6e8;}.cls-10{fill:#fff;}.cls-10,.cls-11{stroke:#fff;}.cls-12{fill:#faffff;}.cls-13{fill:#d18f82;}.cls-14{fill:#f86744;}.cls-15{fill:#91e5f9;}.cls-16{fill:#160b03;opacity:0.4;}.cls-17,.cls-18{fill:#f19538;}.cls-18{stroke:#f19538;}.cls-19{fill:#c41707;}.cls-20{fill:#dbdce6;}.cls-21{fill:#a0a0a0;}.cls-22{fill:#7c7a79;}.cls-23{fill:#545454;}.cls-24{fill:#bcbcbc;}.cls-25{fill:#050505;}.cls-26{fill:#dd9385;}.cls-27{fill:#d3d2d1;}.cls-28{fill:#f79d89;}.cls-29{fill:#1e1e1e;}</style></defs><title>sara_saetter_sig</title><rect class="cls-1" x="350" width="350" height="500"/><rect class="cls-2" x="700" width="350" height="500"/><rect class="cls-3" x="1050" width="350" height="500"/><rect class="cls-4" x="1400" width="350" height="500"/><path class="cls-5" d="M146.94,102.16l2.6-.18S148,103.87,146.94,102.16Z"/><line class="cls-6" x1="186.62" y1="319.7" x2="164.57" y2="321"/><path class="cls-7" d="M222.13,288.32l7.28,2.17s1.49,28.31-14.86,25.08"/><rect class="cls-8" width="350" height="500"/><path class="cls-6" d="M177,185.1s13.43.43,17.29,19.89l5,52.39s6.59,4.08,9.22,62.19l-.06,1.93s27-3,28.6,16.39c0,0-.06,1.93-2.24-.07h0l-2.12-3.94h0l-2.17-2,2,5.87s-.06,1.93-2.24-.08l-2-5.86-.18,5.79s-2.3,1.86-2.24-.07l-2-7.8s-6.84,3.65-9,1.65l6.53,6a2,2,0,0,1-2.3,1.86L201.58,329s-1.93-9.73-1.87-11.67Z"/><path class="cls-9" d="M169.71,186.53s4.48-2.24,13.43,0l20.15,20.15-11.65,10.23Z"/><rect class="cls-6" x="107" y="61.81" width="87.31" height="107.78" rx="43.66" ry="43.66"/><path class="cls-6" d="M142.82,166.69v13.44l-15.67,9c29.1,26.87,47,0,47,0l-15.67-9V166.69"/><path class="cls-10" d="M186.3,117.35S181.24,98.2,167,112.41C167,112.41,171.24,126.7,186.3,117.35Z"/><circle class="cls-11" cx="176.38" cy="113.26" r="5.76"/><ellipse class="cls-12" cx="178.03" cy="110.29" rx="1.48" ry="1.31" transform="translate(-24.34 164.19) rotate(-46.69)"/><path class="cls-13" d="M190.42,124.51l.3.3a11.72,11.72,0,0,0,3.87,2.67h-4.17"/><path class="cls-5" d="M125.51,164.83c-1.71-.32-3.43-.61-5.17-.8-3.7-.4-7.28-.48-10.54-1.23.37.27.74.53,1.14.79,0,0-9.17,9.81-2.77,15.53,0,0-10.38,2.73-.76,18.18,0,0-12,11.61-4.34,24.41,0,0,.82,9.31-6.77,10.25,0,0,14,4.78,17.55-15.2,0,0,4.76-12.89-1.64-18.61,0,0,8.77-7.59,2.37-13.31,0,0,8.77-7.6,5.16-15.11C119.74,169.73,124.07,170.49,125.51,164.83Z"/><path class="cls-5" d="M127.15,162.66l-1.8,3.1L110,163.21s-20.92-53.89,1-76.07c0,0,2.86-25.62,36-25.18,0,0,17.75-4.32,29.27,8.27,0,0,4.68,1.44,9.38,8.29C185.72,78.52,129,130.21,127.15,162.66Z"/><path class="cls-14" d="M172.63,144.84s5.05-3.36,8.54-1.87c0,0,5.1-1.76,8.64,1.33,0,0,.2,6.39-8.39,6.66C181.42,151,172.83,151.23,172.63,144.84Z"/><path class="cls-15" d="M121.2,296.2A119.29,119.29,0,0,0,122,309a52.38,52.38,0,0,0,2.39-34.59l-2.69-4.93C121.46,278.41,121.24,287.31,121.2,296.2Z"/><path class="cls-15" d="M198.29,229.68c-20.15-42.54-29.1-44.78-29.1-44.78H132.1a5.65,5.65,0,0,1-1.27.79c-.07.07-.12.14-.2.21-6.34,6.12-5.66,16.54-7.48,24.73,0,19-.81,37.89-1.38,56.84-.29,9.57-.52,19.15-.57,28.73,0,7.91,1.32,15.64,1.81,23.48,37.7,17.71,66.32-2.69,66.32-2.69l-9-17.91,6.72-42.54C202.77,249.82,198.29,229.68,198.29,229.68Z"/><path class="cls-16" d="M168.22,253.38s12.32,6.72,24.63,0C192.85,253.38,180.54,262.34,168.22,253.38Z"/><path class="cls-6" d="M203,360.31s24.29-6.08,25.8,12.15c0,0,7.33,69.15,2.76,91.57l.14.48a106.92,106.92,0,0,0-15.51,1.86l-12.73-88.19Z"/><path class="cls-6" d="M213.79,438.44,215,483.21s-1.17,16.53,5.32,16.36l45.44-1.24s19.16-12.31-11.93-20.89l-11.36.3s-11.3,2.67-8.38-9.2l-.83-30.63Z"/><path class="cls-17" d="M253.83,477.44s31.09,8.58,11.93,20.89l-11.36.31Z"/><polygon class="cls-17" points="234.66 475.82 214.82 476.36 214.5 471.32 234.16 470.78 234.66 475.82"/><path class="cls-17" d="M215,489.1,254.12,488l.28,10.6-34.08.93S215.09,499.71,215,489.1Z"/><path class="cls-6" d="M193.35,364.81s3.62,73.4-2.13,96.81l.11.51a99.59,99.59,0,0,0-15.59,1.09l-8-93.79"/><path class="cls-6" d="M174.83,433.6l-1.17,47.32s-2.06,17.39,4.43,17.57l45.45,1.26s19.78-11.91-10.81-22.73l-11.36-.32s-11.42,2.18-7.87-10.18l.81-32.38Z"/><path class="cls-17" d="M212.73,477s30.59,10.82,10.81,22.73l-11.36-.32Z"/><polygon class="cls-17" points="193.68 474.24 173.84 473.69 173.79 468.34 193.45 468.89 193.68 474.24"/><path class="cls-17" d="M173.32,487.14l39.14,1.09-.28,11.2-34.09-.94S172.86,498.34,173.32,487.14Z"/><path class="cls-6" d="M207,375.92s-15.52-.56-17.86-5.83l15.6-4Z"/><path class="cls-6" d="M170,377.19s-15.52-.7-17.87-7.34l15.61-5Z"/><path class="cls-18" d="M136.55,374.32c22.77-1.09,55.75-2.85,71.21-4.05q9.53-1.18,19-2.23c-4.73-13.78-12.09-29.64-22.34-36.35,0,0-11.06-7.61-15.88-17.67a104.45,104.45,0,0,1-14.16,3.41c-21.86,3.71-41.26.32-49.53-1.46C124.88,316,100.27,376.07,136.55,374.32Z"/><rect class="cls-6" x="455" y="63.81" width="87.31" height="107.78" rx="43.66" ry="43.66"/><path class="cls-6" d="M490.82,168.69v13.44l-15.67,9c29.1,26.87,47,0,47,0l-15.67-9V168.69"/><path class="cls-10" d="M534.3,119.35s-5.06-19.15-19.26-4.94C515,114.41,519.24,128.7,534.3,119.35Z"/><circle class="cls-11" cx="524.38" cy="115.26" r="5.76"/><ellipse class="cls-12" cx="526.03" cy="112.29" rx="1.48" ry="1.31" transform="translate(83.5 418.04) rotate(-46.69)"/><path class="cls-13" d="M538.42,126.51l.3.3a11.72,11.72,0,0,0,3.87,2.67h-4.17"/><path class="cls-5" d="M473.51,166.83c-1.71-.32-3.43-.61-5.17-.8-3.7-.4-7.28-.48-10.54-1.23.37.27.74.53,1.14.79,0,0-9.17,9.81-2.77,15.53,0,0-10.38,2.73-.76,18.18,0,0-12,11.61-4.34,24.41,0,0,.82,9.31-6.77,10.25,0,0,14,4.78,17.55-15.2,0,0,4.76-12.89-1.64-18.61,0,0,8.77-7.59,2.37-13.31,0,0,8.77-7.6,5.16-15.11C467.74,171.73,472.07,172.49,473.51,166.83Z"/><path class="cls-5" d="M475.15,164.66l-1.8,3.1L458,165.21s-20.92-53.89,1-76.07c0,0,2.86-25.62,36-25.18,0,0,17.75-4.32,29.27,8.27,0,0,4.68,1.44,9.38,8.29C533.72,80.52,477,132.21,475.15,164.66Z"/><path class="cls-14" d="M520.63,146.84s5-3.36,8.54-1.87c0,0,5.1-1.76,8.64,1.33,0,0,.2,6.39-8.39,6.66C529.42,153,520.83,153.23,520.63,146.84Z"/><path class="cls-6" d="M551,362.31s24.29-6.08,25.8,12.15c0,0,7.33,69.15,2.76,91.57l.14.48a106.92,106.92,0,0,0-15.51,1.86l-12.73-88.19Z"/><path class="cls-6" d="M561.79,440.44,563,485.21s-1.17,16.53,5.32,16.36l45.44-1.24s19.16-12.31-11.93-20.89l-11.36.3s-11.3,2.67-8.38-9.2l-.83-30.63Z"/><path class="cls-17" d="M601.83,479.44s31.09,8.58,11.93,20.89l-11.36.31Z"/><polygon class="cls-17" points="582.66 477.82 562.82 478.36 562.5 473.32 582.16 472.78 582.66 477.82"/><path class="cls-17" d="M563,491.1,602.12,490l.28,10.6-34.08.93S563.09,501.71,563,491.1Z"/><path class="cls-6" d="M541.35,366.81s3.62,73.4-2.13,96.81l.11.51a99.59,99.59,0,0,0-15.59,1.09l-8-93.79"/><path class="cls-6" d="M522.83,435.6l-1.17,47.32s-2.06,17.39,4.43,17.57l45.45,1.26s19.78-11.91-10.81-22.73l-11.36-.32s-11.42,2.18-7.87-10.18l.81-32.38Z"/><path class="cls-17" d="M560.73,479s30.59,10.82,10.81,22.73l-11.36-.32Z"/><polygon class="cls-17" points="541.68 476.24 521.84 475.69 521.79 470.34 541.45 470.89 541.68 476.24"/><path class="cls-17" d="M521.32,489.14l39.14,1.09-.28,11.2-34.09-.94S520.86,500.34,521.32,489.14Z"/><path class="cls-6" d="M555,377.92s-15.52-.56-17.86-5.83l15.6-4Z"/><path class="cls-6" d="M518,379.19s-15.52-.7-17.87-7.34l15.61-5Z"/><path class="cls-18" d="M484.55,376.32c22.77-1.09,55.75-2.85,71.21-4.05q9.53-1.18,19-2.23c-4.73-13.78-12.09-29.64-22.34-36.35,0,0-11.06-7.61-15.88-17.67a104.45,104.45,0,0,1-14.16,3.41c-21.86,3.71-41.26.32-49.53-1.46C472.88,318,448.27,378.07,484.55,376.32Z"/><path class="cls-6" d="M889.61,185.38s13.43.28,17.44,22.76l5.46,60.57s6.63,4.62,9.71,71.86l-.05,2.24s27-3.92,28.73,18.51c0,0,0,2.24-2.24-.05h0l-2.14-4.52h0l-2.2-2.28,2.1,6.76s0,2.24-2.24-.05l-2.09-6.76-.14,6.71s-2.29,2.2-2.24,0l-2.05-9s-6.81,4.34-9,2.05l6.57,6.86a2.19,2.19,0,0,1-2.28,2.19l-17.68-11.57s-2-11.23-2-13.47Z"/><rect class="cls-6" x="820" y="60.81" width="87.31" height="107.78" rx="43.66" ry="43.66"/><path class="cls-6" d="M855.82,165.69v13.44l-15.67,9c29.1,26.87,47,0,47,0l-15.67-9V165.69"/><path class="cls-10" d="M899.3,116.35S894.24,97.2,880,111.41C880,111.41,884.24,125.7,899.3,116.35Z"/><circle class="cls-11" cx="889.38" cy="112.26" r="5.76"/><ellipse class="cls-12" cx="891.03" cy="109.29" rx="1.48" ry="1.31" transform="translate(200.32 682.7) rotate(-46.69)"/><path class="cls-9" d="M882.71,185.53s4.48-2.24,13.43,0l20.15,20.15-11.65,10.23Z"/><path class="cls-13" d="M903.42,123.51l.3.3a11.72,11.72,0,0,0,3.87,2.67h-4.17"/><path class="cls-5" d="M838.51,163.83c-1.71-.32-3.43-.61-5.17-.8-3.7-.4-7.28-.48-10.54-1.23.37.27.74.53,1.14.79,0,0-9.17,9.81-2.77,15.53,0,0-10.38,2.73-.76,18.18,0,0-12,11.61-4.34,24.41,0,0,.82,9.31-6.77,10.25,0,0,14,4.78,17.55-15.2,0,0,4.76-12.89-1.64-18.61,0,0,8.77-7.59,2.37-13.31,0,0,8.77-7.6,5.16-15.11C832.74,168.73,837.07,169.49,838.51,163.83Z"/><path class="cls-5" d="M840.15,161.66l-1.8,3.1L823,162.21s-20.92-53.89,1-76.07c0,0,2.86-25.62,36-25.18,0,0,17.75-4.32,29.27,8.27,0,0,4.68,1.44,9.38,8.29C898.72,77.52,842,129.21,840.15,161.66Z"/><path class="cls-14" d="M885.63,143.84s5-3.36,8.54-1.87c0,0,5.1-1.76,8.64,1.33,0,0,.2,6.39-8.39,6.66C894.42,150,885.83,150.23,885.63,143.84Z"/><path class="cls-15" d="M834.2,295.2A119.29,119.29,0,0,0,835,308a52.38,52.38,0,0,0,2.39-34.59l-2.69-4.93C834.46,277.41,834.24,286.31,834.2,295.2Z"/><path class="cls-15" d="M911.29,228.68c-20.15-42.54-29.1-44.78-29.1-44.78H845.1a5.65,5.65,0,0,1-1.27.79c-.07.07-.12.14-.2.21-6.34,6.12-5.66,16.54-7.48,24.73,0,19-.81,37.89-1.38,56.84-.29,9.57-.52,19.15-.57,28.73,0,7.91,1.32,15.64,1.81,23.48,37.7,17.71,66.32-2.69,66.32-2.69l-9-17.91,6.72-42.54C915.77,248.82,911.29,228.68,911.29,228.68Z"/><path class="cls-16" d="M881.22,252.38s12.32,6.72,24.63,0C905.85,252.38,893.54,261.34,881.22,252.38Z"/><path class="cls-6" d="M916,359.31s24.29-6.08,25.8,12.15c0,0,7.33,69.15,2.76,91.57l.14.48a106.92,106.92,0,0,0-15.51,1.86l-12.73-88.19Z"/><path class="cls-6" d="M926.79,437.44,928,482.21s-1.17,16.53,5.32,16.36l45.44-1.24s19.16-12.31-11.93-20.89l-11.36.3s-11.3,2.67-8.38-9.2l-.83-30.63Z"/><path class="cls-17" d="M966.83,476.44s31.09,8.58,11.93,20.89l-11.36.31Z"/><polygon class="cls-17" points="947.66 474.82 927.82 475.36 927.5 470.32 947.16 469.78 947.66 474.82"/><path class="cls-17" d="M928,488.1,967.12,487l.28,10.6-34.08.93S928.09,498.71,928,488.1Z"/><path class="cls-6" d="M906.35,363.81s3.62,73.4-2.13,96.81l.11.51a99.59,99.59,0,0,0-15.59,1.09l-8-93.79"/><path class="cls-6" d="M887.83,432.6l-1.17,47.32s-2.06,17.39,4.43,17.57l45.45,1.26s19.78-11.91-10.81-22.73l-11.36-.32s-11.42,2.18-7.87-10.18l.81-32.38Z"/><path class="cls-17" d="M925.73,476s30.59,10.82,10.81,22.73l-11.36-.32Z"/><polygon class="cls-17" points="906.68 473.24 886.84 472.69 886.79 467.34 906.45 467.89 906.68 473.24"/><path class="cls-17" d="M886.32,486.14l39.14,1.09-.28,11.2-34.09-.94S885.86,497.34,886.32,486.14Z"/><path class="cls-6" d="M920,374.92s-15.52-.56-17.86-5.83l15.6-4Z"/><path class="cls-6" d="M883,376.19s-15.52-.7-17.87-7.34l15.61-5Z"/><path class="cls-18" d="M849.55,373.32c22.77-1.09,55.75-2.85,71.21-4.05q9.53-1.18,19-2.23c-4.73-13.78-12.09-29.64-22.34-36.35,0,0-11.06-7.61-15.88-17.67a104.45,104.45,0,0,1-14.16,3.41c-21.86,3.71-41.26.32-49.53-1.46C837.88,315,813.27,375.07,849.55,373.32Z"/><path class="cls-6" d="M835.12,239.49l11.36-13.94L863.86,257l18.94,21.86s-7.4,24.59-18.73.34Z"/><path class="cls-9" d="M849.35,184.59s-11.2-2.24-15.68,9c0,0-6.71,15.67-6.71,42.53,0,0,8.95,9,35.82,6.72C862.78,242.8,878.45,191.31,849.35,184.59Z"/><path class="cls-19" d="M943.15,256.09a1.1,1.1,0,0,0,.56,1.34,1.12,1.12,0,0,0,.49.91s-.33,1.34.24,1.91c0,0,.32,3.6.81,4.37l1,8.54s.33,3.25.89,3.6a12.4,12.4,0,0,0,.57,3.95s-.08,3.67,1,4.52v1.41s.64,2.4,12.51,1.76c0,0,8.31-.14,6.78-3.46,0,0,.81-.56,1.05-7.76,0,0,.4-.14,1-8.53,0,0,.48-.92.56-4.8,0,0,.33-.21.17-.92,0,0,.64,0,.48-3,0,0,.49.42.32-1.84a1.22,1.22,0,0,0,.41-1s.56.07.48-1Z"/><ellipse class="cls-20" cx="957.8" cy="256.15" rx="14.72" ry="2.15"/><path class="cls-6" d="M881.05,277.9l65.15-13.59,12.71,4,12.57,4s.6,2.3-1.56,2.87l-10.47-4.59-2.17.58,15.41,5.74a2.3,2.3,0,0,1-1.56,2.87l-13.24-6.31-2.17.57L969,280.38a2.31,2.31,0,0,1-1.56,2.88L954.17,277l-2.17.57,8.31,5.17s.61,2.3-1.55,2.87l-25.88-10.33-58.42,15.55"/><path class="cls-6" d="M1257,375.92s-15.52-.56-17.86-5.83l15.6-4Z"/><path class="cls-6" d="M1220,377.19s-15.52-.7-17.87-7.34l15.61-5Z"/><path class="cls-19" d="M1260.15,204.09a1.1,1.1,0,0,0,.56,1.34,1.12,1.12,0,0,0,.49.91s-.33,1.34.24,1.91c0,0,.32,3.6.81,4.37l1,8.54s.33,3.25.89,3.6a12.4,12.4,0,0,0,.57,4s-.08,3.67,1,4.52v1.41s.64,2.4,12.51,1.76c0,0,8.31-.14,6.78-3.46,0,0,.81-.56,1-7.76,0,0,.4-.14,1-8.53,0,0,.48-.92.56-4.8,0,0,.33-.21.17-.92,0,0,.64,0,.48-3,0,0,.49.42.32-1.84a1.22,1.22,0,0,0,.41-1s.56.07.48-1Z"/><ellipse class="cls-20" cx="1274.8" cy="204.15" rx="14.72" ry="2.15"/><path class="cls-6" d="M1224.33,186.61s13.37-1.3,20,20.54l12.56,59.51s7.12,3.81,18.1,70.22l.22,2.23s26.3-7.07,30.71,15c0,0,.22,2.23-2.23.22h0l-2.66-4.24h0l-2.45-2,2.88,6.47s.22,2.23-2.23.22l-2.88-6.47L1297,355s-2,2.45-2.23.22l-3.1-8.69s-6.25,5.1-8.7,3.09l7.34,6a2.19,2.19,0,0,1-2,2.44l-18.91-9.4s-3.32-10.92-3.54-13.15Z"/><rect class="cls-6" x="1157" y="61.81" width="87.31" height="107.78" rx="43.66" ry="43.66"/><path class="cls-6" d="M1192.82,166.69v13.44l-15.67,9c29.1,26.87,47,0,47,0l-15.67-9V166.69"/><path class="cls-10" d="M1236.3,117.35s-5.06-19.15-19.26-4.94C1217,112.41,1221.24,126.7,1236.3,117.35Z"/><circle class="cls-11" cx="1226.38" cy="113.26" r="5.76"/><ellipse class="cls-12" cx="1228.03" cy="110.29" rx="1.48" ry="1.31" transform="translate(305.44 928.24) rotate(-46.69)"/><path class="cls-9" d="M1219.71,186.53s4.48-2.24,13.43,0l20.15,20.15-11.65,10.23Z"/><path class="cls-13" d="M1240.42,124.51l.3.3a11.72,11.72,0,0,0,3.87,2.67h-4.17"/><path class="cls-5" d="M1175.51,164.83c-1.71-.32-3.43-.61-5.17-.8-3.7-.4-7.28-.48-10.54-1.23.37.27.74.53,1.14.79,0,0-9.17,9.81-2.77,15.53,0,0-10.38,2.73-.76,18.18,0,0-12,11.61-4.34,24.41,0,0,.82,9.31-6.77,10.25,0,0,14,4.78,17.55-15.2,0,0,4.76-12.89-1.64-18.61,0,0,8.77-7.59,2.37-13.31,0,0,8.77-7.6,5.16-15.11C1169.74,169.73,1174.07,170.49,1175.51,164.83Z"/><path class="cls-5" d="M1177.15,162.66l-1.8,3.1L1160,163.21s-20.92-53.89,1-76.07c0,0,2.86-25.62,36-25.18,0,0,17.75-4.32,29.27,8.27,0,0,4.68,1.44,9.38,8.29C1235.72,78.52,1179,130.21,1177.15,162.66Z"/><path class="cls-14" d="M1222.63,144.84s5-3.36,8.54-1.87c0,0,5.1-1.76,8.64,1.33,0,0,.2,6.39-8.39,6.66C1231.42,151,1222.83,151.23,1222.63,144.84Z"/><path class="cls-15" d="M1171.2,296.2A119.29,119.29,0,0,0,1172,309a52.38,52.38,0,0,0,2.39-34.59l-2.69-4.93C1171.46,278.41,1171.24,287.31,1171.2,296.2Z"/><path class="cls-15" d="M1248.29,229.68c-20.15-42.54-29.1-44.78-29.1-44.78H1182.1a5.65,5.65,0,0,1-1.27.79c-.07.07-.12.14-.2.21-6.34,6.12-5.66,16.54-7.48,24.73,0,19-.81,37.89-1.38,56.84-.29,9.57-.52,19.15-.57,28.73,0,7.91,1.32,15.64,1.81,23.48,37.7,17.71,66.32-2.69,66.32-2.69l-8.95-17.91,6.72-42.54C1252.77,249.82,1248.29,229.68,1248.29,229.68Z"/><path class="cls-16" d="M1218.22,253.38s12.32,6.72,24.63,0C1242.85,253.38,1230.54,262.34,1218.22,253.38Z"/><path class="cls-6" d="M1253,360.31s24.29-6.08,25.8,12.15c0,0,7.33,69.15,2.76,91.57l.14.48a106.92,106.92,0,0,0-15.51,1.86l-12.73-88.19Z"/><path class="cls-6" d="M1263.79,438.44l1.21,44.77s-1.17,16.53,5.32,16.36l45.44-1.24s19.16-12.31-11.93-20.89l-11.36.3s-11.3,2.67-8.38-9.2l-.83-30.63Z"/><path class="cls-17" d="M1303.83,477.44s31.09,8.58,11.93,20.89l-11.36.31Z"/><polygon class="cls-17" points="1284.66 475.82 1264.82 476.36 1264.5 471.32 1284.16 470.78 1284.66 475.82"/><path class="cls-17" d="M1265,489.1l39.14-1.06.28,10.6-34.08.93S1265.09,499.71,1265,489.1Z"/><path class="cls-6" d="M1243.35,364.81s3.62,73.4-2.13,96.81l.11.51a99.59,99.59,0,0,0-15.59,1.09l-8-93.79"/><path class="cls-6" d="M1224.83,433.6l-1.17,47.32s-2.06,17.39,4.43,17.57l45.45,1.26s19.78-11.91-10.81-22.73l-11.36-.32s-11.42,2.18-7.87-10.18l.81-32.38Z"/><path class="cls-17" d="M1262.73,477s30.59,10.82,10.81,22.73l-11.36-.32Z"/><polygon class="cls-17" points="1243.68 474.24 1223.84 473.69 1223.79 468.34 1243.45 468.89 1243.68 474.24"/><path class="cls-17" d="M1223.32,487.14l39.14,1.09-.28,11.2-34.09-.94S1222.86,498.34,1223.32,487.14Z"/><path class="cls-18" d="M1186.55,374.32c22.77-1.09,55.75-2.85,71.21-4.05q9.52-1.18,19-2.23c-4.73-13.78-12.09-29.64-22.34-36.35,0,0-11.06-7.61-15.88-17.67a104.45,104.45,0,0,1-14.16,3.41c-21.86,3.71-41.26.32-49.53-1.46C1174.88,316,1150.27,376.07,1186.55,374.32Z"/><path class="cls-6" d="M1167.12,223.49l11.36-13.94L1195.86,241l18.94,21.86s-7.4,24.59-18.73.34Z"/><path class="cls-6" d="M1210.1,257l52.14-41.37,13.16-2.09,13-2.07a2.3,2.3,0,0,1-.1,3.27l-11.42.59-1.68,1.49,16.34-1.79s1.58,1.79-.1,3.27l-14.67.3-1.67,1.48,14.66-.29s1.58,1.78-.1,3.26l-14.67.3-1.67,1.48,9.74.89s1.57,1.79-.1,3.27l-27.76,2.38L1210,271.45"/><path class="cls-9" d="M1186.35,185.59s-11.2-2.24-15.68,9c0,0-6.71,15.67-6.71,42.53,0,0,9,9,35.82,6.72C1199.78,243.8,1215.45,192.31,1186.35,185.59Z"/><path class="cls-6" d="M525,189.1s13.43.43,17.29,19.89l5,52.39s6.59,4.08,9.22,62.19l-.06,1.93s27-3,28.6,16.39c0,0-.06,1.93-2.24-.07h0l-2.12-3.94h0l-2.17-2,2,5.87s-.06,1.93-2.24-.08l-2-5.86-.18,5.79s-2.3,1.86-2.24-.07l-2-7.8s-6.84,3.65-9,1.65l6.53,6a2,2,0,0,1-2.3,1.86L549.58,333s-1.93-9.73-1.87-11.67Z"/><path class="cls-9" d="M517.71,188.53s4.48-2.24,13.43,0l20.15,20.15-11.65,10.23Z"/><path class="cls-15" d="M470.2,297.3a119.29,119.29,0,0,0,.82,12.84,52.38,52.38,0,0,0,2.39-34.59l-2.69-4.93C470.46,279.51,470.24,288.41,470.2,297.3Z"/><path class="cls-15" d="M547.29,230.78c-20.15-42.54-29.1-44.78-29.1-44.78H481.1a5.65,5.65,0,0,1-1.27.79c-.07.07-.12.14-.2.21-6.34,6.12-5.66,16.54-7.48,24.73,0,19-.81,37.89-1.38,56.84-.29,9.57-.52,19.15-.57,28.73,0,7.91,1.32,15.64,1.81,23.48,37.7,17.72,66.32-2.69,66.32-2.69l-9-17.91,6.72-42.54C551.77,250.93,547.29,230.78,547.29,230.78Z"/><path class="cls-16" d="M517.22,254.48s12.32,6.72,24.63,0C541.85,254.48,529.54,263.44,517.22,254.48Z"/><path class="cls-6" d="M475.7,286l60.14-6.1,23.85,13.33a2.19,2.19,0,0,0,2-2.45l-7.36-6,2.22-.22,12,7.78a2.21,2.21,0,0,0,2-2.46l-12.05-7.78,2.23-.22,12,7.78a2.2,2.2,0,0,0,2-2.46l-14.26-7.55,2.22-.22,9.59,5.77a2.18,2.18,0,0,0,2-2.45l-11.75-5.52-11.88-5.58c19.82-4.27,10.69-5.59,10.69-5.59-6.91-1.55-26.5,4.94-26.5,4.94l-38.32-.61-11.82,5.39,12-5.14-12.53.31"/><path class="cls-6" d="M475.32,222.68l17.7-3.15-7.36,35.16.06,28.92s-21.65,13.79-14.4-12Z"/><path class="cls-9" d="M484.35,187.59s-11.2-2.24-15.68,9c0,0-6.71,15.67-6.71,42.53,0,0,9,9,35.82,6.72C497.78,245.8,513.45,194.31,484.35,187.59Z"/><path class="cls-6" d="M124.32,219.68l17.7-3.15-7.36,35.16.06,28.92s-21.65,13.79-14.4-12Z"/><path class="cls-6" d="M119,281.06l51.87,31.05,11.16,24.94a2.19,2.19,0,0,0,3.07-.77l-2.31-9.21,1.92,1.15,5,13.43a2.19,2.19,0,0,0,3.07-.77l-5-13.43,1.92,1.15,5,13.43a2.19,2.19,0,0,0,3.07-.77l-6.92-14.58,1.92,1.15L197,338.19a2.19,2.19,0,0,0,3.07-.77L194,326l-6.19-11.58c18.44,8.43,11.91,1.91,11.91,1.91-4.61-5.37-24.2-11.88-24.2-11.88L145.14,281l-12.7-2.74,12.66,3-10.22-7.24"/><path class="cls-9" d="M136.35,185.59s-11.2-2.24-15.68,9c0,0-6.71,15.67-6.71,42.53,0,0,9,9,35.82,6.72C149.78,243.8,165.45,192.31,136.35,185.59Z"/><path class="cls-19" d="M1584.93,154.22a15.42,15.42,0,0,0,2.21,1.14s.56,1.26,1.36,1.36c0,0,2.45,2.65,3.31,3l6,6.16s2.24,2.37,2.91,2.3a12.28,12.28,0,0,0,2.86,2.78s2.18,2.95,3.53,3L1608,175s2,1.5,11-6.26c0,0,6.49-5.2,3.25-6.89,0,0,.29-.94-3.92-6.78,0,0,.23-.36-4.39-7.39,0,0-.18-1-2.49-4.14,0,0,.12-.37-.43-.83,0,0,.51-.39-1.48-2.69,0,0,.64,0-.86-1.65a1.24,1.24,0,0,0-.29-1s.49-.29-.22-1.08Z"/><ellipse class="cls-20" cx="1596.55" cy="145.3" rx="14.72" ry="2.15" transform="translate(244.77 1007.15) rotate(-37.72)"/><path class="cls-6" d="M1571.33,185.61s13.37-1.3,20,20.54l12.56,59.51s7.12,3.81,18.1,70.22l.22,2.23s26.3-7.07,30.71,15c0,0,.22,2.23-2.23.22h0l-2.66-4.24h0l-2.45-2,2.88,6.47s.22,2.23-2.23.22l-2.88-6.47L1644,354s-2,2.45-2.23.22l-3.1-8.69s-6.25,5.1-8.7,3.09l7.34,6a2.19,2.19,0,0,1-2,2.44l-18.91-9.4s-3.32-10.92-3.54-13.15Z"/><rect class="cls-6" x="1504" y="60.81" width="87.31" height="107.78" rx="43.66" ry="43.66"/><path class="cls-6" d="M1539.82,165.69v13.44l-15.67,9c29.1,26.87,47,0,47,0l-15.67-9V165.69"/><path class="cls-10" d="M1579.3,117.35s-5.06-19.15-19.26-4.94C1560,112.41,1564.24,126.7,1579.3,117.35Z"/><circle class="cls-11" cx="1569.38" cy="113.26" r="5.76"/><ellipse class="cls-12" cx="1571.03" cy="110.29" rx="1.48" ry="1.31" transform="translate(413.16 1177.83) rotate(-46.69)"/><path class="cls-9" d="M1566.71,185.53s4.48-2.24,13.43,0l20.15,20.15-11.65,10.23Z"/><path class="cls-13" d="M1587.42,123.51l.3.3a11.72,11.72,0,0,0,3.87,2.67h-4.17"/><path class="cls-5" d="M1522.51,163.83c-1.71-.32-3.43-.61-5.17-.8-3.7-.4-7.28-.48-10.54-1.23.37.27.74.53,1.14.79,0,0-9.17,9.81-2.77,15.53,0,0-10.38,2.73-.76,18.18,0,0-12,11.61-4.34,24.41,0,0,.82,9.31-6.77,10.25,0,0,14,4.78,17.55-15.2,0,0,4.76-12.89-1.64-18.61,0,0,8.77-7.59,2.37-13.31,0,0,8.77-7.6,5.16-15.11C1516.74,168.73,1521.07,169.49,1522.51,163.83Z"/><path class="cls-5" d="M1524.15,161.66l-1.8,3.1L1507,162.21s-20.92-53.89,1-76.07c0,0,2.86-25.62,36-25.18,0,0,17.75-4.32,29.27,8.27,0,0,4.68,1.44,9.38,8.29C1582.72,77.52,1526,129.21,1524.15,161.66Z"/><path class="cls-15" d="M1518.2,295.2A119.29,119.29,0,0,0,1519,308a52.38,52.38,0,0,0,2.39-34.59l-2.69-4.93C1518.46,277.41,1518.24,286.31,1518.2,295.2Z"/><path class="cls-15" d="M1595.29,228.68c-20.15-42.54-29.1-44.78-29.1-44.78H1529.1a5.65,5.65,0,0,1-1.27.79c-.07.07-.12.14-.2.21-6.34,6.12-5.66,16.54-7.48,24.73,0,19-.81,37.89-1.38,56.84-.29,9.57-.52,19.15-.57,28.73,0,7.91,1.32,15.64,1.81,23.48,37.7,17.71,66.32-2.69,66.32-2.69l-8.95-17.91,6.72-42.54C1599.77,248.82,1595.29,228.68,1595.29,228.68Z"/><path class="cls-16" d="M1565.22,252.38s12.32,6.72,24.63,0C1589.85,252.38,1577.54,261.34,1565.22,252.38Z"/><path class="cls-6" d="M1600,359.31s24.29-6.08,25.8,12.15c0,0,7.33,69.15,2.76,91.57l.14.48a106.92,106.92,0,0,0-15.51,1.86l-12.73-88.19Z"/><path class="cls-6" d="M1610.79,437.44l1.21,44.77s-1.17,16.53,5.32,16.36l45.44-1.24s19.16-12.31-11.93-20.89l-11.36.3s-11.3,2.67-8.38-9.2l-.83-30.63Z"/><path class="cls-17" d="M1650.83,476.44s31.09,8.58,11.93,20.89l-11.36.31Z"/><polygon class="cls-17" points="1631.66 474.82 1611.82 475.36 1611.5 470.32 1631.16 469.78 1631.66 474.82"/><path class="cls-17" d="M1612,488.1l39.14-1.06.28,10.6-34.08.93S1612.09,498.71,1612,488.1Z"/><path class="cls-6" d="M1590.35,363.81s3.62,73.4-2.13,96.81l.11.51a99.59,99.59,0,0,0-15.59,1.09l-8-93.79"/><path class="cls-6" d="M1571.83,432.6l-1.17,47.32s-2.06,17.39,4.43,17.57l45.45,1.26s19.78-11.91-10.81-22.73l-11.36-.32s-11.42,2.18-7.87-10.18l.81-32.38Z"/><path class="cls-17" d="M1609.73,476s30.59,10.82,10.81,22.73l-11.36-.32Z"/><polygon class="cls-17" points="1590.68 473.24 1570.84 472.69 1570.79 467.34 1590.45 467.89 1590.68 473.24"/><path class="cls-17" d="M1570.32,486.14l39.14,1.09-.28,11.2-34.09-.94S1569.86,497.34,1570.32,486.14Z"/><path class="cls-18" d="M1533.55,373.32c22.77-1.09,55.75-2.85,71.21-4.05q9.52-1.18,19-2.23c-4.73-13.78-12.09-29.64-22.34-36.35,0,0-11.06-7.61-15.88-17.67a104.45,104.45,0,0,1-14.16,3.41c-21.86,3.71-41.26.32-49.53-1.46C1521.88,315,1497.27,375.07,1533.55,373.32Z"/><path class="cls-6" d="M1533,231.56l.24-16.17,19,14.88,16.3,6.91s5.3,22.18-8.38,9.66Z"/><path class="cls-6" d="M1576.84,239.36l13.62-58.9,21.24-18c.51-2.18-1.81-2.72-1.81-2.72l-8.45,4.92.5-2.18,11.78-8.75c.51-2.18-1.81-2.72-1.81-2.72l-11.78,8.75.51-2.18,11.78-8.75a2.3,2.3,0,0,0-1.81-2.72L1598.32,157l.51-2.19,9-7.1A2.3,2.3,0,0,0,1606,145l-9.42,9.24-9.51,9.33-18.5,63.93-4.51,7.78V250s4,3,7,2A16.82,16.82,0,0,0,1576.84,239.36Z"/><path class="cls-9" d="M1526.28,183.15s-11.14,2.5-10.68,14.55c0,0,.23,17,11.14,41.59,0,0,11.83,4.55,35.46-8.41C1562.2,230.88,1555.6,177.46,1526.28,183.15Z"/><ellipse class="cls-14" cx="1579.5" cy="145" rx="4.5" ry="7"/><rect class="cls-21" x="700" y="500" width="350" height="500"/><rect class="cls-22" x="1050" y="500" width="350" height="500"/><rect class="cls-23" x="1400" y="500" width="350" height="500"/><rect class="cls-24" x="350" y="500" width="350" height="500"/><path class="cls-6" d="M157.2,839.28a52.18,52.18,0,0,0,28.21-32.75L187,778.42s38.67-36.85,19.29-56.78L227,726.56l30.57,18.92,13.38,8.28s6.46,6.65,1.18,53.59c0,0-6.83,19.57-23.75,17l-28.21,32.75-1.82,20S179.76,879.68,157.2,839.28Z"/><path class="cls-25" d="M209.5,742.54l3.22,3-4.27,19s18.86,12.86,20.78,31.63c0,0-10.71,13.06-22.13,7.53,0,0-17.42-6.48-14-28.08Z"/><polygon class="cls-25" points="209.41 742.29 219.71 724.29 222.86 725.58 212.29 747.41 208.42 744.73 209.41 742.29"/><polygon class="cls-25" points="187.18 776.49 193.61 775.1 192.8 783.75 186.53 784.48 187.18 776.49"/><path class="cls-25" d="M228.85,797s-.62,17.92,9.42,22.93c0,0,13.39,10.66,24.47,1.16,0,0,5.69-9.14,2.92-16l15-25.27-1-6L260.27,800S250.73,789.68,228.85,797Z"/><rect class="cls-26" x="196.04" y="834.65" width="2.43" height="3.65" rx="1" ry="1" transform="matrix(0.81, 0.58, -0.58, 0.81, 523.46, 41.37)"/><rect class="cls-27" y="500" width="350" height="500"/><path class="cls-6" d="M252.05,715.67,245,727.15l-18.11-.61c10.7,38.29,40.16,24.77,40.16,24.77l-8.67-15.91,7.08-11.47"/><rect class="cls-6" x="240.3" y="628.12" width="87.64" height="101.12" rx="35.27" ry="35.27" transform="translate(398.64 -48.1) rotate(31.67)"/><path class="cls-6" d="M136.37,866.54s-64,42.8-80.11,62.26l-.5.23a104.24,104.24,0,0,1,8.82,13.8L148.48,891"/><path class="cls-6" d="M90.06,925.09,51,955.63s-13.34,12.6-17.55,7.25L4,925.43s-2.33-24.08,25.87-5.11l7.37,9.37s5.3,11,13.48.25L77.44,909Z"/><path class="cls-17" d="M29.86,920.32s-28.2-19-25.87,5.11l7.37,9.36Z"/><polygon class="cls-17" points="44.1 934.61 56.97 950.97 61.49 947.67 48.76 931.47 44.1 934.61"/><path class="cls-17" d="M46,959.8,20.61,927.56l-9.25,7.23,22.08,28.09S36.83,967.19,46,959.8Z"/><path class="cls-6" d="M189.52,910.58s-12.05-23.3-27.43-11.86c0,0-59.44,42.14-73.91,61.26l-.47.22A112,112,0,0,1,97,973.69l78.15-51.09Z"/><path class="cls-6" d="M120.62,956.23l-36,30S72.39,998.66,68,993.43l-30.5-36.58s-3.59-23.59,24.69-5.09l7.63,9.15s5.73,10.72,13,.2l24.65-20.56Z"/><path class="cls-17" d="M62.22,951.76s-28.28-18.5-24.69,5.09L45.15,966Z"/><polygon class="cls-17" points="76.77 965.71 90.09 981.69 94.28 978.44 81.08 962.62 76.77 965.71"/><path class="cls-17" d="M80,990.38l-26.27-31.5L45.15,966,68,993.43S71.55,997.64,80,990.38Z"/><path class="cls-6" d="M275.38,765.29s9.2,7.86,7.6,47.65l.68,5,16.51-34.75s2.23-20.59,6.52-26.26c0,0,5-7.79.65,12.09l10-8.53,9.94-8.44a2.2,2.2,0,0,1,1.41,2.85l-9.27,6.35-.72,2.13,12.84-9.89a2.2,2.2,0,0,1,1.41,2.85l-12.12,7.76-.72,2.13,12.12-7.76a2.2,2.2,0,0,1,1.4,2.85l-12.11,7.76-.72,2.13,8.54-4.22a2.2,2.2,0,0,1,1.41,2.85l-22.1,16.24-19.46,57.47s-12.18,22-14.9-5l-10.44-46.24Z"/><path class="cls-6" d="M231.92,731.41s-11.5-7.19-21.39-3.81c0,0-48.48,28.08-65.18,74.41l-10.61,25.28,9.32,3.68,31-49.57s38.42-41.45,46.42-32.64Z"/><path class="cls-6" d="M146.93,819.19c0,2.24-2.44,13.45-2.44,13.45l-18.35,11a2.21,2.21,0,0,1-2.25-2.27l6.91-6.66c-2.3,2.22-9.08-2.36-9.08-2.36l-2.38,9c0,2.25-2.28,0-2.28,0l.08-6.75-2.36,6.72c-2.3,2.22-2.28,0-2.28,0l2.36-6.71-2.3,2.22h0l-2.33,4.46h0c-2.31,2.22-2.28,0-2.28,0,2.54-22.45,29.82-17.63,29.82-17.63l0-2.25"/><path class="cls-14" d="M274,708.71s-6.56.59-8.9-2.76c0,0-5.69-1-7.15-6,0,0,3.5-6.43,11.52-2.06C269.47,697.92,277.5,702.29,274,708.71Z"/><path class="cls-13" d="M278.46,681.42l.16.67c.38,1.5,1.43,5.17,3.06,7l-5.74-3.54"/><path class="cls-28" d="M261.61,657.32s10.72-5.67,16.11,10.16A18.41,18.41,0,0,1,261.61,657.32Z"/><path class="cls-29" d="M261.51,656.42s3.89,10.51,17,10.86C278.47,667.28,265.06,671.79,261.51,656.42Z"/><path class="cls-28" d="M290.18,674.11s10.15-6.65,17,8.6A18.4,18.4,0,0,1,290.18,674.11Z"/><path class="cls-29" d="M290,673.22s4.86,10.1,17.91,9.23C307.91,682.45,295,688.19,290,673.22Z"/><path class="cls-9" d="M214.88,726s-8.09-8.17-18-1.52c0,0-14.32,9-29.27,31.08,0,0,2.48,12.41,26.13,25.77C193.69,781.32,235.41,748,214.88,726Z"/><path class="cls-9" d="M251.91,748.54s-11.47,1.66-12,13.84c0,0-1.15,17.2,7.9,42.78,0,0,11.59,5.49,36.56-5.74C284.38,799.42,282,745.08,251.91,748.54Z"/><path class="cls-15" d="M155.83,839.51A53,53,0,0,0,185,806.67l2-28.53s39.82-36.83,20.39-57.37l21,5.31,30.82,19.69,13.48,8.62s6.47,6.84.45,54.45c0,0-7.2,19.77-24.37,16.92l-29.12,32.83-2.13,20.31S178.21,880.89,155.83,839.51Z"/><path class="cls-5" d="M276.09,636.39s-62.77,32.36-25.56,81.8L245.8,727s-34.74-41.31-8.52-81.84c0,0,18.91-35.35,43.78-26.6,0,0,51.42-11.15,55.25,45.45,0,0,5.76,19-26.83,62.94,0,0-8.05,32.06-32.22,30.51,0,0,.57,11.67-6.62,12.37,0,0,5.18,7.32-9.33,13.2,0,0,1.4,14.38-10.4,19.44,0,0-5.54,6.13-1.19,10.73,0,0-11.55-3.9-3-19.81,0,0,3.9-11.55,11.09-12.25,0,0-1.52-9.91,5.68-10.61,0,0-1.53-9.91,4.84-13.32,0,0-3.53-1.89-.7-7.19l-10.36-14.64,4.73-8.83s66.38-.88,38.63-68C300.59,658.58,297.42,643.25,276.09,636.39Z"/><path class="cls-18" d="M176.88,918.82C156.75,906,127.69,887.18,114.25,878q-8-6-16.14-11.94c11.49-10.07,26.44-20.65,39.26-21.41,0,0,14-1.15,23.64-7.79a109.32,109.32,0,0,0,11.1,10.48c17.93,14.76,37.34,21.79,45.78,24.48C217.89,871.85,209,939.31,176.88,918.82Z"/><rect class="cls-6" x="1641.3" y="628.12" width="87.64" height="101.12" rx="35.27" ry="35.27" transform="translate(607.27 -783.67) rotate(31.67)"/><path class="cls-6" d="M1653.05,715.67,1646,727.15l-18.11-.61c10.7,38.29,40.16,24.77,40.16,24.77l-8.67-15.91,7.08-11.47"/><path class="cls-6" d="M1537.37,866.54s-64,42.8-80.11,62.26l-.5.23a104.24,104.24,0,0,1,8.82,13.8l83.9-51.86"/><path class="cls-6" d="M1491.06,925.09,1452,955.63s-13.34,12.6-17.55,7.25L1405,925.43s-2.33-24.08,25.87-5.11l7.37,9.37s5.3,11,13.48.25l26.73-20.9Z"/><path class="cls-17" d="M1430.86,920.32s-28.2-19-25.87,5.11l7.37,9.36Z"/><polygon class="cls-17" points="1445.11 934.61 1457.97 950.97 1462.49 947.67 1449.76 931.47 1445.11 934.61"/><path class="cls-17" d="M1447,959.8l-25.36-32.24-9.25,7.23,22.08,28.09S1437.83,967.19,1447,959.8Z"/><path class="cls-6" d="M1590.52,910.58s-12-23.3-27.43-11.86c0,0-59.44,42.14-73.91,61.26l-.47.22a112,112,0,0,1,9.28,13.49l78.15-51.09Z"/><path class="cls-6" d="M1521.62,956.23l-36,30s-12.19,12.38-16.55,7.15l-30.5-36.58s-3.59-23.59,24.69-5.09l7.63,9.15s5.73,10.72,13,.2l24.65-20.56Z"/><path class="cls-17" d="M1463.22,951.76s-28.28-18.5-24.69,5.09l7.62,9.15Z"/><polygon class="cls-17" points="1477.77 965.71 1491.09 981.69 1495.28 978.44 1482.08 962.62 1477.77 965.71"/><path class="cls-17" d="M1481,990.38l-26.27-31.5-8.54,7.12L1469,993.43S1472.55,997.64,1481,990.38Z"/><path class="cls-6" d="M1676.38,765.29s9.2,7.86,7.6,47.65l.68,5,16.51-34.75s2.23-20.59,6.52-26.26c0,0,5-7.79.65,12.09l10-8.53,9.94-8.44a2.2,2.2,0,0,1,1.41,2.85l-9.27,6.35-.72,2.13,12.84-9.89a2.2,2.2,0,0,1,1.41,2.85l-12.12,7.76-.72,2.13,12.12-7.76a2.2,2.2,0,0,1,1.4,2.85l-12.11,7.76-.72,2.13,8.54-4.22a2.2,2.2,0,0,1,1.41,2.85l-22.1,16.24-19.46,57.47s-12.18,22-14.9-5l-10.44-46.24Z"/><path class="cls-6" d="M1632.92,731.41s-11.5-7.19-21.39-3.81c0,0-48.48,28.08-65.18,74.41l-10.61,25.28,9.32,3.68,31-49.57s38.42-41.45,46.42-32.64Z"/><path class="cls-6" d="M1547.93,819.19c0,2.24-2.44,13.45-2.44,13.45l-18.35,11a2.21,2.21,0,0,1-2.25-2.27l6.91-6.66c-2.3,2.22-9.08-2.36-9.08-2.36l-2.38,9c0,2.25-2.28,0-2.28,0l.08-6.75-2.36,6.72c-2.3,2.22-2.28,0-2.28,0l2.36-6.71-2.3,2.22h0l-2.33,4.46h0c-2.31,2.22-2.28,0-2.28,0,2.54-22.45,29.82-17.63,29.82-17.63l0-2.25"/><path class="cls-14" d="M1675,708.71s-6.56.59-8.9-2.76c0,0-5.69-1-7.15-6,0,0,3.5-6.43,11.52-2.06C1670.47,697.92,1678.5,702.29,1675,708.71Z"/><path class="cls-13" d="M1679.46,681.42l.16.67c.38,1.5,1.43,5.17,3.06,7l-5.74-3.54"/><path class="cls-28" d="M1662.61,657.32s10.72-5.67,16.11,10.16A18.41,18.41,0,0,1,1662.61,657.32Z"/><path class="cls-29" d="M1662.51,656.42s3.89,10.51,17,10.86C1679.47,667.28,1666.06,671.79,1662.51,656.42Z"/><path class="cls-28" d="M1691.18,674.11s10.15-6.65,17,8.6A18.4,18.4,0,0,1,1691.18,674.11Z"/><path class="cls-29" d="M1691,673.22s4.86,10.1,17.91,9.23C1708.91,682.45,1696,688.19,1691,673.22Z"/><path class="cls-9" d="M1652.91,748.54s-11.47,1.66-12,13.84c0,0-1.15,17.2,7.9,42.78,0,0,11.59,5.49,36.56-5.74C1685.38,799.42,1683,745.08,1652.91,748.54Z"/><path class="cls-6" d="M1557.16,839.79a52.59,52.59,0,0,0,29-32.64l2-28.37s39.59-36.62,20.27-57l20.9,5.29,30.65,19.59,13.41,8.57s6.45,6.81.48,54.15c0,0-7.17,19.65-24.24,16.81l-29,32.64L1618.47,879S1579.43,880.94,1557.16,839.79Z"/><path class="cls-18" d="M1577.88,918.82c-20.13-12.86-49.19-31.64-62.63-40.79q-8-6-16.14-11.94c11.49-10.07,26.44-20.65,39.26-21.41,0,0,14-1.15,23.64-7.79a109.32,109.32,0,0,0,11.1,10.48c17.93,14.76,37.34,21.79,45.78,24.48C1618.89,871.85,1610,939.31,1577.88,918.82Z"/><rect class="cls-26" x="1596" y="837" width="2" height="3" rx="1" ry="1" transform="translate(633.21 -686.16) rotate(30)"/><path class="cls-25" d="M1608.5,748.54l3.22,3-4.27,19s18.86,12.86,20.78,31.63c0,0-10.71,13.06-22.13,7.53,0,0-17.42-6.48-14-28.08Z"/><polygon class="cls-25" points="1608.41 748.29 1618.71 730.29 1621.86 731.58 1611.29 753.41 1607.42 750.73 1608.41 748.29"/><polygon class="cls-25" points="1586.18 782.49 1592.61 781.1 1591.8 789.75 1585.53 790.48 1586.18 782.49"/><path class="cls-25" d="M1672.75,787.82,1659.27,806s-9.54-10.32-31.42-3c0,0-.62,17.92,9.42,22.93,0,0,13.39,10.66,24.47,1.16,0,0,5.69-9.14,2.92-16l10.86-18.25"/><path class="cls-25" d="M1597.36,770.05S1582,781,1587,785l5.09.65Z"/><path class="cls-15" d="M1675.88,787.82c1.79-28-2.58-32.64-2.58-32.64l-13.41-8.57L1629.24,727l-20.9-5.29c10.34,10.94,3.8,26.52-4.52,38.63"/><path class="cls-9" d="M1612.76,762.2c8-11.13,13.48-25.12,3.12-36.21,0,0-8.09-8.17-18.05-1.52,0,0-14.32,9-29.27,31.08,0,0,1.63,8.13,14.79,18.32"/><path class="cls-5" d="M1677.09,636.39s-62.77,32.36-25.56,81.8L1646.8,727s-34.74-41.31-8.52-81.84c0,0,18.91-35.35,43.78-26.6,0,0,51.42-11.15,55.25,45.45,0,0,5.76,19-26.83,62.94,0,0-8,32.06-32.22,30.51,0,0,.57,11.67-6.62,12.37,0,0,5.18,7.32-9.33,13.2,0,0,1.4,14.38-10.4,19.44,0,0-5.54,6.13-1.19,10.73,0,0-11.55-3.9-3-19.81,0,0,3.9-11.55,11.09-12.25,0,0-1.52-9.91,5.68-10.61,0,0-1.53-9.91,4.84-13.32,0,0-3.53-1.89-.7-7.19l-10.36-14.64,4.73-8.83s66.38-.88,38.63-68C1701.59,658.58,1698.42,643.25,1677.09,636.39Z"/><line class="cls-15" x1="918.58" y1="861.78" x2="916.47" y2="881.97"/><line class="cls-15" x1="935.43" y1="842.79" x2="918.58" y2="861.78"/><path class="cls-15" d="M947.54,829.14l-12.11,13.65"/><path class="cls-6" d="M951.05,718.67,944,730.15l-18.11-.61c10.7,38.29,40.16,24.77,40.16,24.77l-8.67-15.91,7.08-11.47"/><path class="cls-6" d="M835.37,869.54s-64,42.8-80.11,62.26l-.5.23a104.24,104.24,0,0,1,8.82,13.8L847.48,894"/><path class="cls-6" d="M789.06,928.09,750,958.63s-13.34,12.6-17.55,7.25L703,928.43s-2.33-24.08,25.87-5.11l7.37,9.37s5.3,11,13.48.25L776.44,912Z"/><path class="cls-17" d="M728.86,923.32s-28.2-19-25.87,5.11l7.37,9.36Z"/><polygon class="cls-17" points="743.11 937.61 755.97 953.97 760.49 950.67 747.75 934.47 743.11 937.61"/><path class="cls-17" d="M745,962.8l-25.36-32.24-9.25,7.23,22.08,28.09S735.83,970.19,745,962.8Z"/><path class="cls-6" d="M888.52,913.58s-12-23.3-27.43-11.86c0,0-59.44,42.14-73.91,61.26l-.47.22A112,112,0,0,1,796,976.69l78.15-51.09Z"/><path class="cls-6" d="M819.62,959.23l-36,30s-12.19,12.38-16.55,7.15l-30.5-36.58s-3.59-23.59,24.69-5.09l7.63,9.15s5.73,10.72,13,.2l24.65-20.56Z"/><path class="cls-17" d="M761.22,954.76s-28.28-18.5-24.69,5.09l7.62,9.15Z"/><polygon class="cls-17" points="775.77 968.71 789.09 984.69 793.28 981.44 780.08 965.62 775.77 968.71"/><path class="cls-17" d="M779,993.38l-26.27-31.5L744.15,969,767,996.43S770.55,1000.64,779,993.38Z"/><path class="cls-6" d="M974.38,768.29s9.2,7.86,7.6,47.65l.68,5,16.51-34.75s2.23-20.59,6.52-26.26c0,0,5-7.79.65,12.09l10-8.53,9.94-8.44a2.2,2.2,0,0,1,1.41,2.85l-9.27,6.35-.72,2.13,12.84-9.89a2.2,2.2,0,0,1,1.41,2.85l-12.12,7.76-.72,2.13,12.12-7.76a2.2,2.2,0,0,1,1.4,2.85l-12.11,7.76-.72,2.13,8.54-4.22a2.2,2.2,0,0,1,1.41,2.85l-22.1,16.24-19.46,57.47s-12.18,22-14.9-5l-10.44-46.24Z"/><path class="cls-6" d="M930.92,734.41s-11.5-7.19-21.39-3.81c0,0-48.48,28.08-65.18,74.41l-10.61,25.28,9.32,3.68,31-49.57s38.42-41.45,46.42-32.64Z"/><path class="cls-6" d="M845.93,822.19c0,2.24-2.44,13.45-2.44,13.45l-18.35,11a2.21,2.21,0,0,1-2.25-2.27l6.91-6.66c-2.3,2.22-9.08-2.36-9.08-2.36l-2.38,9c0,2.25-2.28,0-2.28,0l.08-6.75-2.36,6.72c-2.3,2.22-2.28,0-2.28,0l2.36-6.71-2.3,2.22h0l-2.33,4.46h0c-2.31,2.22-2.28,0-2.28,0,2.54-22.45,29.82-17.63,29.82-17.63l0-2.25"/><path class="cls-14" d="M973,711.71s-6.56.59-8.9-2.76c0,0-5.69-1-7.15-6,0,0,3.5-6.43,11.52-2.06C968.47,700.92,976.5,705.29,973,711.71Z"/><path class="cls-13" d="M977.46,684.42l.16.67c.38,1.5,1.43,5.17,3.06,7l-5.74-3.54"/><path class="cls-28" d="M960.61,660.32s10.72-5.67,16.11,10.16A18.41,18.41,0,0,1,960.61,660.32Z"/><path class="cls-29" d="M960.51,659.42s3.89,10.51,17,10.86C977.47,670.28,964.06,674.79,960.51,659.42Z"/><path class="cls-28" d="M989.18,677.11s10.15-6.65,17,8.6A18.4,18.4,0,0,1,989.18,677.11Z"/><path class="cls-29" d="M989,676.22s4.86,10.1,17.91,9.23C1006.91,685.45,994,691.19,989,676.22Z"/><path class="cls-9" d="M913.88,729s-8.09-8.17-18-1.52c0,0-14.32,9-29.27,31.08,0,0,2.48,12.41,26.13,25.77C892.69,784.32,934.41,751,913.88,729Z"/><path class="cls-9" d="M950.91,751.54s-11.47,1.66-12,13.84c0,0-1.15,17.2,7.9,42.78,0,0,11.59,5.49,36.56-5.74C983.38,802.42,981,748.08,950.91,751.54Z"/><path class="cls-6" d="M855.16,842.79a52.59,52.59,0,0,0,29-32.64l2-28.37s39.59-36.62,20.27-57l20.9,5.29,30.65,19.59,13.41,8.57s6.45,6.81.48,54.15c0,0-7.17,19.65-24.24,16.81l-29,32.64L916.47,882S877.43,883.94,855.16,842.79Z"/><path class="cls-5" d="M975.09,639.39s-62.77,32.36-25.56,81.8L944.8,730s-34.74-41.31-8.52-81.84c0,0,18.91-35.35,43.78-26.6,0,0,51.42-11.15,55.25,45.45,0,0,5.76,19-26.83,62.94,0,0-8.05,32.06-32.22,30.51,0,0,.57,11.67-6.62,12.37,0,0,5.18,7.32-9.33,13.2,0,0,1.4,14.38-10.4,19.44,0,0-5.54,6.13-1.19,10.73,0,0-11.55-3.9-3-19.81,0,0,3.9-11.55,11.09-12.25,0,0-1.52-9.91,5.68-10.61,0,0-1.53-9.91,4.84-13.32,0,0-3.53-1.89-.7-7.19l-10.36-14.64,4.73-8.83s66.38-.88,38.63-68C999.59,661.58,996.42,646.25,975.09,639.39Z"/><path class="cls-18" d="M875.88,921.82C855.75,909,826.69,890.18,813.25,881q-8-6-16.14-11.94c11.49-10.07,26.44-20.65,39.26-21.41,0,0,14-1.15,23.64-7.79a109.32,109.32,0,0,0,11.1,10.48c17.93,14.76,37.34,21.79,45.78,24.48C916.89,874.85,908,942.31,875.88,921.82Z"/><rect class="cls-26" x="894" y="840" width="2" height="3" rx="1" ry="1" transform="translate(540.66 -334.76) rotate(30)"/><path class="cls-15" d="M884.68,802l1.39-20.21s39.59-36.62,20.27-57l20.9,5.29,30.65,19.59,13.41,8.57s6.45,6.81.48,54.15c0,0-7.17,19.65-24.24,16.81"/><rect class="cls-6" x="939.3" y="631.12" width="87.64" height="101.12" rx="35.27" ry="35.27" transform="translate(504.31 -414.65) rotate(31.67)"/><path class="cls-6" d="M951.05,718.67,944,730.15l-18.11-.61c10.7,38.29,40.16,24.77,40.16,24.77l-8.67-15.91,7.08-11.47"/><path class="cls-6" d="M835.37,869.54s-64,42.8-80.11,62.26l-.5.23a104.24,104.24,0,0,1,8.82,13.8L847.48,894"/><path class="cls-6" d="M789.06,928.09,750,958.63s-13.34,12.6-17.55,7.25L703,928.43s-2.33-24.08,25.87-5.11l7.37,9.37s5.3,11,13.48.25L776.44,912Z"/><path class="cls-17" d="M728.86,923.32s-28.2-19-25.87,5.11l7.37,9.36Z"/><polygon class="cls-17" points="743.11 937.61 755.97 953.97 760.49 950.67 747.75 934.47 743.11 937.61"/><path class="cls-17" d="M745,962.8l-25.36-32.24-9.25,7.23,22.08,28.09S735.83,970.19,745,962.8Z"/><path class="cls-6" d="M888.52,913.58s-12-23.3-27.43-11.86c0,0-59.44,42.14-73.91,61.26l-.47.22A112,112,0,0,1,796,976.69l78.15-51.09Z"/><path class="cls-6" d="M819.62,959.23l-36,30s-12.19,12.38-16.55,7.15l-30.5-36.58s-3.59-23.59,24.69-5.09l7.63,9.15s5.73,10.72,13,.2l24.65-20.56Z"/><path class="cls-17" d="M761.22,954.76s-28.28-18.5-24.69,5.09l7.62,9.15Z"/><polygon class="cls-17" points="775.77 968.71 789.09 984.69 793.28 981.44 780.08 965.62 775.77 968.71"/><path class="cls-17" d="M779,993.38l-26.27-31.5L744.15,969,767,996.43S770.55,1000.64,779,993.38Z"/><path class="cls-6" d="M974.38,768.29s9.2,7.86,7.6,47.65l.68,5,16.51-34.75s2.23-20.59,6.52-26.26c0,0,5-7.79.65,12.09l10-8.53,9.94-8.44a2.2,2.2,0,0,1,1.41,2.85l-9.27,6.35-.72,2.13,12.84-9.89a2.2,2.2,0,0,1,1.41,2.85l-12.12,7.76-.72,2.13,12.12-7.76a2.2,2.2,0,0,1,1.4,2.85l-12.11,7.76-.72,2.13,8.54-4.22a2.2,2.2,0,0,1,1.41,2.85l-22.1,16.24-19.46,57.47s-12.18,22-14.9-5l-10.44-46.24Z"/><path class="cls-6" d="M930.92,734.41s-11.5-7.19-21.39-3.81c0,0-48.48,28.08-65.18,74.41l-10.61,25.28,9.32,3.68,31-49.57s38.42-41.45,46.42-32.64Z"/><path class="cls-6" d="M845.93,822.19c0,2.24-2.44,13.45-2.44,13.45l-18.35,11a2.21,2.21,0,0,1-2.25-2.27l6.91-6.66c-2.3,2.22-9.08-2.36-9.08-2.36l-2.38,9c0,2.25-2.28,0-2.28,0l.08-6.75-2.36,6.72c-2.3,2.22-2.28,0-2.28,0l2.36-6.71-2.3,2.22h0l-2.33,4.46h0c-2.31,2.22-2.28,0-2.28,0,2.54-22.45,29.82-17.63,29.82-17.63l0-2.25"/><path class="cls-14" d="M973,711.71s-6.56.59-8.9-2.76c0,0-5.69-1-7.15-6,0,0,3.5-6.43,11.52-2.06C968.47,700.92,976.5,705.29,973,711.71Z"/><path class="cls-13" d="M977.46,684.42l.16.67c.38,1.5,1.43,5.17,3.06,7l-5.74-3.54"/><path class="cls-28" d="M960.61,660.32s10.72-5.67,16.11,10.16A18.41,18.41,0,0,1,960.61,660.32Z"/><path class="cls-29" d="M960.51,659.42s3.89,10.51,17,10.86C977.47,670.28,964.06,674.79,960.51,659.42Z"/><path class="cls-28" d="M989.18,677.11s10.15-6.65,17,8.6A18.4,18.4,0,0,1,989.18,677.11Z"/><path class="cls-29" d="M989,676.22s4.86,10.1,17.91,9.23C1006.91,685.45,994,691.19,989,676.22Z"/><path class="cls-9" d="M913.88,729s-8.09-8.17-18-1.52c0,0-14.32,9-29.27,31.08,0,0,2.48,12.41,26.13,25.77C892.69,784.32,934.41,751,913.88,729Z"/><path class="cls-9" d="M950.91,751.54s-11.47,1.66-12,13.84c0,0-1.15,17.2,7.9,42.78,0,0,11.59,5.49,36.56-5.74C983.38,802.42,981,748.08,950.91,751.54Z"/><path class="cls-6" d="M855.16,842.79a52.59,52.59,0,0,0,29-32.64l2-28.37s39.59-36.62,20.27-57l20.9,5.29,30.65,19.59,13.41,8.57s6.45,6.81.48,54.15c0,0-7.17,19.65-24.24,16.81l-29,32.64L916.47,882S877.43,883.94,855.16,842.79Z"/><path class="cls-18" d="M875.88,921.82C855.75,909,826.69,890.18,813.25,881q-8-6-16.14-11.94c11.49-10.07,26.44-20.65,39.26-21.41,0,0,14-1.15,23.64-7.79a109.32,109.32,0,0,0,11.1,10.48c17.93,14.76,37.34,21.79,45.78,24.48C916.89,874.85,908,942.31,875.88,921.82Z"/><rect class="cls-26" x="894" y="840" width="2" height="3" rx="1" ry="1" transform="translate(540.66 -334.76) rotate(30)"/><path class="cls-15" d="M884.68,802l1.39-20.21s39.59-36.62,20.27-57l20.9,5.29,30.65,19.59,13.41,8.57s6.45,6.81.48,54.15c0,0-7.17,19.65-24.24,16.81"/><path class="cls-5" d="M975.09,639.39s-62.77,32.36-25.56,81.8L944.8,730s-34.74-41.31-8.52-81.84c0,0,18.91-35.35,43.78-26.6,0,0,51.42-11.15,55.25,45.45,0,0,5.76,19-26.83,62.94,0,0-8.05,32.06-32.22,30.51,0,0,.57,11.67-6.62,12.37,0,0,5.18,7.32-9.33,13.2,0,0,1.4,14.38-10.4,19.44,0,0-5.54,6.13-1.19,10.73,0,0-11.55-3.9-3-19.81,0,0,3.9-11.55,11.09-12.25,0,0-1.52-9.91,5.68-10.61,0,0-1.53-9.91,4.84-13.32,0,0-3.53-1.89-.7-7.19l-10.36-14.64,4.73-8.83s66.38-.88,38.63-68C999.59,661.58,996.42,646.25,975.09,639.39Z"/><line class="cls-15" x1="570.58" y1="859.78" x2="568.47" y2="879.97"/><line class="cls-15" x1="587.43" y1="840.79" x2="570.58" y2="859.78"/><path class="cls-15" d="M599.54,827.14l-12.11,13.65"/><path class="cls-6" d="M603.05,716.67,596,728.15l-18.11-.61c10.7,38.29,40.16,24.77,40.16,24.77l-8.67-15.91,7.08-11.47"/><path class="cls-6" d="M487.37,867.54s-64,42.8-80.11,62.26l-.5.23a104.24,104.24,0,0,1,8.82,13.8L499.48,892"/><path class="cls-6" d="M441.06,926.09,402,956.63s-13.34,12.6-17.55,7.25L355,926.43s-2.33-24.08,25.87-5.11l7.37,9.37s5.3,11,13.48.25L428.44,910Z"/><path class="cls-17" d="M380.86,921.32s-28.2-19-25.87,5.11l7.37,9.36Z"/><polygon class="cls-17" points="395.11 935.61 407.97 951.97 412.49 948.67 399.75 932.47 395.11 935.61"/><path class="cls-17" d="M397,960.8l-25.36-32.24-9.25,7.23,22.08,28.09S387.83,968.19,397,960.8Z"/><path class="cls-6" d="M540.52,911.58s-12-23.3-27.43-11.86c0,0-59.44,42.14-73.91,61.26l-.47.22A112,112,0,0,1,448,974.69l78.15-51.09Z"/><path class="cls-6" d="M471.62,957.23l-36,30s-12.19,12.38-16.55,7.15l-30.5-36.58s-3.59-23.59,24.69-5.09l7.63,9.15s5.73,10.72,13,.2l24.65-20.56Z"/><path class="cls-17" d="M413.22,952.76s-28.28-18.5-24.69,5.09l7.62,9.15Z"/><polygon class="cls-17" points="427.77 966.71 441.09 982.69 445.28 979.44 432.08 963.62 427.77 966.71"/><path class="cls-17" d="M431,991.38l-26.27-31.5L396.15,967,419,994.43S422.55,998.64,431,991.38Z"/><path class="cls-6" d="M626.38,766.29s9.2,7.86,7.6,47.65l.68,5,16.51-34.75s2.23-20.59,6.52-26.26c0,0,5-7.79.65,12.09l10-8.53,9.94-8.44a2.2,2.2,0,0,1,1.41,2.85l-9.27,6.35-.72,2.13,12.84-9.89a2.2,2.2,0,0,1,1.41,2.85l-12.12,7.76-.72,2.13,12.12-7.76a2.2,2.2,0,0,1,1.4,2.85l-12.11,7.76-.72,2.13,8.54-4.22a2.2,2.2,0,0,1,1.41,2.85l-22.1,16.24-19.46,57.47s-12.18,22-14.9-5l-10.44-46.24Z"/><path class="cls-6" d="M582.92,732.41s-11.5-7.19-21.39-3.81c0,0-48.48,28.08-65.18,74.41l-10.61,25.28,9.32,3.68,31-49.57s38.42-41.45,46.42-32.64Z"/><path class="cls-6" d="M497.93,820.19c0,2.24-2.44,13.45-2.44,13.45l-18.35,11a2.21,2.21,0,0,1-2.25-2.27l6.91-6.66c-2.3,2.22-9.08-2.36-9.08-2.36l-2.38,9c0,2.25-2.28,0-2.28,0l.08-6.75-2.36,6.72c-2.3,2.22-2.28,0-2.28,0l2.36-6.71-2.3,2.22h0l-2.33,4.46h0c-2.31,2.22-2.28,0-2.28,0,2.54-22.45,29.82-17.63,29.82-17.63l0-2.25"/><path class="cls-14" d="M625,709.71s-6.56.59-8.9-2.76c0,0-5.69-1-7.15-6,0,0,3.5-6.43,11.52-2.06C620.47,698.92,628.5,703.29,625,709.71Z"/><path class="cls-13" d="M629.46,682.42l.16.67c.38,1.5,1.43,5.17,3.06,7l-5.74-3.54"/><path class="cls-28" d="M612.61,658.32s10.72-5.67,16.11,10.16A18.41,18.41,0,0,1,612.61,658.32Z"/><path class="cls-29" d="M612.51,657.42s3.89,10.51,17,10.86C629.47,668.28,616.06,672.79,612.51,657.42Z"/><path class="cls-28" d="M641.18,675.11s10.15-6.65,17,8.6A18.4,18.4,0,0,1,641.18,675.11Z"/><path class="cls-29" d="M641,674.22s4.86,10.1,17.91,9.23C658.91,683.45,646,689.19,641,674.22Z"/><path class="cls-9" d="M565.88,727s-8.09-8.17-18-1.52c0,0-14.32,9-29.27,31.08,0,0,2.48,12.41,26.13,25.77C544.69,782.32,586.41,749,565.88,727Z"/><path class="cls-9" d="M602.91,749.54s-11.47,1.66-12,13.84c0,0-1.15,17.2,7.9,42.78,0,0,11.59,5.49,36.56-5.74C635.38,800.42,633,746.08,602.91,749.54Z"/><path class="cls-6" d="M507.16,840.79a52.59,52.59,0,0,0,29-32.64l2-28.37s39.59-36.62,20.27-57l20.9,5.29,30.65,19.59,13.41,8.57s6.45,6.81.48,54.15c0,0-7.17,19.65-24.24,16.81l-29,32.64L568.47,880S529.43,881.94,507.16,840.79Z"/><path class="cls-5" d="M627.09,637.39s-62.77,32.36-25.56,81.8L596.8,728s-34.74-41.31-8.52-81.84c0,0,18.91-35.35,43.78-26.6,0,0,51.42-11.15,55.25,45.45,0,0,5.76,19-26.83,62.94,0,0-8.05,32.06-32.22,30.51,0,0,.57,11.67-6.62,12.37,0,0,5.18,7.32-9.33,13.2,0,0,1.4,14.38-10.4,19.44,0,0-5.54,6.13-1.19,10.73,0,0-11.55-3.9-3-19.81,0,0,3.9-11.55,11.09-12.25,0,0-1.52-9.91,5.68-10.61,0,0-1.53-9.91,4.84-13.32,0,0-3.53-1.89-.7-7.19l-10.36-14.64,4.73-8.83s66.38-.88,38.63-68C651.59,659.58,648.42,644.25,627.09,637.39Z"/><path class="cls-18" d="M527.88,919.82C507.75,907,478.69,888.18,465.25,879q-8-6-16.14-11.94c11.49-10.07,26.44-20.65,39.26-21.41,0,0,14-1.15,23.64-7.79a109.32,109.32,0,0,0,11.1,10.48c17.93,14.76,37.34,21.79,45.78,24.48C568.89,872.85,560,940.31,527.88,919.82Z"/><rect class="cls-26" x="546" y="838" width="2" height="3" rx="1" ry="1" transform="translate(493.03 -161.03) rotate(30)"/><path class="cls-15" d="M536.68,800l1.39-20.21s39.59-36.62,20.27-57l20.9,5.29,30.65,19.59,13.41,8.57s6.45,6.81.48,54.15c0,0-7.17,19.65-24.24,16.81"/><rect class="cls-6" x="591.3" y="629.12" width="87.64" height="101.12" rx="35.27" ry="35.27" transform="translate(451.43 -232.24) rotate(31.67)"/><path class="cls-6" d="M603.05,716.67,596,728.15l-18.11-.61c10.7,38.29,40.16,24.77,40.16,24.77l-8.67-15.91,7.08-11.47"/><path class="cls-6" d="M487.37,867.54s-64,42.8-80.11,62.26l-.5.23a104.24,104.24,0,0,1,8.82,13.8L499.48,892"/><path class="cls-6" d="M441.06,926.09,402,956.63s-13.34,12.6-17.55,7.25L355,926.43s-2.33-24.08,25.87-5.11l7.37,9.37s5.3,11,13.48.25L428.44,910Z"/><path class="cls-17" d="M380.86,921.32s-28.2-19-25.87,5.11l7.37,9.36Z"/><polygon class="cls-17" points="395.11 935.61 407.97 951.97 412.49 948.67 399.75 932.47 395.11 935.61"/><path class="cls-17" d="M397,960.8l-25.36-32.24-9.25,7.23,22.08,28.09S387.83,968.19,397,960.8Z"/><path class="cls-6" d="M540.52,911.58s-12-23.3-27.43-11.86c0,0-59.44,42.14-73.91,61.26l-.47.22A112,112,0,0,1,448,974.69l78.15-51.09Z"/><path class="cls-6" d="M471.62,957.23l-36,30s-12.19,12.38-16.55,7.15l-30.5-36.58s-3.59-23.59,24.69-5.09l7.63,9.15s5.73,10.72,13,.2l24.65-20.56Z"/><path class="cls-17" d="M413.22,952.76s-28.28-18.5-24.69,5.09l7.62,9.15Z"/><polygon class="cls-17" points="427.77 966.71 441.09 982.69 445.28 979.44 432.08 963.62 427.77 966.71"/><path class="cls-17" d="M431,991.38l-26.27-31.5L396.15,967,419,994.43S422.55,998.64,431,991.38Z"/><path class="cls-6" d="M626.38,766.29s9.2,7.86,7.6,47.65l.68,5,16.51-34.75s2.23-20.59,6.52-26.26c0,0,5-7.79.65,12.09l10-8.53,9.94-8.44a2.2,2.2,0,0,1,1.41,2.85l-9.27,6.35-.72,2.13,12.84-9.89a2.2,2.2,0,0,1,1.41,2.85l-12.12,7.76-.72,2.13,12.12-7.76a2.2,2.2,0,0,1,1.4,2.85l-12.11,7.76-.72,2.13,8.54-4.22a2.2,2.2,0,0,1,1.41,2.85l-22.1,16.24-19.46,57.47s-12.18,22-14.9-5l-10.44-46.24Z"/><path class="cls-6" d="M582.92,732.41s-11.5-7.19-21.39-3.81c0,0-48.48,28.08-65.18,74.41l-10.61,25.28,9.32,3.68,31-49.57s38.42-41.45,46.42-32.64Z"/><path class="cls-6" d="M497.93,820.19c0,2.24-2.44,13.45-2.44,13.45l-18.35,11a2.21,2.21,0,0,1-2.25-2.27l6.91-6.66c-2.3,2.22-9.08-2.36-9.08-2.36l-2.38,9c0,2.25-2.28,0-2.28,0l.08-6.75-2.36,6.72c-2.3,2.22-2.28,0-2.28,0l2.36-6.71-2.3,2.22h0l-2.33,4.46h0c-2.31,2.22-2.28,0-2.28,0,2.54-22.45,29.82-17.63,29.82-17.63l0-2.25"/><path class="cls-14" d="M625,709.71s-6.56.59-8.9-2.76c0,0-5.69-1-7.15-6,0,0,3.5-6.43,11.52-2.06C620.47,698.92,628.5,703.29,625,709.71Z"/><path class="cls-13" d="M629.46,682.42l.16.67c.38,1.5,1.43,5.17,3.06,7l-5.74-3.54"/><path class="cls-28" d="M612.61,658.32s10.72-5.67,16.11,10.16A18.41,18.41,0,0,1,612.61,658.32Z"/><path class="cls-29" d="M612.51,657.42s3.89,10.51,17,10.86C629.47,668.28,616.06,672.79,612.51,657.42Z"/><path class="cls-28" d="M641.18,675.11s10.15-6.65,17,8.6A18.4,18.4,0,0,1,641.18,675.11Z"/><path class="cls-29" d="M641,674.22s4.86,10.1,17.91,9.23C658.91,683.45,646,689.19,641,674.22Z"/><path class="cls-9" d="M565.88,727s-8.09-8.17-18-1.52c0,0-14.32,9-29.27,31.08,0,0,2.48,12.41,26.13,25.77C544.69,782.32,586.41,749,565.88,727Z"/><path class="cls-9" d="M602.91,749.54s-11.47,1.66-12,13.84c0,0-1.15,17.2,7.9,42.78,0,0,11.59,5.49,36.56-5.74C635.38,800.42,633,746.08,602.91,749.54Z"/><path class="cls-6" d="M507.16,840.79a52.59,52.59,0,0,0,29-32.64l2-28.37s39.59-36.62,20.27-57l20.9,5.29,30.65,19.59,13.41,8.57s6.45,6.81.48,54.15c0,0-7.17,19.65-24.24,16.81l-29,32.64L568.47,880S529.43,881.94,507.16,840.79Z"/><path class="cls-18" d="M527.88,919.82C507.75,907,478.69,888.18,465.25,879q-8-6-16.14-11.94c11.49-10.07,26.44-20.65,39.26-21.41,0,0,14-1.15,23.64-7.79a109.32,109.32,0,0,0,11.1,10.48c17.93,14.76,37.34,21.79,45.78,24.48C568.89,872.85,560,940.31,527.88,919.82Z"/><rect class="cls-26" x="546" y="838" width="2" height="3" rx="1" ry="1" transform="translate(493.03 -161.03) rotate(30)"/><path class="cls-15" d="M599.54,827.14c17.07,2.84,24.24-16.81,24.24-16.81,6-47.34-.48-54.15-.48-54.15l-13.41-8.57L579.24,728l-20.9-5.29c19.32,20.43-20.27,57-20.27,57L536.68,800S538,817.61,525,827.81L577.53,852Z"/><path class="cls-5" d="M627.09,637.39s-62.77,32.36-25.56,81.8L596.8,728s-34.74-41.31-8.52-81.84c0,0,18.91-35.35,43.78-26.6,0,0,51.42-11.15,55.25,45.45,0,0,5.76,19-26.83,62.94,0,0-8.05,32.06-32.22,30.51,0,0,.57,11.67-6.62,12.37,0,0,5.18,7.32-9.33,13.2,0,0,1.4,14.38-10.4,19.44,0,0-5.54,6.13-1.19,10.73,0,0-11.55-3.9-3-19.81,0,0,3.9-11.55,11.09-12.25,0,0-1.52-9.91,5.68-10.61,0,0-1.53-9.91,4.84-13.32,0,0-3.53-1.89-.7-7.19l-10.36-14.64,4.73-8.83s66.38-.88,38.63-68C651.59,659.58,648.42,644.25,627.09,637.39Z"/><line class="cls-15" x1="1270.58" y1="857.78" x2="1268.47" y2="877.97"/><line class="cls-15" x1="1287.43" y1="838.79" x2="1270.58" y2="857.78"/><path class="cls-15" d="M1299.54,825.14l-12.11,13.65"/><path class="cls-6" d="M1303.05,714.67,1296,726.15l-18.11-.61c10.7,38.29,40.16,24.77,40.16,24.77l-8.67-15.91,7.08-11.47"/><path class="cls-6" d="M1187.37,865.54s-64,42.8-80.11,62.26l-.5.23a104.24,104.24,0,0,1,8.82,13.8l83.9-51.86"/><path class="cls-6" d="M1141.06,924.09,1102,954.63s-13.34,12.6-17.55,7.25L1055,924.43s-2.33-24.08,25.87-5.11l7.37,9.37s5.3,11,13.48.25l26.73-20.9Z"/><path class="cls-17" d="M1080.86,919.32s-28.2-19-25.87,5.11l7.37,9.36Z"/><polygon class="cls-17" points="1095.11 933.61 1107.97 949.97 1112.49 946.67 1099.76 930.47 1095.11 933.61"/><path class="cls-17" d="M1097,958.8l-25.36-32.24-9.25,7.23,22.08,28.09S1087.83,966.19,1097,958.8Z"/><path class="cls-6" d="M1240.52,909.58s-12-23.3-27.43-11.86c0,0-59.44,42.14-73.91,61.26l-.47.22a112,112,0,0,1,9.28,13.49l78.15-51.09Z"/><path class="cls-6" d="M1171.62,955.23l-36,30s-12.19,12.38-16.55,7.15l-30.5-36.58s-3.59-23.59,24.69-5.09l7.63,9.15s5.73,10.72,13,.2l24.65-20.56Z"/><path class="cls-17" d="M1113.22,950.76s-28.28-18.5-24.69,5.09l7.62,9.15Z"/><polygon class="cls-17" points="1127.77 964.71 1141.09 980.69 1145.28 977.44 1132.08 961.62 1127.77 964.71"/><path class="cls-17" d="M1131,989.38l-26.27-31.5-8.54,7.12L1119,992.43S1122.55,996.64,1131,989.38Z"/><path class="cls-6" d="M1326.38,764.29s9.2,7.86,7.6,47.65l.68,5,16.51-34.75s2.23-20.59,6.52-26.26c0,0,5-7.79.65,12.09l10-8.53,9.94-8.44a2.2,2.2,0,0,1,1.41,2.85l-9.27,6.35-.72,2.13,12.84-9.89a2.2,2.2,0,0,1,1.41,2.85l-12.12,7.76-.72,2.13,12.12-7.76a2.2,2.2,0,0,1,1.4,2.85l-12.11,7.76-.72,2.13,8.54-4.22a2.2,2.2,0,0,1,1.41,2.85l-22.1,16.24-19.46,57.47s-12.18,22-14.9-5l-10.44-46.24Z"/><path class="cls-6" d="M1282.92,730.41s-11.5-7.19-21.39-3.81c0,0-48.48,28.08-65.18,74.41l-10.61,25.28,9.32,3.68,31-49.57s38.42-41.45,46.42-32.64Z"/><path class="cls-6" d="M1197.93,818.19c0,2.24-2.44,13.45-2.44,13.45l-18.35,11a2.21,2.21,0,0,1-2.25-2.27l6.91-6.66c-2.3,2.22-9.08-2.36-9.08-2.36l-2.38,9c0,2.25-2.28,0-2.28,0l.08-6.75-2.36,6.72c-2.3,2.22-2.28,0-2.28,0l2.36-6.71-2.3,2.22h0l-2.33,4.46h0c-2.31,2.22-2.28,0-2.28,0,2.54-22.45,29.82-17.63,29.82-17.63l0-2.25"/><path class="cls-14" d="M1325,707.71s-6.56.59-8.9-2.76c0,0-5.69-1-7.15-6,0,0,3.5-6.43,11.52-2.06C1320.47,696.92,1328.5,701.29,1325,707.71Z"/><path class="cls-13" d="M1329.46,680.42l.16.67c.38,1.5,1.43,5.17,3.06,7l-5.74-3.54"/><path class="cls-28" d="M1312.61,656.32s10.72-5.67,16.11,10.16A18.41,18.41,0,0,1,1312.61,656.32Z"/><path class="cls-29" d="M1312.51,655.42s3.89,10.51,17,10.86C1329.47,666.28,1316.06,670.79,1312.51,655.42Z"/><path class="cls-28" d="M1341.18,673.11s10.15-6.65,17,8.6A18.4,18.4,0,0,1,1341.18,673.11Z"/><path class="cls-29" d="M1341,672.22s4.86,10.1,17.91,9.23C1358.91,681.45,1346,687.19,1341,672.22Z"/><path class="cls-9" d="M1265.88,725s-8.09-8.17-18.05-1.52c0,0-14.32,9-29.27,31.08,0,0,2.48,12.41,26.13,25.77C1244.69,780.32,1286.41,747,1265.88,725Z"/><path class="cls-9" d="M1302.91,747.54s-11.47,1.66-12,13.84c0,0-1.15,17.2,7.9,42.78,0,0,11.59,5.49,36.56-5.74C1335.38,798.42,1333,744.08,1302.91,747.54Z"/><path class="cls-6" d="M1207.16,838.79a52.59,52.59,0,0,0,29-32.64l2-28.37s39.59-36.62,20.27-57l20.9,5.29,30.65,19.59,13.41,8.57s6.45,6.81.48,54.15c0,0-7.17,19.65-24.24,16.81l-29,32.64L1268.47,878S1229.43,879.94,1207.16,838.79Z"/><path class="cls-5" d="M1327.09,635.39s-62.77,32.36-25.56,81.8L1296.8,726s-34.74-41.31-8.52-81.84c0,0,18.91-35.35,43.78-26.6,0,0,51.42-11.15,55.25,45.45,0,0,5.76,19-26.83,62.94,0,0-8,32.06-32.22,30.51,0,0,.57,11.67-6.62,12.37,0,0,5.18,7.32-9.33,13.2,0,0,1.4,14.38-10.4,19.44,0,0-5.54,6.13-1.19,10.73,0,0-11.55-3.9-3-19.81,0,0,3.9-11.55,11.09-12.25,0,0-1.52-9.91,5.68-10.61,0,0-1.53-9.91,4.84-13.32,0,0-3.53-1.89-.7-7.19l-10.36-14.64,4.73-8.83s66.38-.88,38.63-68C1351.59,657.58,1348.42,642.25,1327.09,635.39Z"/><path class="cls-18" d="M1227.88,917.82c-20.13-12.86-49.19-31.64-62.63-40.79q-8-6-16.14-11.94c11.49-10.07,26.44-20.65,39.26-21.41,0,0,14-1.15,23.64-7.79a109.32,109.32,0,0,0,11.1,10.48c17.93,14.76,37.34,21.79,45.78,24.48C1268.89,870.85,1260,938.31,1227.88,917.82Z"/><rect class="cls-26" x="1246" y="836" width="2" height="3" rx="1" ry="1" transform="matrix(0.87, 0.5, -0.5, 0.87, 585.82, -511.3)"/><path class="cls-15" d="M1236.68,798l1.39-20.21s39.59-36.62,20.27-57l20.9,5.29,30.65,19.59,13.41,8.57s6.45,6.81.48,54.15c0,0-7.17,19.65-24.24,16.81"/><rect class="cls-6" x="1291.3" y="627.12" width="87.64" height="101.12" rx="35.27" ry="35.27" transform="translate(554.63 -600.06) rotate(31.67)"/><path class="cls-6" d="M1303.05,714.67,1296,726.15l-18.11-.61c10.7,38.29,40.16,24.77,40.16,24.77l-8.67-15.91,7.08-11.47"/><path class="cls-6" d="M1187.37,865.54s-64,42.8-80.11,62.26l-.5.23a104.24,104.24,0,0,1,8.82,13.8l83.9-51.86"/><path class="cls-6" d="M1141.06,924.09,1102,954.63s-13.34,12.6-17.55,7.25L1055,924.43s-2.33-24.08,25.87-5.11l7.37,9.37s5.3,11,13.48.25l26.73-20.9Z"/><path class="cls-17" d="M1080.86,919.32s-28.2-19-25.87,5.11l7.37,9.36Z"/><polygon class="cls-17" points="1095.11 933.61 1107.97 949.97 1112.49 946.67 1099.76 930.47 1095.11 933.61"/><path class="cls-17" d="M1097,958.8l-25.36-32.24-9.25,7.23,22.08,28.09S1087.83,966.19,1097,958.8Z"/><path class="cls-6" d="M1240.52,909.58s-12-23.3-27.43-11.86c0,0-59.44,42.14-73.91,61.26l-.47.22a112,112,0,0,1,9.28,13.49l78.15-51.09Z"/><path class="cls-6" d="M1171.62,955.23l-36,30s-12.19,12.38-16.55,7.15l-30.5-36.58s-3.59-23.59,24.69-5.09l7.63,9.15s5.73,10.72,13,.2l24.65-20.56Z"/><path class="cls-17" d="M1113.22,950.76s-28.28-18.5-24.69,5.09l7.62,9.15Z"/><polygon class="cls-17" points="1127.77 964.71 1141.09 980.69 1145.28 977.44 1132.08 961.62 1127.77 964.71"/><path class="cls-17" d="M1131,989.38l-26.27-31.5-8.54,7.12L1119,992.43S1122.55,996.64,1131,989.38Z"/><path class="cls-6" d="M1326.38,764.29s9.2,7.86,7.6,47.65l.68,5,16.51-34.75s2.23-20.59,6.52-26.26c0,0,5-7.79.65,12.09l10-8.53,9.94-8.44a2.2,2.2,0,0,1,1.41,2.85l-9.27,6.35-.72,2.13,12.84-9.89a2.2,2.2,0,0,1,1.41,2.85l-12.12,7.76-.72,2.13,12.12-7.76a2.2,2.2,0,0,1,1.4,2.85l-12.11,7.76-.72,2.13,8.54-4.22a2.2,2.2,0,0,1,1.41,2.85l-22.1,16.24-19.46,57.47s-12.18,22-14.9-5l-10.44-46.24Z"/><path class="cls-6" d="M1282.92,730.41s-11.5-7.19-21.39-3.81c0,0-48.48,28.08-65.18,74.41l-10.61,25.28,9.32,3.68,31-49.57s38.42-41.45,46.42-32.64Z"/><path class="cls-6" d="M1197.93,818.19c0,2.24-2.44,13.45-2.44,13.45l-18.35,11a2.21,2.21,0,0,1-2.25-2.27l6.91-6.66c-2.3,2.22-9.08-2.36-9.08-2.36l-2.38,9c0,2.25-2.28,0-2.28,0l.08-6.75-2.36,6.72c-2.3,2.22-2.28,0-2.28,0l2.36-6.71-2.3,2.22h0l-2.33,4.46h0c-2.31,2.22-2.28,0-2.28,0,2.54-22.45,29.82-17.63,29.82-17.63l0-2.25"/><path class="cls-14" d="M1325,707.71s-6.56.59-8.9-2.76c0,0-5.69-1-7.15-6,0,0,3.5-6.43,11.52-2.06C1320.47,696.92,1328.5,701.29,1325,707.71Z"/><path class="cls-13" d="M1329.46,680.42l.16.67c.38,1.5,1.43,5.17,3.06,7l-5.74-3.54"/><path class="cls-28" d="M1312.61,656.32s10.72-5.67,16.11,10.16A18.41,18.41,0,0,1,1312.61,656.32Z"/><path class="cls-29" d="M1312.51,655.42s3.89,10.51,17,10.86C1329.47,666.28,1316.06,670.79,1312.51,655.42Z"/><path class="cls-28" d="M1341.18,673.11s10.15-6.65,17,8.6A18.4,18.4,0,0,1,1341.18,673.11Z"/><path class="cls-29" d="M1341,672.22s4.86,10.1,17.91,9.23C1358.91,681.45,1346,687.19,1341,672.22Z"/><path class="cls-6" d="M1207.16,838.79a52.59,52.59,0,0,0,29-32.64l2-28.37s39.59-36.62,20.27-57l20.9,5.29,30.65,19.59,13.41,8.57s6.45,6.81.48,54.15c0,0-7.17,19.65-24.24,16.81l-29,32.64L1268.47,878S1229.43,879.94,1207.16,838.79Z"/><path class="cls-18" d="M1227.88,917.82c-20.13-12.86-49.19-31.64-62.63-40.79q-8-6-16.14-11.94c11.49-10.07,26.44-20.65,39.26-21.41,0,0,14-1.15,23.64-7.79a109.32,109.32,0,0,0,11.1,10.48c17.93,14.76,37.34,21.79,45.78,24.48C1268.89,870.85,1260,938.31,1227.88,917.82Z"/><rect class="cls-26" x="1246" y="836" width="2" height="3" rx="1" ry="1" transform="matrix(0.87, 0.5, -0.5, 0.87, 585.82, -511.3)"/><path class="cls-5" d="M1327.09,635.39s-62.77,32.36-25.56,81.8L1296.8,726s-34.74-41.31-8.52-81.84c0,0,18.91-35.35,43.78-26.6,0,0,51.42-11.15,55.25,45.45,0,0,5.76,19-26.83,62.94,0,0-8,32.06-32.22,30.51,0,0,.57,11.67-6.62,12.37,0,0,5.18,7.32-9.33,13.2,0,0,1.4,14.38-10.4,19.44,0,0-5.54,6.13-1.19,10.73,0,0-11.55-3.9-3-19.81,0,0,3.9-11.55,11.09-12.25,0,0-1.52-9.91,5.68-10.61,0,0-1.53-9.91,4.84-13.32,0,0-3.53-1.89-.7-7.19l-10.36-14.64,4.73-8.83s66.38-.88,38.63-68C1351.59,657.58,1348.42,642.25,1327.09,635.39Z"/><path class="cls-25" d="M1260.5,744.54l3.22,3-4.27,19s18.86,12.86,20.78,31.63c0,0-10.71,13.06-22.13,7.53,0,0-17.42-6.48-14-28.08Z"/><polygon class="cls-25" points="1260.41 744.29 1270.71 726.29 1273.86 727.58 1263.29 749.41 1259.42 746.73 1260.41 744.29"/><polygon class="cls-25" points="1238.18 778.49 1244.61 777.1 1243.8 785.75 1237.53 786.48 1238.18 778.49"/><path class="cls-25" d="M1324.75,783.82,1311.27,802s-9.54-10.32-31.42-3c0,0-.62,17.92,9.42,22.93,0,0,13.39,10.66,24.47,1.16,0,0,5.69-9.14,2.92-16l10.86-18.25"/><path class="cls-25" d="M1249.36,766.05S1234,777,1239,781l5.09.65Z"/><path class="cls-9" d="M1302.91,747.54s-11.47,1.66-12,13.84c0,0-1.15,17.2,7.9,42.78,0,0,11.59,5.49,36.56-5.74C1335.38,798.42,1333,744.08,1302.91,747.54Z"/><path class="cls-9" d="M1265.88,725s-8.09-8.17-18.05-1.52c0,0-14.32,9-29.27,31.08,0,0,2.48,12.41,26.13,25.77C1244.69,780.32,1286.41,747,1265.88,725Z"/><path class="cls-15" d="M1238.07,777.78s39.59-36.62,20.27-57l20.9,5.29,30.65,19.59,13.41,8.57s6.45,6.81.48,54.15a32.86,32.86,0,0,1-9.07,12.74Z"/></svg>
